<?xml version="1.0" encoding="UTF-8"?>
<!DOCTYPE svg PUBLIC "-//W3C//DTD SVG 1.1//EN" "http://www.w3.org/Graphics/SVG/1.1/DTD/svg11.dtd">
<svg xmlns="http://www.w3.org/2000/svg" version="1.1" width="100px" height="100px" style="shape-rendering:geometricPrecision; text-rendering:geometricPrecision; image-rendering:optimizeQuality; fill-rule:evenodd; clip-rule:evenodd" xmlns:xlink="http://www.w3.org/1999/xlink">
<g><path style="opacity:0.977" fill="#e61c4d" d="M 30.5,-0.5 C 43.1667,-0.5 55.8333,-0.5 68.5,-0.5C 78.6119,2.31045 86.7785,7.97711 93,16.5C 95.4889,21.1373 97.6555,25.804 99.5,30.5C 99.5,43.1667 99.5,55.8333 99.5,68.5C 96.6896,78.6119 91.0229,86.7785 82.5,93C 77.8627,95.4889 73.196,97.6555 68.5,99.5C 55.8333,99.5 43.1667,99.5 30.5,99.5C 20.3881,96.6896 12.2215,91.0229 6,82.5C 3.51112,77.8627 1.34445,73.196 -0.5,68.5C -0.5,55.8333 -0.5,43.1667 -0.5,30.5C 4.16667,14.5 14.5,4.16667 30.5,-0.5 Z"/></g>
<g><path style="opacity:1" fill="#fff9fa" d="M 79.5,35.5 C 77.0116,36.8863 74.3449,37.8863 71.5,38.5C 69.7923,38.2972 68.459,37.4638 67.5,36C 54.5,35.3333 41.5,35.3333 28.5,36C 27.6667,36.8333 26.8333,37.6667 26,38.5C 25.3333,45.8333 25.3333,53.1667 26,60.5C 27.1667,61.6667 28.3333,62.8333 29.5,64C 43.5,64.6667 57.5,64.6667 71.5,64C 74.1739,63.3299 76.5073,62.1632 78.5,60.5C 79.3382,60.8417 79.6716,61.5084 79.5,62.5C 79.1237,67.7555 76.457,71.2555 71.5,73C 55.5,73.6667 39.5,73.6667 23.5,73C 20.6667,71.5 18.5,69.3333 17,66.5C 15.4049,55.9066 15.0716,45.24 16,34.5C 17.5,30.3333 20.3333,27.5 24.5,26C 39.8333,25.3333 55.1667,25.3333 70.5,26C 75.7649,27.0965 78.7649,30.2631 79.5,35.5 Z"/></g>
<g><path style="opacity:1" fill="#fff6f7" d="M 79.5,35.5 C 82.5518,37.4399 83.8851,40.2733 83.5,44C 83.6074,48.7833 81.6074,52.45 77.5,55C 70.2414,56.1134 62.9081,56.6134 55.5,56.5C 49.1667,56.3333 42.8333,56.1667 36.5,56C 34.4766,52.8169 33.9766,49.3169 35,45.5C 35.5,44.3333 36.3333,43.5 37.5,43C 49.5,42.6667 61.5,42.3333 73.5,42C 76.4086,40.5945 78.4086,38.4278 79.5,35.5 Z"/></g>
<g><path style="opacity:1" fill="#e83155" d="M 38.5,47.5 C 40.8333,47.5 43.1667,47.5 45.5,47.5C 45.6148,52.3276 43.4481,53.6609 39,51.5C 38.51,50.2068 38.3433,48.8734 38.5,47.5 Z"/></g>
<g><path style="opacity:1" fill="#fa95aa" d="M 79.5,62.5 C 79.6716,61.5084 79.3382,60.8417 78.5,60.5C 78.7828,59.7109 79.2828,59.0442 80,58.5C 80.765,60.0657 80.5983,61.3991 79.5,62.5 Z"/></g>
</svg>
