<?xml version="1.0" encoding="UTF-8"?>
<!DOCTYPE svg PUBLIC "-//W3C//DTD SVG 1.1//EN" "http://www.w3.org/Graphics/SVG/1.1/DTD/svg11.dtd">
<svg xmlns="http://www.w3.org/2000/svg" version="1.1" width="100px" height="100px" style="shape-rendering:geometricPrecision; text-rendering:geometricPrecision; image-rendering:optimizeQuality; fill-rule:evenodd; clip-rule:evenodd" xmlns:xlink="http://www.w3.org/1999/xlink">
<g><path style="opacity:0.978" fill="#0576ce" d="M 30.5,-0.5 C 43.1667,-0.5 55.8333,-0.5 68.5,-0.5C 78.6119,2.31045 86.7785,7.97711 93,16.5C 95.4889,21.1373 97.6555,25.804 99.5,30.5C 99.5,43.1667 99.5,55.8333 99.5,68.5C 96.6896,78.6119 91.0229,86.7785 82.5,93C 77.8627,95.4889 73.196,97.6555 68.5,99.5C 55.8333,99.5 43.1667,99.5 30.5,99.5C 20.3881,96.6896 12.2215,91.0229 6,82.5C 3.51112,77.8627 1.34445,73.196 -0.5,68.5C -0.5,55.8333 -0.5,43.1667 -0.5,30.5C 4.16667,14.5 14.5,4.16667 30.5,-0.5 Z"/></g>
<g><path style="opacity:1" fill="#f3f8fc" d="M 35.5,14.5 C 37.1667,14.5 38.8333,14.5 40.5,14.5C 40.6602,16.1992 40.4935,17.8659 40,19.5C 19.3714,29.7569 13.7047,45.4236 23,66.5C 27.1618,72.9952 32.8284,77.6618 40,80.5C 40.4935,82.1341 40.6602,83.8008 40.5,85.5C 26.4118,82.2503 17.2451,73.5836 13,59.5C 9.32012,38.8597 16.8201,23.8597 35.5,14.5 Z"/></g>
<g><path style="opacity:1" fill="#f4f8fc" d="M 58.5,14.5 C 76.5104,19.2825 86.1771,31.1158 87.5,50C 86.3691,67.9671 77.3691,80.1338 60.5,86.5C 58.5539,84.9563 58.0539,82.9563 59,80.5C 79.3491,70.118 85.0158,54.4513 76,33.5C 71.5175,27.4214 65.8508,22.7547 59,19.5C 58.5065,17.8659 58.3398,16.1992 58.5,14.5 Z"/></g>
<g><path style="opacity:1" fill="#f3f8fc" d="M 46.5,24.5 C 51.9064,23.7353 53.9064,26.0687 52.5,31.5C 58.3001,32.3006 61.3001,35.634 61.5,41.5C 59.396,41.7989 57.396,41.4656 55.5,40.5C 53.2158,36.748 49.8825,35.5814 45.5,37C 41.9345,39.1775 41.6012,41.8442 44.5,45C 50.0192,46.0469 55.3525,47.7136 60.5,50C 65.0873,56.5402 64.0873,62.2069 57.5,67C 55.9751,68.0086 54.3084,68.5086 52.5,68.5C 52.5,70.8333 52.5,73.1667 52.5,75.5C 47.0936,76.2647 45.0936,73.9313 46.5,68.5C 39.3352,67.6698 35.6686,63.6698 35.5,56.5C 37.604,56.2011 39.604,56.5344 41.5,57.5C 45.0469,64.2721 49.8802,65.2721 56,60.5C 56.8959,57.975 56.3959,55.8083 54.5,54C 47.6891,53.6237 41.8557,51.1237 37,46.5C 34.6703,37.799 37.8369,32.799 46.5,31.5C 46.5,29.1667 46.5,26.8333 46.5,24.5 Z"/></g>
</svg>
