<?xml version="1.0" standalone="no"?>
<!DOCTYPE svg PUBLIC "-//W3C//DTD SVG 1.1//EN" "http://www.w3.org/Graphics/SVG/1.1/DTD/svg11.dtd" >
<svg xmlns="http://www.w3.org/2000/svg" xmlns:xlink="http://www.w3.org/1999/xlink" version="1.1">
<metadata></metadata>
<defs>
<font id="dustin_regular_outlinoutlined" horiz-adv-x="1228" >
<font-face units-per-em="2048" ascent="1638" descent="-410" />
<missing-glyph horiz-adv-x="614" />
<glyph horiz-adv-x="0" />
<glyph horiz-adv-x="682" />
<glyph unicode=" "  horiz-adv-x="614" />
<glyph unicode="&#x09;" horiz-adv-x="614" />
<glyph unicode="&#xa0;" horiz-adv-x="614" />
<glyph unicode="!" horiz-adv-x="485" d="M61 0h359v338h-359v-338zM61 1055l2 -606h359l2 606v485h-363v-485zM68 6h346v326h-346v-326zM68 1055l2 -600h346l2 600v479h-350v-479zM78 16v306h325v-306h-325zM78 1055v469h330v-469l-2 -590h-326zM86 25v290h309v-290h-309zM86 1055v461h313v-461l-2 -584h-309z " />
<glyph unicode="&#x22;" horiz-adv-x="561" d="M102 1276q0 -46 27 -76q30 -33 72 -33q36 0 61 25q21 21 21 47q6 -18 22 -37q21 -35 72 -35q41 0 63 29v2q19 30 19 51q0 34 -29 58v2q-15 9 -33 12q12 15 29 25l29 16l-35 78l-35 -13v-2q-38 -16 -72 -59q-31 -35 -34 -88q-4 10 -25 31q-18 11 -33 14q4 4 13.5 11.5 t13.5 11.5l35 14l-39 80l-35 -13v-2q-39 -18 -72 -59q-35 -38 -35 -90zM109 1276q0 -45 24 -72q24 -30 68 -30q35 0 57 22q18 18 18 53q0 33 -26 54q-17 14 -41 14v2q10 13 37 33l26 12l-32 68l-29 -11q-42 -23 -68 -59q-34 -34 -34 -86zM117 1276q0 39 33 80q24 34 65 55 l21 8l24 -51l-18 -8l-2 -2q-26 -17 -37 -33l-2 -4q-1 -1 -2 -3t-2 -3l-9 -8h17q23 0 39 -11v-2q24 -14 24 -45q0 -29 -18 -47t-49 -18q-40 0 -60 26q-24 27 -24 66zM125 1276q0 43 29 76h2q24 34 61 55l14 4l21 -39l-14 -6l-2 -2q-34 -28 -39 -35q-2 -2 -2 -6l-2 -2l-19 -21 h31q23 0 35 -10q22 -16 22 -41q0 -27 -16 -43t-45 -16q-35 0 -56 24v3q-20 20 -20 59zM285 1272q0 -36 24 -66q22 -32 68 -32q44 0 57 26v2q19 30 19 47q0 27 -27 54q-21 14 -41 14h2v2q11 16 37 33l22 12l-30 68l-29 -11q-35 -18 -70 -59q-32 -37 -32 -90zM295 1272 q0 52 29 84q33 39 67 55l21 8l22 -51l-16 -8q-32 -26 -37 -35q-7 -3 -10 -10l-9 -8h19q23 0 39 -11q22 -26 22 -47q0 -19 -14 -43l-2 -2q-13 -20 -49 -20q-44 0 -60 26q-22 28 -22 62zM301 1272q0 48 29 80q25 34 63 55l15 4l18 -41l-10 -6q-27 -15 -39 -35q-2 -1 -6 -4 t-6 -4l-19 -21h35q23 0 35 -10q20 -20 20 -41q0 -13 -14 -41q-12 -18 -45 -18q-38 0 -53 24h-2q-21 27 -21 58z" />
<glyph unicode="#" horiz-adv-x="1030" d="M61 453h179l-60 -371h182l58 371h123l-56 -371h183l55 371h199v213h-168l18 125h195v213h-162l49 368h-182l-49 -368h-119l51 368h-186l-47 -368h-213v-213h180l-19 -125h-211v-213zM68 459h180l-60 -371h168l58 371h137l-55 -371h168l55 371h196v198h-167l20 142h195 v198h-164l49 369h-168l-49 -369h-133l51 369h-172l-47 -369h-211v-198h180l-23 -142h-208v-198zM78 469v178h209l24 162h-184v178h211l49 369h150l-50 -369h152l49 369h150l-52 -369h166v-178h-192l-25 -162h170v-178h-196l-54 -371h-149l57 371h-157l-58 -371h-147l59 371 h-182zM84 475v166h209l26 174h-184v166h209l49 367h135l-49 -367h166l49 367h135l-51 -367h166v-166h-190l-27 -174h172v-166h-197l-53 -369h-135l57 369h-172l-57 -369h-133l59 369h-184zM426 641h170l25 174h-166zM434 647h156l22 162h-151zM446 657l23 142h133l-20 -142 h-136zM455 666l20 125h119l-19 -125h-120z" />
<glyph unicode="$" horiz-adv-x="1185" d="M41 244l20 -23q118 -107 269 -168h2q94 -34 194 -49v-127h164v121q187 12 314 115q141 120 141 309q0 187 -115 287q-109 98 -323 147q-2 1 -8 2t-9 2v295q32 -4 90 -22q102 -37 152 -82l26 -23l160 223l-24 19q-94 82 -228 125q-83 30 -176 39v149h-164v-149 q-159 -15 -272 -101q-150 -111 -150 -311q0 -198 132 -299q57 -50 143 -82q52 -20 147 -47v-305q-25 4 -82 26q-99 41 -198 123l-25 27zM49 244l19 -17q116 -107 266 -168q99 -34 201 -49v-127h149v123q187 9 313 111q140 119 140 305t-113 280q-103 96 -317 148q-7 0 -23 4 v309q42 -5 100 -24q100 -37 154 -82l20 -19l152 211l-20 15q-93 81 -226 125q-79 29 -180 38v150h-149v-150q-166 -15 -277 -100q-145 -107 -145 -305t129 -293q52 -49 139 -82q82 -30 154 -47v-321q-43 9 -93 30q-96 38 -200 125l-21 21zM63 246l158 192l12 -12h3 q96 -83 202 -125q66 -28 101 -33l6 -2v342h-4q-104 27 -156 49q-87 33 -137 80q-125 91 -125 285q0 192 141 297q111 84 275 100h6v148h129v-148h4q91 -8 182 -41q136 -45 223 -123l13 -8l-140 -194l-12 12q-59 49 -158 82q-61 22 -108 27l-4 2v-330h4l24 -6 q211 -49 316 -146q108 -86 108 -272q0 -183 -135 -297q-124 -103 -313 -109l-4 -2v-120h-129v124h-6q-85 12 -203 52q-144 57 -262 163zM72 246l151 182l6 -6q103 -87 205 -127q70 -29 103 -35l14 -2v356l-8 2q-70 16 -156 48q-86 33 -135 77v2q-123 89 -123 279 q0 188 139 291q108 82 273 98l10 2v146h115v-146l12 -2q97 -9 180 -39q133 -44 219 -121l8 -6l-131 -180l-6 4q-56 50 -160 86q-76 23 -108 27l-14 2v-344l10 -2q6 -1 15 -3.5t11 -3.5q215 -51 312 -141q106 -89 106 -268t-133 -291q-123 -99 -309 -108h-12v-121h-115v123 l-10 2q-102 15 -201 49q-142 56 -262 164zM381 1038q0 -76 59 -114q45 -28 95 -45l16 -5v312l-14 -2q-51 -5 -97 -33h-2q-57 -39 -57 -113zM389 1038q0 -72 53 -110q57 -30 95 -41l8 -4v295l-6 -2q-55 -6 -97 -31q-53 -39 -53 -107zM399 1038q0 63 50 99q40 22 86 28v-268 q-48 19 -86 41q-50 30 -50 100zM406 1038q0 59 47 92q37 22 73 27v-250q-31 12 -73 37q-47 27 -47 94zM666 250h14q82 9 129 45q59 42 59 115q0 69 -55 112q-54 38 -131 58l-16 4v-334zM674 258h4q81 6 127 43q55 38 55 109q0 67 -51 106v2q-44 28 -129 55h-6v-315zM684 268 v293q71 -21 119 -51q47 -38 47 -100q0 -65 -51 -101q-44 -35 -115 -41zM690 276v275q56 -16 109 -47q45 -36 45 -94q0 -61 -49 -95q-45 -33 -105 -39z" />
<glyph unicode="%" horiz-adv-x="1536" d="M61 12h373l1032 1407h-372zM68 1102q0 -144 94 -246q98 -104 237 -104q144 0 242 104q96 104 96 248q0 142 -94 244q-98 104 -242 104q-141 0 -239 -104q-94 -108 -94 -246zM76 18h354l1022 1395h-356zM76 1102q0 -142 92 -242q94 -102 231 -102q141 0 236 102 q94 101 94 244q0 139 -92 239q-95 103 -236 103q-138 0 -233 -103q-92 -103 -92 -241zM86 1102q0 135 88 233q93 101 227 101q136 0 230 -101q88 -94 88 -231q0 -140 -90 -236q-93 -100 -230 -100q-135 0 -225 100q-88 91 -88 234zM92 1102q0 135 88 229q90 96 221 96 q135 0 224 -96q88 -91 88 -227t-90 -232q-89 -96 -224 -96q-129 0 -219 96q-88 91 -88 230zM96 29l1006 1374h330l-1006 -1374h-330zM111 37l995 1358h311l-995 -1358h-311zM324 1100q0 -48 22 -76l2 -2q25 -25 53 -25q34 0 56 27q22 25 22 76q0 43 -22 74l-2 2 q-26 26 -56 26q-27 0 -51 -24l-2 -2q-22 -36 -22 -76zM332 1100q0 -46 20 -72q24 -24 49 -24q31 0 50 24q20 23 20 72q0 43 -20 69q-27 27 -52 27q-22 0 -47 -25q-20 -29 -20 -71zM340 1100q0 39 20 65q21 21 39 21q20 0 43 -23q19 -25 19 -63q0 -47 -19 -66 q-17 -20 -41 -20q-21 0 -41 20q-20 26 -20 66zM348 1100q0 30 17 61q20 17 34 17q18 0 39 -21q17 -24 17 -57q0 -38 -17 -62q-16 -16 -37 -16q-17 0 -36 16q-17 23 -17 62zM805 346q0 -135 94 -246q96 -102 240 -102q147 0 241 104q95 106 95 246t-95 246q-95 104 -239 104 q-143 0 -240 -106q-96 -107 -96 -246zM813 346q0 -135 90 -242q93 -100 236 -100t235 102q92 106 92 242q0 139 -92 242q-94 102 -233 102q-138 0 -236 -104q-92 -106 -92 -242zM821 346q0 133 92 236q90 100 228 100q134 0 227 -100q88 -98 88 -234q0 -135 -88 -233 q-93 -101 -229 -101t-228 99q-90 104 -90 233zM829 346q0 127 91 229q86 99 221 99q132 0 221 -96q88 -94 88 -230q0 -131 -88 -229q-87 -96 -223 -96q-133 0 -221 94q-89 100 -89 229zM1067 340q0 -41 23 -74q23 -26 53 -26q34 0 53 24h2q23 38 23 76q0 43 -23 76h-2 q-20 26 -55 26q-32 0 -51 -24q-23 -29 -23 -78zM1073 340q0 -40 23 -70q21 -24 47 -24q30 0 49 22q20 29 20 72q0 46 -20 72q-21 24 -51 24q-29 0 -45 -22q-23 -30 -23 -74zM1083 340q0 44 21 68q15 18 37 18q26 0 43 -20q18 -21 18 -66q0 -39 -18 -66q-18 -18 -41 -18 q-22 0 -39 20q-21 24 -21 64zM1092 340q0 42 16 63q17 17 33 17q21 0 37 -19q18 -24 18 -61q0 -34 -18 -61q-15 -15 -35 -15q-18 0 -35 17q-16 26 -16 59z" />
<glyph unicode="&#x26;" horiz-adv-x="1435" d="M41 438q0 -111 39 -188v-2v-2q37 -82 119 -148q149 -116 358 -116q232 0 399 118l21 15l178 -197l240 221l-49 47q-17 17 -48 49t-45 46q-3 4 -10 12t-10 12q-8 11 -16 17q-1 5 -9 12q-1 0 -2 1t-2 1v2l-20 18l12 21q82 127 119 221l16 43l-268 193l-25 -86 q-18 -57 -57 -123l-20 -35l-27 28q-68 83 -100 121l-19 23l27 18q95 59 157 133q91 110 91 226q0 90 -33 155q-36 70 -101 117q-124 90 -299 90q-174 0 -303 -94q-69 -51 -104 -123l-2 -4v-2q-35 -68 -35 -160q0 -102 39 -172v-2l2 -4q4 -8 51 -76l19 -24l-27 -17 q-102 -67 -166 -143q-90 -110 -90 -242zM47 438q0 -103 39 -186v-2v-2q40 -84 117 -144q149 -116 354 -116q227 0 395 118l25 17l180 -195l227 211l-43 43q-36 34 -92 94q-4 4 -11 12.5t-11 12.5q-2 3 -8.5 8.5t-8.5 7.5q-2 7 -8 13q-4 0 -4 4v2l-22 20l16 25 q81 129 117 219l14 39l-256 182l-23 -76q-18 -60 -57 -124l-24 -41l-33 34q-56 65 -101 121l-24 29l33 20q88 57 155 134q90 106 90 221q0 91 -32 151q-35 69 -99 115q-125 90 -295 90t-299 -94q-65 -46 -102 -121h-2v-2q-33 -67 -33 -160q0 -102 37 -172v-2h2 q7 -13 25 -39.5t24 -36.5l27 -28l-35 -23q-106 -68 -164 -141q-90 -111 -90 -238zM57 438q0 124 88 232q57 71 162 139l43 27l-33 38q-48 72 -49 74v2q-37 67 -37 168q0 91 33 156v2q35 72 98 117q127 92 295 92q170 0 289 -88q59 -42 96 -111q31 -67 31 -147 q0 -108 -88 -215q-57 -69 -154 -129l-43 -29l33 -37q47 -61 101 -121l43 -47l30 55q44 74 60 125l18 64l238 -170l-13 -31q-31 -89 -116 -217l-21 -33l27 -24l8 -8q0 -3 6 -9v-2h2q2 -3 15 -16v-2q11 -8 22 -23q58 -62 92 -96l37 -35l-213 -196l-178 194l-33 -22 q-164 -117 -389 -117q-200 0 -348 115q-74 60 -113 139v2q-39 77 -39 184zM66 438q0 125 86 228q55 70 159 137l49 33l-36 43q-7 10 -17 24t-18 25.5t-13 21.5v2l-2 2q-36 62 -36 164q0 83 32 152l2 4v2q28 60 97 110q123 91 288 91q164 0 285 -86q62 -44 92 -109 q33 -68 33 -143q0 -105 -86 -211q-58 -64 -152 -129l-51 -31l37 -45q32 -38 100 -121l52 -51l34 61q43 72 60 127l16 56l226 -162l-11 -27q-28 -79 -114 -217l-25 -35l29 -28l3 -4q3 -4 5 -5q1 -1 3 -4t3 -4v-2h2q12 -12 14 -16l2 -2q6 -8 23 -25q56 -60 92 -94l31 -29 l-203 -188l-178 192l-37 -24q-156 -115 -385 -115q-200 0 -344 111q-74 62 -111 137v2v2q-36 73 -36 180zM356 428q0 -66 56 -113l2 -2h4q60 -45 168 -45q58 0 143 43l57 33l-43 49q-142 155 -188 209l-33 35l-37 -27q-129 -88 -129 -182zM362 428q0 -61 54 -106l2 -3h2 q58 -43 166 -43q60 0 141 41l49 29l-39 43q-80 85 -188 209l-27 29l-33 -23q-127 -82 -127 -176zM373 428q0 85 123 168l24 18l21 -22q63 -75 190 -209l29 -35l-37 -22q-79 -39 -137 -39q-104 0 -162 43h-2h-2q-47 41 -47 98zM381 428q0 86 119 162l20 14l17 -18 q73 -84 188 -209l25 -27l-31 -18q-77 -39 -133 -39q-102 0 -158 41l-4 4q-43 35 -43 90zM528 1130q0 -38 21 -75q9 -18 41 -58l28 -34l37 24q109 62 129 115l2 8v8q0 48 -28 76l-4 4h-2l-2 2q-42 29 -93 29t-92 -33q-37 -30 -37 -66zM537 1130q0 -36 18 -71q14 -28 41 -58 l25 -28l32 20q104 58 125 111l2 6v8q0 44 -28 72h-2l-5 4q-47 29 -88 29q-44 0 -86 -31q-34 -27 -34 -62zM547 1130q0 30 31 54q35 28 79 28q43 0 82 -26l4 -6h2q25 -20 25 -62v-6l-2 -6q-18 -46 -121 -105l-24 -16l-19 23q-30 34 -41 55q-16 37 -16 67zM553 1130 q0 25 29 48q35 28 75 28q42 0 78 -26l6 -6h2q19 -25 19 -56v-4v-4q-18 -47 -119 -102l-18 -13l-17 17q-31 38 -39 55q-16 32 -16 63z" />
<glyph unicode="'" horiz-adv-x="387" d="M102 1276q0 -42 27 -76q30 -33 72 -33q39 0 61 25q23 23 23 57q0 35 -31 60q-20 12 -33 14q4 4 8.5 7.5t11 8t9.5 7.5l33 16l-39 78l-35 -13v-2q-44 -20 -70 -59q-37 -40 -37 -90zM109 1276q0 -41 24 -72q27 -30 68 -30q35 0 57 22q21 18 21 53q0 31 -29 54 q-17 14 -41 14v2h2q7 9 35 33l28 12l-34 68l-27 -11h-2q-42 -23 -68 -59q-34 -37 -34 -86zM119 1276q0 44 31 80h2q20 32 63 57l21 6l26 -51l-20 -8q-23 -17 -39 -35l-2 -4q-1 -1 -2 -3t-2 -3l-7 -6h17q21 0 37 -13q24 -19 24 -47t-16 -47q-18 -18 -51 -18q-40 0 -60 26 q-22 25 -22 66zM125 1276q0 40 31 76q21 33 63 55l14 4l19 -39l-12 -6l-2 -2q-31 -22 -39 -35q-4 -4 -4 -6l-2 -2l-19 -21h33q21 0 33 -10h2q20 -15 20 -41q0 -29 -14 -43q-19 -16 -47 -16q-35 0 -56 24v3q-20 23 -20 59z" />
<glyph unicode="(" horiz-adv-x="839" d="M102 731q0 -146 41 -289q34 -113 105 -239q107 -184 260 -303h2l4 -4q38 -19 55 -19q34 0 59 25t25 59t-24 64v10h-8q-113 135 -170 287q-68 186 -68 434q0 239 92 444q34 82 74 146t72 96q34 27 34 71q0 35 -24.5 60.5t-59.5 25.5q-29 0 -65 -24q-54 -41 -122 -119.5 t-126 -181.5q-156 -262 -156 -543zM109 731q0 -151 43 -287q37 -121 102 -239q111 -186 258 -299h2l4 -4q32 -19 51 -19q32 0 55 23t23 55t-24 62v4h-7q-117 143 -172 292q-69 181 -69 437q0 234 94 448q67 162 147 242q1 1 6.5 7t9 11t8 13t7 17t2.5 19q0 32 -23 56t-55 24 q-25 0 -61 -24q-52 -38 -119.5 -116t-126.5 -181q-155 -260 -155 -541zM119 731q0 275 153 535q57 103 124 180t120 115h2q22 22 53 22q28 0 48 -20.5t20 -49.5q0 -11 -4 -21.5t-8 -16t-11 -13.5l-6 -8q-82 -82 -151 -246q-92 -214 -92 -452q0 -255 67 -441 q54 -148 176 -297h2q2 -2 2 -4q23 -23 23 -53q0 -28 -20 -47.5t-48 -19.5q-18 0 -45 16q-1 1 -3 2t-3 2q-146 112 -254 297q-69 116 -102 235q-43 136 -43 285zM127 731q0 273 152 531q57 102 123.5 178.5t117.5 113.5l2 2q25 19 49 19q25 0 42.5 -18t17.5 -44 q0 -28 -27 -55q-80 -80 -151 -248q-95 -221 -95 -454q0 -257 70 -443q54 -151 178 -299l2 -4h2q19 -25 19 -49q0 -25 -17.5 -42t-42.5 -17q-20 0 -43 14l-4 4q-149 114 -252 295q-66 108 -102 234q-41 130 -41 282z" />
<glyph unicode=")" horiz-adv-x="847" d="M102 1503q0 -43 35 -71q82 -82 148 -242q92 -215 92 -445q0 -251 -70 -434q-57 -153 -172 -291l-4 -4q-27 -34 -27 -65q0 -34 25.5 -59t60.5 -25q24 0 54 18q1 1 3 2t3 2q152 118 260 304q66 112 104 239q43 139 43 289q0 275 -155 543q-59 104 -127.5 182.5 t-122.5 118.5q-29 24 -64 24t-60.5 -25.5t-25.5 -60.5zM111 1503q0 -30 30 -67q33 -32 74.5 -96t75.5 -146q92 -220 92 -449q0 -250 -68 -436q-53 -146 -176 -293l-4 -4q-22 -37 -22 -61q0 -32 22.5 -55t54.5 -23q16 0 52 18q0 1 4 5q52 38 123 113.5t135 185.5 q66 114 104 239q41 140 41 287q0 277 -153 541q-59 104 -127 182t-121 115q-29 24 -60 24q-32 0 -54.5 -23.5t-22.5 -56.5zM121 1503q0 30 19 50t48 20q31 0 54 -23q52 -38 119 -115t126 -180q152 -258 152 -534q0 -145 -41 -285q-36 -119 -102 -235q-45 -77 -100.5 -144 t-90.5 -99t-65 -54l-4 -4q-28 -17 -46 -17q-28 0 -47.5 20t-19.5 48q0 33 20 53l4 4q122 145 177 297q69 184 69 440q0 234 -94 453q-63 155 -149 246q-29 29 -29 59zM127 1503q0 26 17.5 44t43.5 18t50 -19v-2q50 -35 116.5 -112t126.5 -181q152 -266 152 -530 q0 -143 -41 -283q-38 -121 -103 -233q-112 -191 -253 -295q0 -1 -2 -2t-3 -2q-25 -15 -41 -15q-25 0 -43 17.5t-18 42.5q0 28 21 49l2 4h2q121 148 178 299q67 186 67 442q0 231 -92 455q-35 83 -77 148.5t-76 99.5l-6 8q-7 7 -10.5 12t-7 15t-3.5 20z" />
<glyph unicode="*" horiz-adv-x="655" d="M102 1282l121 -25l-61 -104l121 -68l59 107l82 -90l102 92l-82 90l109 49l-55 125l-109 -51l-14 123l-139 -17l14 -120l-117 24zM111 1286l122 -24l-61 -107l107 -61l61 108l84 -90l92 82l-84 92l113 51l-49 111l-113 -51l-14 125l-125 -15l14 -123l-121 25zM123 1294 l22 105l125 -27l-16 127l106 12l15 -127l114 52l43 -95l-114 -53l84 -92l-76 -72l-88 95l-62 -111l-92 51l64 111zM131 1300l19 91l126 -27l-14 129l92 12l15 -131l118 53l35 -81l-116 -56l88 -94l-68 -61l-90 94l-64 -113l-77 45l65 113z" />
<glyph unicode="+" d="M123 602h366v-362h244v362h373v244h-373v377h-244v-377h-366v-244zM129 608h369v-362h229v362h371v230h-371v379h-229v-379h-369v-230zM139 618v209h369v379h209v-379h370v-209h-370v-362h-209v362h-369zM145 625v196h369v377h197v-377h370v-196h-370v-361h-197v361h-369 z" />
<glyph unicode="," horiz-adv-x="260" d="M12 -74q-4 -104 13 -123q5 -8 18 -8q35 0 80 68q45 65 45 94q0 31 -23 53.5t-55 22.5q-31 0 -53.5 -22.5t-22.5 -53.5q0 -19 -2 -31zM20 -43v-33q-9 -97 9 -117q6 -6 14 -6q4 0 9 1.5t10 4.5t9 6t9.5 8.5l9 9t8.5 10t7 9t7 8.5t5 7q43 67 43 92q0 28 -20.5 49t-49.5 21 q-28 0 -49 -21t-21 -49zM29 -76q2 12 2 33q0 25 17 42t42 17t43.5 -17.5t18.5 -41.5q0 -26 -43 -86q-40 -59 -66 -59q-6 0 -8 2q-11 15 -6 110zM35 -76q2 12 2 33q0 22 15.5 37.5t37.5 15.5q23 0 39 -15.5t16 -37.5q0 -26 -41 -82q-20 -29 -36 -43t-25 -14h-2q-12 14 -6 106 z" />
<glyph unicode="-" horiz-adv-x="704" d="M61 604h582v246h-582v-246zM68 610h569v234h-569v-234zM78 621v213h549v-213h-549zM84 627v200h537v-200h-537z" />
<glyph unicode="." horiz-adv-x="204" d="M20 82q0 -34 24 -58t58 -24t58 24t24 58t-24 58t-58 24t-58 -24t-24 -58zM27 82q0 -31 21.5 -53.5t53.5 -22.5q31 0 53.5 22.5t22.5 53.5t-22.5 53.5t-53.5 22.5q-32 0 -53.5 -22.5t-21.5 -53.5zM35 82q0 28 19.5 48t47.5 20t47 -20t19 -48t-19 -48t-47 -20t-47.5 20 t-19.5 48zM41 82q0 25 17.5 43t43.5 18q25 0 42.5 -18t17.5 -43t-17.5 -43.5t-42.5 -18.5q-26 0 -43.5 18.5t-17.5 43.5z" />
<glyph unicode="/" horiz-adv-x="1089" d="M61 -33l140 -69l827 1663l-137 69l-823 -1653zM72 -31l125 -61l821 1646l2 5l-125 61l-821 -1647zM86 -27l813 1635l107 -54l-813 -1634zM94 -23l807 1620l96 -47l-807 -1620z" />
<glyph unicode="0" horiz-adv-x="1181" d="M20 719q0 -326 154 -522q153 -197 418 -197q264 0 416 199q153 191 153 520q0 324 -153 518q-156 197 -416 197q-263 0 -418 -199q-154 -199 -154 -516zM23 719q0 -328 153 -522q154 -195 416 -195q263 0 416 197q151 189 151 520q0 326 -151 518q-160 195 -416 195 q-260 0 -416 -197q-153 -197 -153 -516zM25 719q0 -326 153 -520q154 -195 414 -195q127 0 232.5 50.5t179.5 146.5q153 191 153 518q0 322 -153 516q-154 195 -412 195q-125 0 -231 -50.5t-183 -146.5q-153 -197 -153 -514zM25 719q0 317 153 514t414 197q257 0 414 -195 q151 -192 151 -516q0 -329 -151 -518q-153 -197 -414 -197q-260 0 -414 195q-153 194 -153 520zM27 719q0 -327 153 -518q73 -95 178.5 -145t233.5 -50q259 0 412 197q151 190 151 516q0 321 -151 514q-156 194 -412 194q-260 0 -412 -196q-153 -194 -153 -512zM29 719 q0 313 151 512q156 194 412 194q252 0 409 -192q152 -197 152 -514q0 -322 -152 -516q-150 -195 -409 -195q-258 0 -412 193q-151 196 -151 518zM31 719q0 -327 151 -516q146 -190 402 -193v4q-250 3 -400 191q-149 190 -149 514v2h-4v-2zM33 719q0 -327 151 -516 q147 -188 400 -191q-253 3 -400 191q-151 189 -151 516zM33 719v2v-2zM35 719q0 -321 151 -514q150 -191 406 -191q254 0 405 193q150 188 150 512q0 319 -150 510q-152 190 -405 190q-252 0 -406 -192q-151 -196 -151 -508zM37 719q0 313 151 506q151 192 404 192 q251 0 403 -190q150 -188 150 -508q0 -325 -150 -510q-151 -193 -403 -193q-257 0 -404 191q-151 190 -151 512zM39 719q0 309 149 506q154 190 404 190q251 0 401 -188q150 -191 150 -508q0 -322 -150 -510q-149 -191 -401 -191q-253 0 -404 189q-149 194 -149 512zM41 719 q0 -323 149 -510q148 -189 402 -189q251 0 401 191q150 189 150 508q0 314 -150 506q-153 188 -401 188q-253 0 -402 -190t-149 -504zM43 719q0 313 147 504q153 188 402 188q251 0 399 -186q150 -195 150 -506q0 -316 -150 -508q-147 -188 -399 -188q-254 0 -402 186 q-147 191 -147 510zM45 719q0 309 148 502q150 188 399 188t397 -186q150 -188 150 -504q0 -321 -150 -506q-147 -188 -397 -188q-254 0 -399 186q-148 190 -148 508zM436 719q0 -159 37 -246q38 -92 119 -92q66 0 110 74q46 82 46 264q0 155 -37 239v3v2q-19 43 -49 69 q-33 23 -70 23q-69 0 -111 -76q-45 -83 -45 -260zM438 719q0 -159 37 -246q38 -90 117 -90q64 0 108 74q45 80 45 262q0 157 -36 239v3v2q-22 45 -50 67q-33 23 -67 23q-70 0 -109 -76q-45 -80 -45 -258zM438 719q0 172 47 258q38 74 107 74q35 0 65 -23q33 -23 50 -65v-2 v-3q36 -85 36 -239q0 -182 -45 -262q-43 -72 -106 -72q-78 0 -115 88q-39 92 -39 246zM440 719q0 -160 37 -244q38 -90 115 -90q63 0 104 72q45 80 45 262q0 161 -34 239v3h-2q-38 90 -113 90q-68 0 -107 -76q-45 -80 -45 -256zM442 719q0 -157 37 -244q39 -88 113 -88 q60 0 104 72q43 82 43 260q0 159 -34 237v2v3q-42 88 -113 88q-66 0 -105 -74q-45 -80 -45 -256zM444 719q0 176 45 256q38 72 103 72q69 0 110 -86v-3v-2q35 -80 35 -237q0 -178 -43 -260q-40 -70 -102 -70q-73 0 -111 86q-37 87 -37 244zM444 719h5q0 155 38 239h-4 q-39 -86 -39 -239zM446 719q0 153 39 239q-39 -86 -39 -239zM451 719q0 -156 34 -240q37 -84 107 -84q58 0 96 68q45 77 45 256q0 154 -37 235v2v2q-37 82 -104 82q-60 0 -98 -69q-43 -79 -43 -252zM453 719q0 170 43 252q37 67 96 67q65 0 102 -82v-2q37 -81 37 -235 q0 -179 -45 -256q-38 -66 -94 -66q-68 0 -105 82q-34 84 -34 240zM455 719q0 171 43 250q34 67 94 67q62 0 100 -80v-2q37 -84 37 -235q0 -180 -45 -254q-38 -66 -92 -66q-65 0 -103 80q-34 84 -34 240zM455 719q0 -156 37 -240q34 -78 100 -78q55 0 92 64q43 79 43 254 q0 149 -35 233l-2 2v2q-34 78 -98 78q-57 0 -92 -65q-45 -77 -45 -250zM457 719q0 168 43 250q34 63 92 63q62 0 96 -76v-2l2 -2q35 -84 35 -233q0 -176 -43 -252q-37 -64 -90 -64q-64 0 -98 78q-37 84 -37 238zM459 719q0 169 43 248q34 63 90 63q59 0 94 -74v-2l2 -2 q35 -84 35 -233q0 -176 -43 -252q-34 -61 -88 -61q-67 0 -96 75q-37 84 -37 238zM475 492q3 -9 6 -15l2 -2l2 2q-4 8 -4 15h-2h-4zM477 492q1 -2 3 -7.5t3 -7.5q0 -2 2 -2l-2 2q-1 2 -3 7.5t-3 7.5zM592 1419h2v2v2h-2v-4zM592 1421h2h-2zM594 12q228 0 375 156 q-147 -156 -375 -156zM594 14l2 -4q227 0 373 158l-2 2q-147 -156 -371 -156h-2zM700 948q0 -2 2 -4q31 -85 31 -223h4q0 152 -32 229zM702 950q33 -79 33 -229q0 150 -33 229zM1022 240l4 -2q124 183 127 481v2h-4v-2q0 -292 -127 -479zM1024 240q127 187 127 479 q0 -292 -127 -479zM1151 719v2v-2z" />
<glyph unicode="1" horiz-adv-x="727" d="M0 1276l106 -354l177 45v-967h415v1458h-319l-377 -180zM2 1276l107 -352l176 47v-969h411v1454h-317zM4 1274l375 180h315v-1450h-407v969l-178 -47zM6 1274l105 -346l178 45v-967h405v1448h-315l-371 -180h-2zM8 1272l103 -342l180 47v-969h401v1444h-313zM10 1272 l371 178h309v-1440h-397v969l-180 -47zM12 1272l99 -328l4 2l-99 322l365 176h305v4h-305v-2l-2 2l-365 -176h-2zM14 1270l367 176l-367 -176l99 -324zM18 1268l99 -328l182 47v-971h385v1428h-303l-361 -174zM20 1268l363 174h299v-1424h-381v971l-182 -47zM23 1266 l360 174h297v-1420h-377v973l-184 -49zM25 1266l96 -320l182 47v-973h375v1418h-295l-356 -172h-2zM27 1264l356 172h293v-1413h-371v972l-184 -47zM29 1264l354 170h291v-1409h-367v974l-184 -49zM293 12h4v971h-4v-971zM295 12v971v-971zM381 1446h305h-305z" />
<glyph unicode="2" horiz-adv-x="1060" d="M20 1182l310 -226l6 11q49 66 85.5 95.5t80.5 29.5h2q42 0 74 -29l4 -4h2q24 -30 24 -78q3 -64 -33 -123q-40 -72 -124 -156l-398 -393v-315l987 6l-4 387l-418 -4l166 156q146 152 193 260q43 103 43 233q0 89 -41 185q-42 76 -107 135q-140 116 -335 116h-5 q-185 -3 -315 -84q-111 -69 -190 -194zM23 1182l307 -224l6 9q46 66 83.5 96.5t82.5 30.5h2q44 0 76 -29l4 -4q26 -33 26 -80q3 -65 -32 -125q-39 -67 -125 -156l-398 -391v-313l983 6l-4 383l-420 -4l168 160q146 152 193 260q43 100 43 231q0 89 -41 182q-37 76 -107 136 q-137 116 -333 116h-5q-186 -3 -313 -84q-115 -68 -190 -192zM27 1182l301 -219l4 6q50 69 87 99t83 30h2q42 0 78 -31l2 -2h2q28 -39 28 -84q0 -69 -34 -127q-39 -67 -125 -156l-396 -389l-2 -2v-309l977 6l-4 377l-424 -4l174 166q145 151 193 258q41 102 41 231 q0 96 -41 182q-40 78 -105 134q-137 116 -331 116h-5q-179 -3 -311 -84q-118 -73 -190 -192zM27 1182l4 6q76 126 188 192q130 81 313 84h5q193 0 333 -116q65 -56 105 -134q41 -93 41 -182q0 -131 -43 -231q-47 -108 -191 -258l-174 -164l424 4l4 -379l-979 -6v309l398 391 q87 90 125 158q35 58 32 125q0 45 -26 82h-2l-2 2q-36 31 -78 31h-2q-45 0 -82.5 -30.5t-85.5 -96.5l-6 -6zM31 1184l297 -217l4 4q49 68 86.5 98.5t83.5 30.5h2q42 0 80 -33h2q30 -38 30 -86q0 -69 -34 -127q-38 -68 -125 -158l-396 -389h-2v-307l973 6l-4 373l-426 -4 l178 170q143 149 191 256q41 102 41 231q0 92 -39 180q-40 78 -105 134q-137 116 -331 116h-5q-179 -3 -311 -84q-111 -65 -188 -190zM33 1184l2 2q77 125 188 190q128 81 309 84h5q190 0 329 -117q68 -59 105 -131q39 -88 39 -180q0 -127 -41 -229q-48 -107 -191 -256 l-182 -174l430 4l4 -369l-969 -6v303l396 389q88 91 127 158q34 61 34 129q0 48 -30 86v2h-2h-2q-38 33 -80 33h-2q-47 0 -85.5 -31.5t-86.5 -99.5l-2 -2zM35 1184l291 -213h2l4 4l-4 2l-2 -2l-289 211zM37 1184l291 -211l2 4q-2 -2 -2 -4zM37 1188l4 -2v2q5 7 15.5 22.5 t15.5 22.5l-2 2h-2q-13 -18 -31 -47zM39 1188q8 13 31 45q-23 -32 -31 -45zM41 1186l285 -209l2 2q48 66 87 96.5t87 30.5h2q45 0 84 -31h2l2 -2q33 -41 33 -92q0 -68 -35 -131q-39 -64 -127 -160l-395 -387v-295l956 6l-4 357l-438 -4l192 184q141 147 189 254 q43 97 43 227q0 85 -41 178q-40 74 -103 129q-137 115 -325 115h-5q-179 -3 -307 -82q-106 -64 -184 -184v-2zM43 1186q75 118 184 184q125 79 305 82h5q185 0 325 -115q59 -51 101 -129q41 -90 41 -176q0 -127 -43 -227q-45 -104 -189 -254l-197 -186l443 4l4 -353l-952 -6 v291l393 389q84 84 127 158q37 62 37 133q0 53 -35 94v2h-4q-36 31 -84 31h-2q-49 0 -87.5 -30t-88.5 -97zM47 1186q72 117 180 182q125 79 305 82h5q190 0 323 -115q67 -57 101 -127q40 -87 40 -176q0 -128 -43 -225q-43 -103 -188 -254l-199 -191l445 5l4 -349l-948 -6 v289l393 387q89 92 127 160q37 62 37 133q0 56 -35 94l-2 4h-2q-39 31 -86 31h-2q-50 0 -89 -30.5t-87 -96.5zM47 1186l277 -201h2q48 66 87 96.5t89 30.5h2q50 0 86 -33h2l2 -2q35 -41 35 -96q3 -65 -35 -133q-39 -70 -129 -160l-391 -387v-287l946 6l-4 347l-449 -5 l203 191q139 145 188 254q41 99 41 225q0 94 -38 174q-39 76 -101 129q-134 113 -323 113h-5q-180 -3 -305 -82q-108 -66 -178 -178zM51 1188q75 117 178 178q127 77 303 80h5q187 0 321 -113q59 -51 100 -127q39 -85 39 -174q0 -126 -41 -225q-49 -108 -188 -252l-205 -195 l451 5l4 -342l-942 -7v283l391 387q87 90 129 160q38 71 35 135q0 55 -35 96l-2 4h-4q-36 33 -86 33h-2q-50 0 -89 -30t-89 -97zM53 1188q73 113 178 176q124 77 301 80h5q186 0 319 -111q62 -53 100 -127q39 -85 39 -174q0 -124 -41 -223q-46 -109 -186 -252l-211 -199 l455 4l4 -337l-938 -7v281l391 385q93 100 127 162q40 67 37 135q0 57 -35 98l-4 4h-2q-36 33 -88 33h-2q-51 0 -89.5 -29.5t-88.5 -97.5zM63 6h5v299h-5v-299zM66 6v299v-299zM215 1368q4 2 8 6q112 68 258 80q-146 -12 -258 -80q-4 -4 -8 -6zM215 1370l2 -4v2l8 4q1 1 3 2 t3 2q107 64 250 76v4q-79 -6 -143 -26q-47 -14 -109 -50q-4 -4 -6 -4q-1 -1 -4 -3t-4 -3zM330 981l4 -2q47 64 84.5 93.5t83.5 29.5v4q-48 0 -86 -29.5t-86 -95.5zM332 981q48 65 85.5 94t84.5 29q-47 0 -84.5 -29t-85.5 -94zM442 678l2 -2l17 16l-2 2zM444 678l17 14z M569 1081q2 -1 6.5 -4t6.5 -4l4 2l-2 2q-2 1 -5.5 4t-5.5 4h-2zM571 1083q2 -1 6.5 -4t6.5 -4q-2 1 -6.5 4t-6.5 4zM578 8l452 2l-4 365h-4l4 -361l-448 -4v-2zM578 10l450 2l-4 363l4 -363zM580 846l4 -2q1 1 2 3t2 3v2h2v2l2 2v2q34 60 31 123q0 49 -31 88l-2 -2 q28 -39 28 -86q3 -63 -34 -129q0 -2 -4 -6zM582 844q4 4 4 8q38 65 35 129q0 48 -29 88q29 -40 29 -88q3 -64 -35 -129q0 -4 -4 -8zM584 1071h2v-2h6l-6 6zM586 1071v2v-2zM588 371l176 166zM588 373l2 -4l176 168l-2 2zM774 549h2l2 -2q88 91 140 168l-3 2 q-61 -85 -141 -168zM776 549q89 92 139 166q-50 -74 -139 -166zM885 1321q53 -53 80 -111h2l2 2q-33 65 -82 111zM887 1321q56 -56 80 -111q-24 55 -80 111zM971 1196q35 -81 35 -164h4q0 82 -35 166zM973 1198q35 -84 35 -166q0 82 -35 166zM1006 1032h4h-4z" />
<glyph unicode="3" horiz-adv-x="1128" d="M20 391l11 -37q29 -108 88 -176q49 -65 133 -121h2q79 -46 168 -65h2q87 -23 184 -23q103 0 195 29q81 18 174 80q76 52 129 145l2 2v2q47 92 47 207q0 57 -20 121v2q-27 62 -60 100q-42 48 -90 76h-2l-18 12l-11 7l11 8q43 25 86 71q71 89 71 216q0 114 -45 188 q-44 74 -119 131q-77 54 -163 74q-83 24 -185 24q-82 0 -172 -22q-64 -13 -159 -68q-81 -57 -125 -117q-55 -66 -84 -159l-9 -39l371 -86h2l8 35q13 60 54 88q37 34 94 34q59 0 94 -32h2q35 -24 35 -80q0 -43 -14 -60v-2q-13 -22 -39 -34v-2l-2 -2q-39 -16 -60 -19h-2 q-35 -6 -82 -6h-129v-307h123q48 0 92 -6q35 -7 76 -27l4 -2h2q30 -15 47 -41q17 -24 17 -66q0 -31 -13 -57l-2 -4q-18 -24 -28 -35h-11v-8q-15 -9 -45 -21q-24 -8 -61 -8q-74 0 -123 37v2l-4 2q-55 52 -68 101l-8 34l-368 -96h-3zM23 389l10 -33v-2q28 -104 88 -176 q53 -68 133 -119q77 -45 168 -65h2h2q84 -23 182 -23q100 0 195 29q81 18 174 80q76 54 127 143l2 4v2q47 89 47 205q0 57 -20 121q-27 61 -60 102q-49 53 -90 74l-18 12l-13 9l13 10q43 25 84 72q71 89 71 213q0 112 -45 186q-41 72 -119 131q-72 54 -161 74 q-83 24 -185 24q-82 0 -172 -22q-66 -14 -157 -68q-69 -44 -127 -115q-54 -72 -82 -161l-9 -35l369 -86l8 35q11 51 54 88q41 35 96 35q60 0 96 -33q37 -27 37 -82q0 -45 -14 -62v-2q-13 -20 -39 -34l-2 -2h-2q-26 -16 -60 -21q-37 -6 -84 -6h-127v-303h121q48 0 92 -6 q32 -7 78 -27l2 -2h2q28 -14 49 -41q17 -27 17 -68q0 -37 -15 -59v-2v-2q-18 -26 -30 -35h-9v-6q-16 -10 -47 -23q-21 -8 -61 -8q-73 0 -125 37v2l-4 4q-53 48 -68 99l-8 34zM27 387l8 -31q36 -116 88 -176q53 -68 133 -119q79 -46 168 -65h2q84 -23 182 -23q101 0 193 29 q87 21 174 80q76 54 127 143v2v2q49 91 49 205q0 54 -21 119v2q-29 63 -59 100q-44 47 -90 74l-18 12l-17 11l17 12q37 21 84 72q69 84 69 211q0 110 -43 186q-42 71 -119 129q-67 49 -161 74q-82 24 -183 24q-82 0 -172 -22q-71 -18 -157 -68q-75 -53 -123 -115 q-53 -67 -82 -159l-8 -33l360 -84h2l8 31q9 54 54 90q41 35 98 35q59 0 98 -33q37 -25 37 -84q0 -44 -14 -64q-15 -25 -39 -39h-2l-2 -2q-35 -14 -62 -18q-33 -8 -84 -8h-125v-295h119q48 0 92 -6q40 -8 80 -29h2q30 -15 51 -43q17 -31 17 -70q0 -40 -13 -59l-2 -2v-2 q-16 -26 -30 -37h-6v-6q-15 -10 -52 -23q-21 -8 -61 -8q-76 0 -129 39v2l-2 2q-54 48 -68 101l-8 30l-358 -94h-2zM27 389l360 94l8 -32q16 -55 70 -101l2 -2v-2q51 -39 127 -39q29 0 61 8q32 11 50 23v6h6h2q18 18 30 37v2v2q15 22 15 59q0 43 -19 68q-18 29 -49 43h-2 l-2 2q-40 19 -78 27q-44 6 -92 6h-121v299h127q46 0 84 6q19 3 62 20l2 3q31 17 39 36h2q14 20 14 64q0 57 -37 84q-45 33 -98 33q-57 0 -98 -35q-42 -36 -54 -90l-8 -33l-364 84l8 35q29 91 82 159q52 67 125 115q88 54 157 68q90 22 172 22q104 0 183 -24q93 -21 161 -74 q77 -58 119 -129q45 -74 45 -186q0 -125 -71 -211v-2q-42 -45 -84 -72l-15 -10l15 -11q12 -8 20 -12q49 -25 88 -74q31 -36 59 -100q21 -67 21 -121q0 -118 -47 -205v-2l-2 -2q-53 -92 -127 -143q-94 -63 -174 -80q-92 -29 -193 -29q-106 0 -182 23h-4q-88 19 -166 65 q-80 51 -133 119q-59 68 -88 176zM29 385l8 -29q35 -113 88 -174q52 -67 131 -119q79 -46 168 -65h2q87 -23 182 -23q101 0 193 29q90 23 172 80q74 51 127 143v2q49 91 49 205q0 54 -21 119q-28 64 -59 100q-39 49 -88 74q-8 4 -20 12l-19 13l19 14q39 23 83 70 q70 88 70 211q0 111 -43 184q-42 71 -119 129q-69 50 -159 74q-82 24 -183 24q-84 0 -170 -22q-74 -18 -157 -68q-68 -45 -125 -115q-49 -63 -80 -157l-8 -33l358 -82l8 29q12 57 53 92q44 35 101 35q61 0 100 -33q37 -27 37 -86q0 -47 -14 -64v-2q-12 -21 -41 -37v-2h-2 q-30 -15 -64 -20q-33 -8 -84 -8h-123v-293h117q63 0 92 -4q26 -5 80 -29h2h2q34 -20 51 -45q17 -27 17 -70q0 -40 -12 -61l-3 -2v-2q-14 -23 -32 -37h-6v-6q-12 -10 -50 -23q-24 -8 -63 -8q-78 0 -131 39v2v2q-55 46 -70 103l-8 28zM33 381l4 -14l4 2l-4 14zM33 385l352 92 l6 -28q14 -53 70 -103v-2l2 -2q51 -39 131 -39q39 0 63 8q30 11 52 25v4h4h2q17 14 33 39v2q14 20 14 63q0 44 -19 72q-16 27 -51 45h-2h-2q-38 18 -80 29q-29 4 -92 4h-115v289h121q53 0 84 8h2q38 6 62 20l2 2h2q27 15 41 39q14 20 14 66q0 59 -39 88q-39 33 -100 33 q-60 0 -101 -35q-43 -34 -55 -94l-8 -27l-354 82l8 29q24 84 80 159q57 70 125 113q85 51 155 68q90 22 170 22q100 0 183 -24q92 -22 159 -74q72 -55 117 -127q43 -76 43 -184q0 -124 -70 -209q-38 -44 -81 -72l-21 -14l21 -15l18 -12h2q46 -25 86 -72q30 -37 59 -100 q21 -67 21 -119q0 -115 -49 -203v-2v-2q-50 -88 -125 -141q-87 -58 -172 -80q-92 -29 -193 -29q-95 0 -182 23h-2q-85 18 -166 66q-82 54 -133 116q-58 74 -86 174zM35 383l4 -16zM39 358q35 -113 88 -174q50 -65 131 -118q73 -43 156 -62h2v4q-83 19 -156 62 q-84 55 -131 116q-51 62 -86 172h-4zM39 381l6 -23q28 -102 86 -172q54 -67 129 -116q86 -47 164 -64h2h2q80 -22 180 -22q102 0 191 28q78 17 170 78q70 50 123 139v2l2 2q47 89 47 201q0 53 -21 117q-25 61 -57 98q-41 44 -86 72q-12 6 -21 12l-26 19l26 20q37 21 82 70 q68 86 68 205q0 111 -41 180q-41 70 -117 127q-68 50 -157 71q-83 25 -181 25q-78 0 -168 -23q-79 -19 -155 -65q-69 -46 -121 -113q-54 -69 -82 -155l-4 -25l340 -78h2l6 21q12 59 57 96q43 37 105 37q63 0 104 -35q41 -28 41 -92q0 -49 -16 -70q-13 -23 -43 -41l-2 -2 q-56 -19 -66 -20q-33 -8 -86 -8h-114v-277h108q50 0 94 -6q34 -7 80 -27h2h2q37 -18 56 -49q18 -27 18 -74q0 -38 -14 -63v-2v-2q-18 -27 -37 -43h-2v-2q-18 -15 -56 -27q-24 -8 -65 -8q-82 0 -137 43v2l-2 2q-56 50 -70 105l-4 20l-340 -88h-2zM41 358q35 -113 88 -174 q52 -64 131 -116q73 -43 156 -62q-83 19 -156 62q-79 52 -131 116q-53 61 -88 174zM41 379l338 88l4 -18q14 -55 72 -107v-2v-2q58 -43 139 -43q41 0 65 8q28 8 56 27l2 2h2q19 16 37 43v2v2q14 25 14 65q0 49 -18 76q-25 31 -58 47v2h-2q-44 20 -82 27q-43 6 -94 6h-106 v272h112q48 0 86 9q10 1 66 20h2l2 2q31 18 43 43q16 21 16 70q0 64 -41 94q-44 35 -106 35q-64 0 -107 -37q-46 -39 -57 -98l-6 -19l-338 78l4 21q30 90 80 155t123 113q79 49 153 65q90 23 168 23q95 0 181 -25q89 -21 157 -71q70 -52 115 -125q41 -69 41 -180 q0 -120 -68 -203q-38 -44 -80 -70l-30 -22l30 -21q9 -6 21 -12q42 -23 84 -72q34 -40 57 -98q21 -64 21 -115q0 -112 -47 -201h-2v-2q-50 -89 -121 -139q-96 -61 -170 -78h-2q-86 -28 -189 -28q-100 0 -180 22h-2q-83 18 -164 64q-85 56 -129 116q-57 66 -86 172zM45 377 l332 88l4 -19q14 -51 72 -106v-2l2 -2q58 -43 139 -43q41 0 65 8h3q36 15 55 27l2 2v2q23 19 39 43v2v2q14 25 14 65q0 49 -20 78q-21 30 -56 47l-2 2h-2q-44 20 -82 27q-43 6 -94 6h-104v268h110q48 0 86 9q14 2 68 20v2l2 2q30 15 45 41q16 21 16 72q0 62 -43 96 q-44 35 -106 35q-64 0 -107 -37q-47 -38 -59 -100l-4 -17l-336 78l4 19q30 90 80 155q50 62 121 111q84 50 153 65q90 23 168 23q95 0 178 -25h3q87 -21 155 -71q70 -52 115 -125q41 -66 41 -178q0 -116 -66 -203q-48 -48 -82 -70l-32 -22l32 -23q9 -6 21 -12q46 -25 86 -72 q30 -35 55 -96q21 -64 21 -115q0 -112 -47 -198l-3 -3v-2q-49 -87 -120 -137q-92 -61 -170 -78q-86 -28 -189 -28q-100 0 -180 22h-2q-78 17 -164 64q-82 56 -129 114q-55 67 -84 172zM45 377l4 -17q29 -103 86 -170q45 -62 129 -114q81 -49 162 -64h2q70 -22 180 -22 t189 26v2q82 18 170 76q66 47 120 137v2v3q50 86 50 198q0 50 -21 115q-30 64 -57 96q-39 45 -84 70l-21 14l-34 23l34 24q42 26 80 70q68 83 68 201q0 104 -41 178q-45 73 -115 125q-70 51 -158 69v2q-87 23 -178 23q-89 0 -168 -23q-69 -15 -153 -65q-71 -46 -121 -111 q-53 -70 -78 -153l-4 -19l330 -76h2l4 17q15 63 59 98q48 39 109 39q65 0 108 -37q43 -30 43 -96q0 -48 -18 -72q-12 -25 -43 -43l-2 -2h-2q-29 -15 -68 -20q-38 -9 -86 -9h-110v-266h104q50 0 94 -6h2q40 -8 80 -29h2h2q36 -17 58 -49q18 -30 18 -78q0 -44 -12 -65v-2 l-2 -2q-18 -27 -37 -43v-2l-4 -2q-18 -15 -55 -27q-33 -10 -68 -10q-85 0 -139 45l-4 2v2v2q-56 51 -70 104l-4 17l-330 -86h-2zM47 375l328 86l4 -15q14 -56 70 -106v-2l4 -4q57 -45 141 -45q38 0 68 10q33 10 57 27l4 4q19 16 37 43l2 2v2q12 24 12 67q0 51 -18 78 q-22 31 -60 51h-2h-2q-40 21 -80 29h-2q-43 6 -94 6h-102v262h108q48 0 88 9q36 5 66 20h2l2 2q32 19 45 45q18 24 18 72q0 65 -45 98q-43 37 -108 37q-64 0 -109 -39q-46 -37 -61 -100l-2 -15l-330 76l4 17q24 80 78 153q54 66 121 111q80 47 151 65q86 21 168 21 q91 0 178 -23q87 -21 156 -71q70 -52 115 -125q41 -71 41 -176q0 -117 -66 -201q-49 -49 -82 -68l-34 -28l34 -23q9 -6 21 -12q48 -26 84 -72q31 -33 57 -94q21 -64 21 -115q0 -107 -48 -198l-2 -3v-2q-49 -85 -120 -135q-87 -57 -168 -78q-82 -26 -189 -26q-105 0 -178 20 l-2 2h-2q-78 14 -162 62q-82 56 -129 114q-57 74 -84 170zM51 373l322 86l4 -13q14 -56 69 -108v-2l5 -4q60 -45 143 -45q38 0 68 10q30 9 57 27l6 4q19 19 37 43l2 4v2q12 24 12 67q0 50 -18 80q-20 29 -60 51h-4q-45 22 -82 29q-46 6 -96 6h-100v258h106q50 0 88 9 q39 5 68 20h2l2 4q31 16 45 43q18 24 18 74q0 69 -45 98q-40 37 -110 37q-66 0 -111 -39q-46 -37 -61 -100l-2 -13l-326 76l4 13q26 90 78 153q47 62 119 111q75 45 153 65q82 21 166 21q91 0 178 -23q87 -21 156 -71q69 -51 113 -123q41 -71 41 -176q0 -115 -66 -199 q-39 -41 -80 -70l-39 -28l39 -25q9 -6 21 -12q39 -22 84 -70q32 -41 55 -96q21 -62 21 -113q0 -108 -48 -196l-2 -5v-2q-49 -84 -118 -133q-85 -56 -168 -78h-2q-79 -26 -187 -26q-105 0 -178 20l-2 2h-2q-81 15 -160 62q-77 51 -129 115q-54 63 -84 167zM80 1094h4 q2 6 6 17t6 17q0 1 1 3.5t1 3.5l-2 2q-1 -1 -2 -4.5t-2 -4.5q0 -2 -2 -4q-2 -5 -5 -15t-5 -15zM82 1094q2 7 7 21.5t7 21.5q-2 -7 -7 -21.5t-7 -21.5zM293 1368q41 23 55 29q-14 -6 -55 -29zM293 1370l2 -4q35 20 41 23h2v2q8 4 12 4l-2 4l-12 -6q-11 -5 -43 -23zM381 473 l2 -14l4 2l-2 12h-4zM383 473l2 -12zM389 440q10 -40 60 -90q2 0 2 -2q1 -1 3 -2t3 -2l4 -4l-2 -2q4 0 8 -4l2 2v2q-2 0 -6 4h-2v2v2l-6 6h-2v2h-2q-45 42 -60 88h-2v-2zM389 442q18 -51 70 -98l-2 2q-50 45 -68 96zM401 598h5v281h116v4h-121v-285zM403 598v283h119h-119 v-283zM426 2q80 -22 176 -22h2v4h-2v-2v2h-4h-2h-2q-67 0 -139 14q-22 6 -27 8zM426 4q80 -22 178 -22q-96 0 -176 22h-2zM430 1014q11 51 51 88q-40 -37 -51 -88zM430 1014h2q11 49 51 86l-2 4q-39 -33 -51 -90zM461 340l8 -4zM463 1434q78 16 147 16v4q-69 0 -147 -16v-4z M463 1436q78 16 147 16q-69 0 -147 -16zM492 1112l4 -2q39 31 94 31v4q-50 0 -98 -33zM494 1112q42 31 96 31q-54 0 -96 -31zM524 879h17v4h-17v-4zM524 881h17h-17zM526 596h4h5q37 0 75 -6v4q-32 4 -51 4q-8 2 -24 2h-3h-2h-4v-4zM526 598q44 0 84 -6q-41 6 -84 6z M590 1141h2v4h-2v-4zM590 1143h2h-2zM592 1141q52 -3 90 -27l2 2q-6 4 -25 14q-26 12 -67 15v-4zM592 1143q56 -3 92 -29q-36 26 -92 29zM602 885q4 0 6 2v4h-2q0 -2 -4 -2v-4zM602 887q4 0 6 2q-2 -2 -6 -2zM608 -16v-4h2v4h-2zM608 -18h2h-2zM610 -16v-4q92 0 162 20v4 q-70 -20 -162 -20zM610 -18q92 0 162 20q-70 -20 -162 -20zM610 1450h2v4h-2v-4zM610 1452h2h-2zM612 590q44 -11 68 -25h2q2 0 4 -2q2 0 4 -2h2q1 0 3 -1t3 -1l2 4q-4 0 -6 2h-4q-32 18 -76 27v2zM612 887q21 4 41 12v4q-20 -8 -41 -12v-4zM612 889q17 2 41 12 q-32 -11 -41 -12zM614 592q35 -8 76 -29q-47 23 -76 29zM614 1450h13q68 0 137 -16l2 4q-75 16 -152 16v-4zM614 1452q77 0 152 -16q-75 16 -152 16zM657 307q5 1 11 4l8 4l-8 -4t-11 -4zM657 309l2 -4q4 2 11 5l6 3v4q-5 -3 -19 -8zM670 907h2l2 2l2 2l-2 -2l-2 -2h-2z M670 909l2 -4l2 2l2 2h2l-2 4q-2 0 -2 -2l-2 -2h-2zM692 563q1 0 3 -1t3 -1l-4 2h-2zM711 334h2l2 -2l6 6h-10v-4zM713 334v2h2zM717 954l4 -2q14 20 14 64h-4q0 -42 -14 -62zM719 952q14 20 14 64q0 -44 -14 -64zM723 348l4 -4q3 4 10.5 12.5t10.5 12.5l-5 2 q-14 -18 -20 -23zM725 346q13 12 20 25q-7 -13 -20 -25zM743 518h2h-2l2 -2v-2l5 2q0 2 -2 2v2zM745 520q0 -2 3 -2v-2v2q-3 0 -3 2zM750 379h4v2l-4 2v-2v-2zM752 379v2v-2zM791 1425h4l2 5h-4zM791 1427h6h-6zM952 78l2 -2q2 0 4 2q1 1 11 6l2 2l-2 4q-2 -2 -17 -12z M954 78q8 4 17 10q-9 -6 -17 -10zM971 780l4 -2q23 16 67 60q64 79 70 190v2v12h-4v-2v-10h2h-2h2h-2h2h-2h2h-2v-2q-6 -109 -68 -186q-38 -42 -67 -60v-2v-2v2h-2zM973 778q41 30 67 62q67 82 70 202q-3 -120 -70 -202q-26 -32 -67 -62zM975 723l2 -2l2 4h-2zM977 723h2h-2 zM979 721q39 -22 84 -70l2 2q-39 45 -84 70zM979 723q48 -28 86 -72q-35 40 -86 72zM1094 223l6 10l-4 3l-2 -5v-8zM1096 231q0 2 2 2q-2 0 -2 -2zM1108 1042h4h-4zM1108 1047h4h-4zM1116 561q1 -2 3 -5t3 -5l4 2h-2q0 4 -4 8v2zM1118 561q2 -2 6 -10q-4 8 -6 10zM1122 551 q4 -10 8 -33v-2h3h2h-2h2l-2 -2l2 2l-2 -2l2 2l-2 -2q0 -6 2 -8h4q-2 4 -2 10h-2q-1 6 -4.5 18.5t-4.5 18.5zM1124 551q2 -10 7 -26.5t6 -18.5q-1 2 -6 18.5t-7 26.5z" />
<glyph unicode="4" horiz-adv-x="1148" d="M0 184h557v-184h412v184h159v383h-159v891h-328l-641 -1003v-2v-269zM2 186h557v-184h408v184h159v379h-159v891h-324l-641 -1001v-4v-265zM4 188v263l639 1003h322v-891h159v-375h-159v-184h-404v184h-557zM4 190h557v-184h402v184h159v373h-159v891h-318l-639 -1001 l-2 -2v-261zM6 193h557v-185h398v185h159v368h-159v891h-316l-639 -1001v-258zM8 195v254l639 1001h311v-891h160v-364h-160v-185h-393v185h-557zM10 197h4v252h-4v-252zM12 197v252v-252zM14 201h557v-185h381v185h160v352h-160v891h-303l-635 -995v-248zM16 203v243 l635 996h299v-891h160v-348h-160v-185h-377v185h-557zM18 205v241l633 994h297v-891h160v-344h-160v-185h-373v185h-557zM20 205h558v-185h370v185h160v342h-160v891h-295l-633 -992v-241zM23 207v239l630 990h293v-891h160v-338h-160v-184h-366v184h-557zM25 209v235 l630 990h289v-891h160v-334h-160v-184h-362v184h-557zM412 549h260v414zM414 551h256v403zM418 553l250 395v-395h-250zM420 555h246v389zM424 557h240v381zM428 559l234 371v-371h-234zM432 563l2 -4l225 359l-2 4zM434 561l225 359zM438 565h217v344zM442 567l211 334 v-334h-211zM446 569l205 326v-326h-205zM453 571l196 314v-314h-196zM567 12h4v185h-4v-185zM569 12v185v-185zM649 1444h307v4h-307v-4zM649 1446h307h-307zM956 553h160v4h-160v-4zM956 555h160h-160z" />
<glyph unicode="5" horiz-adv-x="1087" d="M20 213l11 -16v-2q94 -101 221 -162q124 -53 270 -53q231 0 385 139q160 145 160 358q0 215 -154 348q-155 125 -360 125q-73 0 -109 -8l-8 -2v158h549v336h-889v-680l146 -193l16 6h2l4 2q133 74 230 74q96 0 155 -47q58 -40 58 -125q0 -73 -50 -117l-4 -2 q-58 -43 -123 -43q-70 0 -147 39q-84 47 -102 68h-2l-3 2l-6 6h-2q-6 5 -19 17t-18 16l-22 20l-189 -262v-2zM23 213l8 -14l2 -2q89 -99 221 -162q117 -53 268 -53q231 0 385 139q158 143 158 356q0 212 -152 346q-155 125 -360 125q-73 0 -109 -8l-10 -2v162h549v332h-885 v-678l144 -191l16 6h2l2 2q142 74 232 74q98 0 157 -47q58 -43 58 -127q0 -75 -50 -119h-2l-2 -2q-58 -43 -125 -43q-72 0 -149 39q-68 38 -102 68v2h-3q-1 1 -4 3t-4 3q-22 17 -37 35l-22 16zM25 213l186 258l18 -16q23 -23 37 -33l2 -2l6 -6h2l3 -2q26 -26 102 -66 q75 -41 149 -41q67 0 125 43l2 2h2q52 46 52 121q0 87 -60 129q-57 45 -157 45q-94 0 -232 -72l-2 -2h-2l-14 -6l-144 189v676h881v-328h-549v-166l14 2q33 8 107 8q209 0 358 -125q152 -131 152 -344q0 -211 -158 -354q-154 -139 -383 -139q-151 0 -268 53 q-132 63 -219 160l-2 2zM27 213l8 -14q87 -98 219 -162q124 -53 268 -53q229 0 383 139q158 143 158 354q0 213 -152 344q-155 125 -358 125q-57 0 -107 -8l-14 -4v168h547v328h-877v-676l142 -187l14 6h2q136 74 234 74q101 0 157 -47h2q60 -45 60 -129q0 -75 -54 -123h-2 h-2q-58 -43 -125 -43q-72 0 -151 39q-84 49 -103 68l-2 2q-2 0 -8 6q-22 17 -37 35l-18 14zM29 213l8 -12v-2q87 -97 219 -160q121 -53 266 -53q230 0 381 139q158 143 158 352q0 211 -152 342q-152 125 -356 125q-57 0 -107 -8l-16 -4v172h547v323h-873v-671l140 -187l12 6 h2h2q136 74 234 74q100 0 159 -47q62 -44 62 -131q0 -75 -53 -125h-3h-2q-58 -43 -127 -43q-74 0 -151 39q-77 43 -105 68v2q-8 0 -8 6h-2q-14 12 -37 35l-16 14zM31 213l180 250l14 -12q23 -23 39 -33v-2q2 0 8 -6h2q19 -21 105 -70q77 -39 151 -39q68 0 129 43h3v2 q55 46 55 125q0 86 -62 133t-161 47q-100 0 -234 -73h-2h-2l-12 -7l-138 185v669h869v-319h-547v-176l18 4q50 8 107 8q202 0 354 -125q152 -128 152 -340q0 -209 -156 -350q-154 -139 -381 -139q-142 0 -266 53q-131 64 -217 160zM31 215l8 -12v-2l6 -6l2 -2l2 -3l2 -2l2 2 q0 3 -4 7l-2 -2l2 2q-4 4 -6 8zM37 213l6 -8q90 -100 217 -158q118 -53 262 -53q225 0 377 137q154 142 154 346q0 207 -148 336q-150 123 -352 123q-54 0 -104 -8l-27 -6v190h547v307h-856v-661l133 -178l10 4h2q134 73 236 73q105 0 163 -49q66 -48 66 -137 q0 -81 -59 -131h-2v-2q-61 -43 -132 -43q-77 0 -155 41q-87 49 -105 67q-2 1 -10 9q-20 15 -39 34l-8 9l-174 -240zM41 203q2 -2 6 -6.5t6 -6.5q-2 2 -6 6.5t-6 6.5zM41 213l172 238l6 -7q20 -20 39 -32q1 -1 4.5 -5t5.5 -6q21 -19 107 -67q78 -41 155 -41q72 0 132 45h2h2 q59 50 59 133q0 91 -66 139q-61 49 -165 49q-101 0 -238 -73h-2l-6 -4l-133 176v659h852v-303h-547v-194l29 6q33 8 104 8q203 0 350 -123q148 -127 148 -334q0 -208 -154 -344q-152 -137 -375 -137q-141 0 -262 53q-131 61 -215 158zM43 213l170 236l6 -5q19 -19 39 -34 q0 -6 10 -9q22 -23 105 -69q81 -41 157 -41q74 0 134 45h2h2q57 51 57 135q0 93 -63 141q-65 50 -168 50q-101 0 -238 -76h-2l-6 -2l-131 176v655h850v-299h-549v-198l31 6q33 8 104 8q201 0 348 -123q148 -124 148 -332q0 -205 -154 -344q-150 -135 -373 -135 q-141 0 -262 53q-122 57 -215 156zM43 213l4 -4v-2q93 -99 215 -156q114 -51 260 -51q223 0 373 135q152 137 152 342q0 207 -146 332q-148 121 -348 121q-71 0 -104 -8l-31 -7v203h547v295h-848v-653l131 -174l6 2h2q139 74 238 74q106 0 168 -50q65 -45 65 -141 q0 -88 -59 -135l-2 -2h-2q-62 -45 -134 -45t-157 43q-86 49 -107 67q-9 9 -10 9q-20 15 -39 34l-4 4zM47 213l166 231l4 -4q2 -2 16 -13.5t23 -18.5q1 -1 4.5 -5t5.5 -6q19 -19 107 -67q82 -43 157 -43q70 0 134 45h2l4 2q59 53 59 137q0 93 -65 143t-170 50 q-102 0 -238 -74h-2l-4 -2l-131 172v651h844v-291h-547v-207l33 7q33 8 104 8q201 0 346 -121q145 -124 145 -330q0 -203 -151 -342q-148 -133 -371 -133q-146 0 -260 51q-124 58 -213 156zM49 211v2l164 227h2q19 -19 39 -34q8 -8 10 -9q20 -20 107 -69q85 -43 159 -43 q70 0 134 45h4l2 2q61 52 61 139q0 96 -67 145q-65 50 -170 50q-101 0 -240 -74l-4 -2l-129 172v647h840v-287h-547v-211l35 7h2q31 8 102 8q196 0 346 -119q143 -125 143 -330q0 -206 -149 -340q-148 -133 -371 -133q-143 0 -260 51q-121 57 -213 156zM106 756l56 -74l4 2 l-55 74v661h862v4h-867v-667zM109 758v663h864h-864v-663l55 -74zM225 444q13 -13 31 -28l2 4q-30 25 -31 26zM227 446q13 -13 31 -28q-10 7 -31 28zM233 53q15 -7 25 -10q2 -2 14 -8l2 4h-2q-8 4 -10 6h-4l-2 2q-3 1 -7 3l-7 3.5t-6 3.5zM233 55q4 -2 12.5 -6t12.5 -6 t16 -6q-12 4 -16 6t-12.5 6t-12.5 6zM246 573l10 5v4l-10 -4v-5zM246 575l10 5zM256 582l2 -4q35 19 55 26l-2 2l2 -2v2v-2l-2 2h2v2v-2q1 0 4.5 1t4.5 1q18 9 22 10l-2 5q-2 -2 -6 -2q-4 -2 -12.5 -6.5t-12.5 -6.5q-24 -10 -41 -20q-8 -4 -14 -6zM258 580q63 32 86 41 q-31 -11 -86 -41zM260 412q2 0 6 -4l2 4l-4 4zM262 414l4 -4zM270 406l4 2h-2zM270 408q2 0 2 -2zM291 387q43 -27 65 -39q3 -2 9.5 -6t9.5 -6l2 2l-2 -2q68 -33 131 -39q10 0 16 -2v4h-2q-4 2 -14 2v-2v2q-67 7 -123 37q-4 0 -6 2q-11 8 -21 10q-58 37 -61 39v2zM293 389 q30 -23 84 -51q-54 28 -84 51zM377 338q72 -38 145 -41q-73 3 -145 41zM424 926l6 2zM424 928l2 -4l4 2v4zM446 930h3h-3zM446 932l3 -4h2l-2 4h-3zM498 651q36 0 63 -6q10 0 14 -2l3 4q-2 0 -6.5 1t-6.5 1h-2q-30 6 -65 6v-4zM498 653q47 0 80 -8q-33 8 -80 8zM530 295 q62 0 123 39l6 6l-2 2q-58 -43 -127 -43v-4zM530 297q68 0 129 43q-61 -43 -129 -43zM530 936h7h16v4h-16h-7v-4zM530 938h23h-23zM553 936h2v4h-2v-4zM553 938h2h-2zM655 604q2 0 2 -2l2 4q-2 0 -2 2v-2zM657 342l5 -2h2v4h-5zM657 604v2v-2zM659 342h3h2h-2h-3zM664 344 q4 3 22 21q-18 -18 -22 -21zM664 344l2 -2l20 20v3l-2 2q-10 -14 -20 -21v-2zM717 471h4v2h-4v-2zM719 471v2v-2zM967 205l4 -2q86 121 86 274h-4q0 -154 -86 -272zM969 205q86 118 86 272q0 -154 -86 -272z" />
<glyph unicode="6" horiz-adv-x="1173" d="M20 498q0 -115 48 -217q49 -99 122 -164q83 -70 181 -103q101 -34 219 -34q112 0 215 34q100 35 180 103q78 69 123 168q45 89 45 219q0 107 -37 194v2q-46 94 -106 148q-64 67 -152 98q-87 35 -180 35h-16l393 453h-475l-402 -502q-68 -106 -112 -205q-46 -111 -46 -229 zM23 498q0 -115 45 -217q47 -93 125 -162q74 -68 178 -103q103 -34 219 -34q112 0 215 34q100 35 180 103q76 69 121 166q45 91 45 219q0 107 -37 194q-45 92 -104 148q-68 68 -154 98q-84 35 -178 35h-21l394 453h-471l-400 -502q-57 -83 -112 -203q-45 -112 -45 -229z M25 498q0 118 45 227q42 102 112 203v2l400 500h465l-394 -453h25q94 0 178 -35q86 -30 152 -96q56 -53 104 -148q37 -87 37 -194q0 -128 -45 -217q-47 -104 -121 -166q-80 -68 -180 -103q-101 -34 -213 -34q-116 0 -219 34q-101 35 -178 103q-77 67 -123 162 q-45 102 -45 215zM27 498q0 -119 45 -215q46 -94 123 -162q79 -69 176 -103q103 -34 219 -34q112 0 213 34q100 35 180 103q76 69 121 166q45 95 45 217q0 108 -37 192v2q-46 91 -104 146q-66 66 -152 96q-84 35 -178 35h-27l393 455h-462l-400 -502q-69 -105 -110 -203 q-45 -102 -45 -227zM29 498q0 -119 45 -215q44 -92 121 -160q83 -70 178 -103q101 -34 217 -34q112 0 213 34q96 34 178 103q75 66 121 164q45 95 45 217q0 105 -37 192q-45 92 -104 148q-67 67 -152 94q-84 35 -176 35h-31l391 454h-454l-400 -499q-70 -108 -110 -203 q-45 -102 -45 -227zM31 498q0 123 45 225q45 109 110 203l398 499h450l-391 -454h35q99 0 176 -35q82 -26 150 -94q58 -55 104 -146q37 -87 37 -192q0 -120 -45 -215q-48 -103 -121 -164q-75 -66 -178 -102q-103 -35 -211 -35q-114 0 -217 35q-105 36 -176 102 q-80 70 -121 160q-45 91 -45 213zM37 498q0 -118 43 -211q47 -93 121 -158t174 -100q103 -35 215 -35q109 0 209 35q102 36 178 100q77 70 117 162q45 95 45 213q0 103 -37 190q-40 84 -103 144q-59 62 -147 94q-79 33 -174 33h-49l393 454h-436l-396 -497 q-68 -103 -110 -201q-43 -101 -43 -223zM39 498q0 119 43 223q40 94 111 201l395 495h430l-393 -454h53q95 0 174 -33q83 -30 147 -94q60 -56 101 -144q37 -84 37 -188q0 -118 -45 -213q-46 -101 -117 -160q-77 -66 -176 -100q-100 -35 -209 -35q-112 0 -215 35 q-104 38 -172 100q-70 59 -121 156q-43 98 -43 211zM41 498q0 119 43 223q41 93 111 199l393 495h426l-393 -454h57q96 0 172 -33q83 -30 147 -94q59 -56 101 -142q37 -84 37 -188q0 -125 -45 -211q-42 -97 -117 -162q-72 -61 -174 -98q-103 -35 -209 -35q-113 0 -213 35 q-103 36 -174 98q-76 67 -119 158q-43 93 -43 209zM41 498q0 -111 45 -209q44 -93 119 -156q71 -65 172 -100q98 -33 213 -33q97 0 209 33q103 38 174 100q71 59 117 160q43 87 43 211q0 101 -35 188q-49 92 -101 142q-65 65 -147 92q-81 35 -172 35h-60l392 452h-420 l-395 -493q-73 -110 -109 -201q-45 -99 -45 -221zM43 498q0 120 43 221q41 97 111 199l393 493h416l-392 -453h64q84 0 172 -32v-2q77 -25 145 -93q62 -59 101 -141q34 -84 34 -186q0 -121 -43 -211q-46 -99 -116 -158q-74 -65 -174 -100q-109 -33 -207 -33q-115 0 -213 33 q-97 36 -172 98q-72 66 -119 156q-43 100 -43 209zM45 498q0 117 43 221q41 93 111 199l393 491h409l-393 -453h70q85 0 170 -32h2q80 -30 143 -93q62 -62 101 -141q34 -84 34 -186q0 -122 -43 -209q-44 -96 -114 -160q-72 -61 -174 -98q-95 -33 -207 -33q-115 0 -213 33 q-99 36 -170 98q-69 61 -119 156q-43 90 -43 207zM92 758h2h2q0 1 1 3t1 3v2h2q7 17 29 57l-4 2q-5 -10 -15.5 -29.5t-15.5 -29.5q0 -1 -1 -3.5t-1 -4.5zM94 758q10 23 33 67q-23 -44 -33 -67zM188 133q1 -1 4.5 -4t4.5 -4q2 -1 20 -15.5t29 -21.5l2 4q-27 17 -47 37 q-6 3 -11 8zM188 135q2 -1 5.5 -4t5.5 -4q20 -20 47 -37q-27 17 -47 37q-2 1 -5.5 4t-5.5 4zM352 33q3 -1 10.5 -3t10.5 -3q8 -4 12 -4q-4 0 -12 4q-3 1 -10.5 3t-10.5 3zM352 33l4 -4q3 -1 9 -2t8 -2l10 -5h2l2 5q-2 0 -6 1t-6 1v2h-2q-2 1 -7 2t-8 2q-2 2 -6 2v-2z M412 510q0 -73 45 -127l2 -2q48 -51 131 -51q80 0 127 47t47 135q0 75 -47 125q-46 49 -125 49q-85 0 -131 -49q-49 -49 -49 -127zM414 510q0 -73 45 -127l2 -2q46 -49 129 -49q81 0 125 47q47 47 47 133q0 76 -47 123q-46 49 -123 49q-86 0 -129 -49q-49 -49 -49 -125z M416 510q0 77 49 123q43 49 127 49q77 0 123 -49q45 -48 45 -121q0 -87 -47 -131q-44 -47 -123 -47q-81 0 -127 49l-2 2q-45 54 -45 125zM418 510q0 -70 43 -125l2 -2q47 -47 127 -47q81 0 123 45q47 47 47 131q0 74 -47 121q-46 49 -121 49q-84 0 -127 -49 q-47 -50 -47 -123zM420 510q0 -71 43 -123l2 -2q41 -47 125 -47q82 0 121 45q47 44 47 129q0 74 -45 119q-46 49 -121 49q-82 0 -125 -49q-47 -44 -47 -121zM422 510q0 74 47 121q41 47 123 47q72 0 119 -47q45 -48 45 -119q0 -82 -45 -127q-42 -45 -121 -45q-82 0 -123 47 l-2 2q-43 49 -43 121zM422 1221l2 -4l162 202h442v4h-444zM424 532h4q6 55 41 93l-2 2q-37 -37 -43 -95zM424 1219l162 202h442h-442zM426 532q6 55 41 93q-35 -38 -41 -93zM428 510q0 -70 41 -117l2 -2q41 -47 119 -47q75 0 117 45q43 43 43 123q0 72 -43 115 q-45 45 -115 45q-80 0 -119 -45q-45 -45 -45 -117zM430 510q0 69 43 115h2q36 45 117 45q71 0 113 -45q43 -43 43 -113q0 -77 -43 -123q-40 -43 -115 -43q-74 0 -119 45v2q-41 49 -41 117zM430 510q0 68 45 113q39 45 117 45q68 0 110 -45q43 -40 43 -111q0 -78 -43 -121 q-40 -43 -112 -43t-117 45l-2 2q-41 50 -41 115zM432 510q0 -68 41 -115v-2q43 -43 117 -43q71 0 112 41t41 121q0 67 -41 111q-40 43 -110 43q-78 0 -115 -43q-45 -42 -45 -113zM434 510q0 68 43 111q40 43 115 43q71 0 108 -43q41 -41 41 -109q0 -78 -41 -119 q-38 -41 -110 -41q-75 0 -115 43l-2 2q-39 48 -39 113zM436 510q0 68 43 111q35 41 113 41q67 0 108 -44q39 -39 39 -106q0 -79 -41 -117q-38 -41 -108 -41q-73 0 -113 43l-2 2q-39 45 -39 111zM469 629l2 -2l2 2l-2 2q-2 0 -2 -2zM471 629l2 2zM473 381q44 -41 117 -41v4 q-71 0 -115 41zM473 383q44 -41 117 -41q-73 0 -117 41zM590 340q73 0 112 39l-2 2q-40 -37 -110 -37v-4zM590 342q70 0 110 37q-40 -37 -110 -37zM635 967h43v4h-43v-4zM635 969h43h-43zM707 627q43 -43 43 -113v-2q0 -74 -35 -115l4 -2q35 41 35 117q0 75 -45 117v2z M707 629h2q43 -46 43 -117q0 71 -43 117h-2zM717 395q35 41 35 117q0 -76 -35 -117zM791 25l2 -5q1 1 4 2.5t4 2.5q4 0 6 2h2q2 0 4 2l-2 4q0 -2 -4 -2q-2 -2 -6 -2l-2 -2q-4 0 -8 -2zM793 23q1 1 4 2t4 2q4 0 12 4q-8 -4 -12 -4q-1 -1 -4 -2t-4 -2zM852 932h4v-2l2 4 q-2 2 -4 2v-2zM854 934q2 0 4 -2zM932 893q13 -8 39 -29q2 0 2 -2l4 4q-1 1 -18 13.5t-25 17.5l-2 -2v-2zM932 895q21 -12 43 -31q-22 19 -43 31zM961 113q12 8 18 14q71 62 117 162q45 89 45 215q0 -126 -45 -215q-46 -100 -117 -162q-6 -6 -18 -14zM961 115l2 -4q3 2 8 7 t8 7q4 4 8 6v2h2q67 61 109 156q28 54 37 119q8 41 8 96h-4q0 -50 -9 -96q-9 -61 -34 -117q-44 -91 -111 -156h2h-2h2h-2q-1 0 -2 -1t-2 -1l-4 -4q-3 -3 -8.5 -7.5t-7.5 -6.5zM1018 821q46 -49 86 -127l2 2q-33 69 -84 127h-2zM1018 823q51 -53 86 -129q-35 76 -86 129z" />
<glyph unicode="7" horiz-adv-x="1101" d="M20 1085h621l-551 -1083l-2 -2h457l534 1128l2 2v304h-1061v-349zM23 1087h620l-551 -1085h451l534 1126l2 2v302h-1056v-345zM25 1090h624l-551 -1082l-2 -4h447l532 1126v3v297h-1050v-340zM25 1090v340h1052v-297l-534 -1129h-447l549 1081l2 5h-622zM27 1092h624 l-551 -1086h441l532 1124v3v294h-1046v-335zM29 1094v331h1042v-292l-532 -1125h-435l549 1084l2 2h-626zM31 1098h4v321h1034v4h-1038v-325zM33 1098v323h1036h-1036v-323zM35 1100h631l-551 -1082l-2 -4h422l530 1121v284h-1030v-319zM37 1102v315h1026v-282l-528 -1119 h-418l551 1086h-631zM39 1104v311h1022v-280l-529 -1117h-411l549 1084l2 2h-633zM41 1106h633l-551 -1083l-2 -3h411l529 1115v278h-1020v-307zM41 1108v303h1018v-274l-529 -1114h-405l551 1085h-635zM43 1110v299h1014v-272l-527 -1112h-401l549 1081l2 4h-637zM535 12 l4 -2l401 846l-4 2zM537 12l401 846z" />
<glyph unicode="8" horiz-adv-x="1091" d="M20 444q0 -195 156 -323q64 -53 166 -90q98 -31 203 -31q218 0 364 115q162 128 162 329q0 151 -88 265q-26 37 -59 63l-6 6l2 4l18 19l2 2q72 107 72 225q0 93 -35 164q-34 75 -103 135q-132 107 -329 107q-83 0 -172 -25q-88 -27 -150 -80q-60 -48 -104 -129h-2 q-35 -78 -35 -172q0 -129 72 -219v-2v-2q1 -1 2 -3t2 -3t2 -3t2 -3v-5l4 -2q2 0 4 -2l2 -6l-4 -6q-41 -36 -62 -65q-86 -113 -86 -263zM23 444q0 -194 155 -321q66 -54 164 -90q98 -31 203 -31q219 0 362 115q78 60 120 144.5t42 182.5q0 152 -88 263q-14 22 -57 65l-9 6 l3 4l20 19v2q72 106 72 225q0 93 -35 164q-34 72 -101 133q-131 107 -329 107q-83 0 -172 -25q-84 -27 -148 -78q-64 -52 -106 -129q-35 -78 -35 -172q0 -127 70 -219l2 -2q0 -2 4 -6q0 -1 1 -3t1 -3l2 -4l4 -3q2 -2 2 -4l4 -6l-6 -6l-17.5 -17.5t-23 -24.5t-18.5 -25 q-86 -113 -86 -261zM25 444q0 148 86 261q21 31 59 65l8 8l-6 8q0 1 -4 5h-2l-2 4q0 2 -4 6q0 1 -1 3t-1 3l-2 2v2q-70 92 -70 217q0 92 35 170q44 81 104 129q64 51 148 78q89 25 172 25q199 0 327 -107q67 -58 101 -133q35 -69 35 -162q0 -120 -72 -223v-2l-18 -19l-5 -6 l9 -8q25 -20 59 -63q86 -112 86 -263q0 -98 -41.5 -181.5t-118.5 -143.5q-146 -115 -362 -115q-105 0 -203 31q-96 35 -164 88q-74 62 -113.5 145t-39.5 176zM27 444q0 -94 39 -176.5t112 -142.5q70 -55 166 -90q105 -31 201 -31q217 0 360 115q78 60 120 144t42 181 q0 149 -88 263q-14 20 -57 63l-11 8l4 6l21 19v2q72 107 72 223q0 87 -35 162q-32 70 -101 133q-132 107 -327 107q-87 0 -172 -27q-90 -28 -146 -76q-58 -44 -104 -129h-2q-35 -78 -35 -170q0 -126 72 -219v-2l4 -4q1 -1 2 -4t2 -4v-2l2 -2q1 0 6 -5l4 -8l-8 -8 q-47 -47 -59 -65q-84 -110 -84 -261zM29 444q0 -193 151 -319q68 -53 164 -88q95 -31 201 -31q217 0 360 115q77 60 118.5 143.5t41.5 179.5q0 148 -86 261q-34 43 -59 63l-11 10l6 8l19 19q72 110 72 223q0 84 -35 162q-35 74 -101 131q-131 106 -325 106q-88 0 -170 -24 q-84 -27 -148 -78q-62 -50 -104 -127q-35 -78 -35 -170q0 -127 72 -217v-2q0 -2 4 -6l4 -8v-2h2q4 -4 4 -7l6 -8l-8 -10q-37 -33 -59 -66q-84 -110 -84 -258zM29 444q0 147 86 256q22 33 59 66l10 12l-8 10q0 4 -6 7v2q-4 4 -6 8q-2 2 -2 4v2q-72 90 -72 217q0 93 35 168 q42 77 104 127q60 51 146 78q86 24 170 24q199 0 323 -106q64 -53 101 -131q35 -75 35 -160q0 -112 -70 -221l-21 -21l-8 -8l15 -12q31 -28 57 -64q86 -113 86 -258q0 -96 -41.5 -179.5t-118.5 -143.5q-144 -113 -358 -113q-106 0 -201 31q-92 34 -162 88q-153 128 -153 317 zM31 444h4v2h-4v-2zM33 444v2v-2zM35 444q0 -89 39 -172q41 -81 110 -141q62 -48 162 -86q95 -31 199 -31q217 0 354 113q158 121 158 317q0 146 -84 256q-26 33 -58 62l-18 16l12 13l19 20q69 100 69 217q0 90 -32 158q-35 74 -99 129q-128 104 -321 104q-85 0 -168 -24 q-86 -27 -144 -76q-62 -50 -102 -125q-35 -75 -35 -166q0 -123 70 -215h2v-2q0 -2 2 -4l4 -8q5 -3 8 -8l8 -13l-12 -16q-40 -36 -59 -64q-84 -107 -84 -254zM37 444q0 145 84 252q18 27 57 66l15 16l-9 15l-8 8q-1 1 -3 4t-3 4q0 2 -2 2v2v2q-70 89 -70 213q0 91 35 166 q42 79 100 123q56 47 144 76q83 24 168 24q194 0 319 -104q61 -50 99 -127q32 -68 32 -158q0 -113 -67 -217l-21 -18l-12 -15l18 -16q44 -44 58 -64q84 -107 84 -254q0 -195 -156 -317q-139 -111 -354 -111q-104 0 -199 31q-85 28 -160 86q-73 61 -110 139q-39 83 -39 172z M39 444q0 144 82 252h2q20 31 57 64l15 18l-11 15q-3 5 -8 8q0 4 -4 8q0 2 -2 2v4v2q-70 89 -70 211q0 83 33 164q44 78 103 125q60 47 141 74q86 24 168 24q193 0 317 -102q64 -55 99 -129q34 -69 34 -156q0 -111 -69 -215l-19 -18l-14 -19l20 -16q34 -31 56 -62 q84 -110 84 -254q0 -94 -40.5 -175t-115.5 -140q-139 -111 -352 -111q-106 0 -197 31q-95 30 -160 86q-70 56 -110 137q-39 77 -39 172zM41 444q0 -95 37 -170q42 -83 110 -139q59 -48 160 -86q95 -31 197 -31q209 0 352 111q75 59 115.5 140t40.5 175q0 145 -84 252 q-14 20 -58 64l-20 16l14 19l19 18q69 100 69 215q0 81 -32 156q-35 75 -99 127q-125 104 -317 104q-83 0 -168 -24q-83 -27 -141 -76q-60 -45 -101 -123q-35 -75 -35 -164q0 -122 70 -211l2 -2v-2v-2h2q0 -4 4 -8q4 -2 8 -10l11 -15l-17 -20q-33 -29 -57 -62v-2 q-82 -105 -82 -250zM43 444q0 146 82 250q17 28 57 64l17 18l-11 19l-8 8q-2 4 -6 8v2v2l-2 2q-70 89 -70 211q0 89 35 164q42 77 101 121q58 49 141 76q83 24 166 24q190 0 317 -102q61 -55 96 -127q33 -70 33 -156q0 -112 -67 -213l-19 -18l-16 -21l22 -18q34 -31 56 -62 q84 -107 84 -252q0 -191 -156 -313q-136 -111 -350 -111q-102 0 -197 31q-96 36 -160 86q-69 57 -108 137q-37 78 -37 170zM43 444q0 143 82 248q14 21 57 64l19 20l-13 19q-4 8 -8 10q0 4 -4 8v2l-2 4q-70 89 -70 209q0 84 33 162q41 72 101 123q57 46 141 73q86 25 166 25 q188 0 315 -102q63 -57 96 -127q33 -67 33 -154q0 -112 -67 -213l-19 -18l-16 -21l22 -20q34 -31 56 -62q84 -107 84 -250q0 -93 -40 -173.5t-114 -137.5q-137 -110 -350 -110q-106 0 -197 30q-94 31 -158 86q-70 59 -108 135q-39 83 -39 170zM92 1028h4q0 85 33 166l-2 2 q-35 -75 -35 -168zM94 1028q0 84 33 168q-33 -84 -33 -168zM115 700h2l2 -2q0 2 2 2v2l-4 3q0 -1 -1 -2.5t-1 -2.5zM117 700l2 2zM127 1196q43 76 104 125q5 5 11 8q-6 -3 -11 -8q-61 -49 -104 -125zM127 1196l2 -2q5 8 8 16q40 67 94 109l2 2q6 3 9 6l-2 4q-5 -5 -11 -8 q-55 -46 -94 -111v-2q-5 -5 -8 -14zM145 737l2 -2q7 7 17 16t12 11v2l-2 2q-13 -10 -29 -29zM147 737q19 19 29 27q-21 -16 -29 -27zM162 811h4v2l-2 2zM164 805l4 2v2h-2v2l-2 -2v-2v-2zM164 809l2 -2q0 2 -2 2zM164 811v2v-2zM170 795q6 0 6 -4l2 -3l2 3v2q-4 4 -6 4v2h-2 v2l-2 -2v-2v-2zM170 799h2v-2h2l6 -6q-4 4 -8 6q0 2 -2 2zM182 780l4 -6l2 4l-2 4zM184 780l2 -2zM336 43q2 0 4.5 -1t3.5 -1l2 -2q4 0 8 -2v4q-1 0 -4 1t-4 1l-8 4zM338 45l8 -4q6 0 8 -2q-2 2 -8 2zM346 455q0 -64 49 -113q56 -53 150 -53q99 0 151 55q52 42 52 111 q0 81 -52 127q-56 53 -151 53q-96 0 -152 -53q-47 -47 -47 -127zM346 455q0 -72 49 -115q53 -53 150 -53q101 0 153 55q21 17 36.5 47t15.5 66q0 81 -52 127q-58 55 -153 55q-100 0 -152 -55q-47 -44 -47 -127zM348 455q0 81 47 125q53 53 150 53q92 0 151 -53 q49 -43 49 -125q0 -35 -14.5 -64.5t-34.5 -44.5v-2q-55 -55 -151 -55q-93 0 -148 55q-49 42 -49 111zM350 455q0 -39 15.5 -68t31.5 -43q53 -53 148 -53q97 0 149 55q21 15 36 44t15 65q0 77 -51 125q-56 53 -149 53q-97 0 -150 -53q-45 -45 -45 -125zM352 455 q0 -69 47 -109q53 -53 146 -53q97 0 149 55q20 15 34.5 44t14.5 63q0 80 -49 123q-59 53 -149 53q-95 0 -148 -53q-45 -42 -45 -123zM354 455q0 78 45 120q51 54 146 54q90 0 147 -54q49 -43 49 -120q0 -64 -49 -107q-50 -53 -147 -53q-92 0 -146 51q-45 52 -45 109z M354 455h4q0 75 41 116h2l-2 2h-2q-43 -43 -43 -118zM356 455q0 75 43 118q-43 -43 -43 -118zM360 455q0 73 43 116q50 50 142 50q89 0 141 -52q47 -41 47 -114q0 -56 -45 -101h-2q-48 -51 -141 -51q-90 0 -139 49q-46 46 -46 103zM360 455q0 -62 43 -105q52 -49 142 -49 q92 0 143 51q7 5 16 15.5t20 35.5t11 52q0 75 -47 116q-52 52 -143 52q-90 0 -142 -52q-43 -37 -43 -116zM362 455q0 73 44 114q49 49 139 49q89 0 141 -49q45 -39 45 -114q0 -27 -10.5 -50.5t-19 -33.5t-15.5 -15q-50 -53 -141 -53q-86 0 -137 51q-46 39 -46 101zM365 455 q0 -58 43 -101q49 -49 137 -49q91 0 139 51h2q45 45 45 99q0 73 -45 112q-54 51 -141 51t-139 -49q-41 -41 -41 -114zM367 455q0 74 41 112q49 49 137 49q87 0 139 -49q45 -42 45 -112q0 -26 -10.5 -49t-19 -33t-15.5 -15v-2q-49 -49 -139 -49q-89 0 -135 49q-43 37 -43 99z M369 455q0 71 39 110q49 49 137 49t137 -49q45 -39 45 -110q0 -26 -10 -49t-18.5 -32.5t-14.5 -13.5l-2 -2q-46 -49 -137 -49q-85 0 -135 47q-41 41 -41 99zM395 1034q0 -50 31 -86v-2q41 -41 119 -41q66 0 114 39h5l4 4q28 39 28 86q0 69 -49 109q-45 33 -102 33 q-69 0 -109 -37q-41 -41 -41 -105zM397 1034q0 -47 31 -86q41 -41 117 -41q66 0 114 39h3l4 2q28 39 28 86q0 68 -47 109q-42 31 -102 31q-67 0 -107 -37q-41 -38 -41 -103zM399 348h2q5 -5 25 -20v-2h2l2 -2q5 -2 15.5 -7.5t15.5 -7.5l2 4q-18 7 -31 15l-2 -2l2 2l-2 -2 l2 2l-2 -2l2 2h-2h2h-2l-6 6h-2q-2 2 -7 6t-7 6q-1 1 -2.5 2t-2.5 2q0 2 -2 2l-2 -2v-2zM399 1034q0 -48 31 -84q41 -41 115 -41q67 0 112 39h5l2 2q28 39 28 84q0 68 -47 105q-43 32 -100 32q-66 0 -105 -36q-41 -38 -41 -101zM399 1034q0 65 39 101t107 36q59 0 100 -30 q47 -38 47 -107q0 -49 -28 -84l-2 -2h-3l-2 -2q-43 -37 -112 -37q-77 0 -115 41q-31 31 -31 84zM401 348q25 -25 62 -37q-34 11 -60 37h-2v2v-2zM401 575q53 50 144 50q-91 0 -144 -50zM401 578l2 -5q50 50 142 50v4q-95 0 -144 -49zM401 1034q0 -46 31 -82q38 -41 113 -41 q67 0 112 39h2l3 2q28 36 28 82q0 64 -47 105q-42 30 -98 30q-66 0 -105 -36q-39 -39 -39 -99zM403 1034q0 60 39 96q37 37 103 37q57 0 98 -30q45 -36 45 -103q0 -42 -29 -82h-2q-48 -39 -112 -39q-71 0 -113 39q-29 33 -29 82zM410 1034q0 -45 26 -78q39 -36 109 -36 q69 0 108 36l2 2h2q25 36 25 76q0 62 -43 99q-39 28 -94 28q-61 0 -99 -35q-36 -33 -36 -92zM412 1034q0 58 37 92q33 33 96 33q55 0 92 -29q43 -32 43 -96q0 -42 -25 -73h-2v-3q-42 -36 -108 -36q-71 0 -107 36q-26 29 -26 76zM414 1034q0 55 35 90q36 33 96 33 q52 0 92 -29q41 -30 41 -94q0 -38 -23 -71h-2l-2 -2q-40 -37 -106 -37q-71 0 -105 37q-26 29 -26 73zM414 1034q0 -44 26 -73q37 -37 105 -37q59 0 106 37l2 2h2q23 33 23 71q0 62 -43 94q-37 29 -90 29q-55 0 -96 -33q-35 -35 -35 -90zM416 1034q0 58 35 88q33 33 94 33 q50 0 90 -29q41 -33 41 -92q0 -36 -23 -69l-4 -2q-40 -37 -104 -37q-69 0 -103 37q-26 26 -26 71zM416 1094l4 -2q10 22 26 36q17 17 39 25q1 0 4 1t5 1l-2 4q-26 -9 -50 -29q-18 -18 -26 -36zM418 1034q0 56 35 86q33 33 92 33q51 0 88 -29q41 -27 41 -90q0 -37 -23 -67 l-2 -2q-40 -37 -104 -37q-68 0 -103 35q-24 30 -24 71zM418 1094q8 16 26 34q20 20 50 29q-30 -9 -50 -29q-18 -18 -26 -34zM434 954q36 -36 111 -36q-75 0 -111 36zM434 954q0 -1 1 -2t1 -2q37 -32 94 -35h15v5h-15v-2v2q-61 3 -94 36zM543 1163v4v-4zM545 10h2 q190 0 327 92l-2 2q-134 -90 -325 -90h-2v-4zM545 12q193 0 327 90q-134 -90 -327 -90zM545 623v2v-2h2h20q61 -6 109 -39q11 -11 12 -13q47 -38 47 -116h4q0 76 -47 120q-5 5 -14 11q-44 35 -113 41h-20v-4zM545 625q90 0 145 -52q47 -41 47 -118q0 77 -47 118 q-55 52 -145 52zM545 1419h2v4h-2v-4zM545 1421h2h-2zM649 952l2 -4l4 4l7 4h-7q-1 -1 -3 -2t-3 -2zM651 950l4 4zM688 352l4 -2q20 16 33 43l-2 2q-9 -19 -33 -43h-2zM690 350q21 14 35 45q-14 -27 -35 -45zM850 1329l4 -4h2q2 -4 10 -8q2 -2 5.5 -5t5.5 -5l2 2 q-1 2 -5.5 5.5t-5.5 4.5q-2 1 -5 4t-5 4l-4 4h-2zM852 1329q4 -4 16 -12q5 -5 11 -8q-6 3 -11 8q-12 8 -16 12zM901 776l14 -12q2 -2 5 -4.5t4 -3.5q2 -2 6.5 -7t7.5 -8l8 -8l2 2q0 1 -1 2t-1 2l-6 6l-2 3q-12 12 -20 18l-15 12zM901 778l17 -14q5 -4 30 -29q-25 25 -30 29z M924 805l4 -2l4 4l-2 2zM926 803l4 6zM930 809q68 98 71 213q-3 -115 -71 -213zM930 809l2 -2q4 6 12 19.5t12 19.5v2q18 37 23 49q22 65 25 125h-5q0 -48 -16 -104q-9 -26 -31 -68l2 -2l-2 2l2 -2h-2h2h-2h2h-2h2h-2h2h-2h2h-2q-12 -24 -22 -39zM932 150q126 120 129 292 q-3 -172 -129 -292zM932 152l2 -5q65 62 94 136q32 67 35 159h-4q0 -75 -33 -159q-38 -80 -94 -131zM954 1206q2 -3 5.5 -9t5.5 -9v-2q34 -72 34 -158h5q0 83 -35 158v2v2q-10 15 -11 18zM956 1208q7 -14 11 -20q34 -72 34 -160q0 88 -34 160q-4 6 -11 20zM977 696 q82 -111 82 -252h4q0 144 -84 254zM979 696q82 -108 82 -252q0 144 -82 252zM999 1024l5 2h-5v-2zM1001 1024v2v-2z" />
<glyph unicode="9" horiz-adv-x="1171" d="M20 932q-3 -109 37 -191v-2v-4q37 -79 105 -147q62 -65 151 -101q91 -32 181 -32h14l-395 -453l475 -2l405 500v2q64 91 111 200q47 103 47 230q0 126 -45 217q-45 98 -123 164q-68 65 -178 104q-104 37 -215 37q-112 0 -219 -35q-106 -37 -183 -100q-77 -68 -122 -166 q-46 -98 -46 -221zM23 930q-3 -109 36 -189v-2v-2q37 -81 103 -147q67 -67 151 -101q79 -32 181 -32h18l-395 -453l471 -2l403 500q64 94 111 200t47 230q0 126 -45 217q-42 95 -121 162q-67 64 -180 104q-101 37 -213 37q-114 0 -217 -35q-106 -37 -183 -100h-2 q-75 -66 -120 -164q-45 -96 -45 -223zM25 930q0 130 45 221q45 98 120 164q77 63 183 100q103 35 217 35q109 0 213 -37q110 -39 178 -104q81 -69 121 -162q45 -89 45 -215q0 -124 -47 -227q-47 -108 -109 -201l-2 -2l-403 -498l-463 2l393 453h-22q-96 0 -181 33 q-83 35 -149 98q-66 70 -103 147v2v2q-39 83 -36 189zM27 930q-3 -104 34 -189v-2l2 -2q35 -80 103 -145q59 -62 149 -98q82 -33 179 -33h24l-393 -455l461 -2l403 500q65 93 109 201q47 97 47 227q0 124 -45 215q-41 94 -119 162q-61 58 -178 104q-104 37 -213 37 q-114 0 -217 -35q-101 -35 -180 -100h-3q-72 -63 -118 -164q-45 -96 -45 -221zM29 930q-3 -104 34 -189v-2h3q34 -78 100 -147q72 -69 149 -96q82 -33 179 -33h30l-395 -455l457 -2l401 498q63 92 111 201q45 99 45 227q0 122 -43 215q-46 96 -121 160q-67 64 -176 104 q-104 37 -213 37q-110 0 -217 -35q-104 -38 -180 -100q-78 -68 -119 -162q-45 -96 -45 -221zM31 903q3 -88 32 -153l5 2q-30 67 -33 151v10v2v15q0 118 41 211l-4 2q-41 -93 -41 -213v-15v-2v-10zM31 930q0 126 43 219t121 162q79 65 180 100q103 35 215 35q110 0 211 -37 q113 -41 176 -104q78 -64 121 -160q43 -90 43 -213q0 -126 -45 -225q-48 -112 -111 -201l-401 -498l-451 2l395 455h-34q-97 0 -179 33q-80 29 -147 96q-64 64 -102 145v2v2q-38 84 -35 187zM33 930q-3 -94 33 -180q-36 83 -33 180q0 117 41 213q-41 -96 -41 -213zM37 930 q-3 -103 35 -187v-2q41 -84 100 -143q61 -61 145 -96q88 -31 177 -31h47l-396 -455l435 -2h2l399 496q56 80 109 199q45 96 45 223q0 121 -43 211q-42 94 -119 157q-62 62 -174 103q-101 37 -209 37q-113 0 -213 -35q-91 -28 -178 -98q-74 -65 -119 -160q-43 -93 -43 -217z M39 930q0 124 43 217q45 95 117 158q83 68 178 98q103 35 213 35q108 0 209 -37q107 -39 174 -103q75 -63 117 -155v-2q45 -86 45 -209q0 -118 -48 -223q-55 -123 -108 -199l-399 -494l-428 2l393 455h-51q-90 0 -175 31q-84 35 -145 96t-100 141v2v2q-38 84 -35 185z M41 930q0 122 43 215q39 89 117 160q81 66 176 96q103 35 213 35q108 0 209 -37q109 -41 172 -101q76 -67 116 -157q46 -91 46 -209q0 -119 -48 -221q-45 -108 -106 -199l-399 -494l-424 2l395 455h-57q-90 0 -175 31q-84 35 -145 96q-60 60 -98 141v2q-38 84 -35 185z M41 930q-3 -101 35 -182l2 -3v-2q38 -83 98 -141q61 -64 143 -94q82 -33 175 -33h59l-395 -452l420 -3h2l397 492q58 87 108 199q45 96 45 221q0 119 -43 209q-43 93 -116 155q-67 64 -174 103q-100 35 -207 35q-102 0 -211 -33q-99 -36 -178 -98q-72 -63 -117 -158 q-43 -93 -43 -215zM43 930q0 122 43 215q45 92 117 155q72 61 176 99q109 33 211 33q104 0 207 -35q109 -41 172 -101v-2q75 -63 116 -153v-2q43 -87 43 -207q0 -125 -45 -221q-52 -118 -108 -197l-397 -491l-416 2l395 452h-63q-87 0 -172 31q-86 36 -146 96 q-61 61 -96 139v2l-2 3q-38 81 -35 182zM45 930q0 123 43 213q39 88 117 157q85 69 174 97q95 33 211 33q104 0 207 -35q106 -40 170 -101q73 -62 116 -155q43 -87 43 -207q0 -122 -45 -221q-56 -122 -106 -197l-397 -489l-412 2l395 452h-67q-87 0 -172 31q-81 34 -144 94 q-63 66 -96 139v2l-2 3q-38 84 -35 182zM68 741h4v2v2l-4 -2v-2zM70 741v2v-2zM80 1159l4 -2q42 88 113 150l-2 4q-74 -68 -113 -150zM82 1157q47 95 115 152q-68 -57 -115 -152zM88 700q14 -26 37 -55l2 2q-27 40 -35 55zM90 700q14 -24 35 -53q-21 29 -35 53zM137 16l4 -4 l23 27l-2 4zM139 14l25 27zM299 1378l4 -2q51 22 74 29q8 4 24 8l-2 4q-16 -4 -24 -8q-38 -12 -74 -31h-2zM301 1376q46 22 74 31q8 4 24 8q-16 -4 -24 -8q-28 -9 -74 -31zM408 924q0 -74 47 -127q49 -52 129 -52q79 0 129 50q49 55 49 129t-47 127q-46 52 -127 55 q-76 0 -131 -49v-2q-46 -49 -49 -131zM410 924q0 -75 47 -125q48 -51 127 -51q78 0 127 49q49 52 49 127q0 74 -47 127q-47 50 -125 53q-74 0 -129 -49q-46 -52 -49 -131zM412 924q0 -73 47 -123q48 -51 125 -51q76 0 125 49q49 52 49 125q0 72 -47 125q-45 48 -123 51 q-77 0 -127 -47q-46 -49 -49 -129zM412 924q3 83 49 129q52 49 127 49q79 -3 123 -53q47 -53 47 -125q0 -76 -49 -125q-46 -49 -125 -49q-80 0 -125 51q-47 50 -47 123zM414 924q0 -74 47 -121q45 -51 123 -51q77 0 123 49q49 52 49 123q0 70 -47 123q-42 48 -121 51 q-75 0 -125 -47q-46 -49 -49 -127zM416 924q3 78 47 125h2q47 47 123 47q75 -3 121 -52q45 -51 45 -120q0 -70 -47 -123q-50 -47 -123 -47q-74 0 -123 49q-45 51 -45 121zM422 924q0 -69 45 -117q44 -47 117 -47q70 0 118 45q46 52 46 119t-46 116q-43 49 -114 52h-2 q-69 -3 -117 -48q-44 -44 -47 -120zM424 924q3 75 45 120q49 46 117 46q69 -3 116 -50q43 -53 43 -116q0 -69 -45 -117q-48 -45 -116 -45q-70 0 -117 47q-43 46 -43 115zM426 924q3 73 45 118q48 45 115 45q74 -3 114 -49q43 -46 43 -114q0 -67 -45 -115q-42 -45 -114 -45 q-71 0 -115 47q-43 43 -43 113zM428 924q0 -66 41 -113q45 -45 115 -45q71 0 114 43q43 49 43 115q0 64 -41 114q-44 44 -114 47q-66 0 -115 -43q-40 -46 -43 -118zM430 924q3 73 43 116q46 43 113 43q71 -3 112 -47q41 -47 41 -112q0 -70 -43 -113t-112 -43q-71 0 -113 45 q-41 44 -41 111zM430 995l4 -2q12 30 33 54q2 0 6 4l6 6l-2 2q-1 -1 -4 -3t-4 -3l-4 -4l2 -2l-2 2q-25 -28 -35 -54zM432 924q3 74 43 114q46 43 111 43q68 -3 110 -45q41 -50 41 -112q0 -68 -43 -111q-40 -43 -110 -43q-68 0 -111 43q-41 47 -41 111zM432 995q15 34 33 52 q-18 -18 -33 -52zM455 813l8 -8q46 -49 119 -49v4h-4h-11q-40 3 -75 24q-16 12 -27 23q-2 4 -8 10zM457 815q2 -4 8 -10q41 -47 117 -47q-76 0 -117 47q-6 6 -8 10zM467 1047q3 7 10 10q-7 -3 -10 -10zM494 465v4v-4zM563 1090q6 2 21 2h2v2v-2v2v-2v2v-2v2v-2v2v-2v2l2 -2 h2h2v4h-2h-2h-2q-17 0 -23 -2v-4zM563 1092q6 2 25 2h4h-4h-2q-17 0 -23 -2zM698 801l2 -2q5 0 5 4l4 4l-2 2q-1 -1 -3 -2t-2 -2zM700 801q3 2 5 2l2 4q-2 -2 -2 -4zM772 1413q1 0 2 -1t2 -1q18 -4 23 -8h4q21 -7 35 -14l2 4q-21 8 -29 10q-4 4 -10 4q-4 2 -14.5 5t-14.5 5 v-4zM772 1415q8 -2 29 -10q27 -9 37 -14q-10 5 -37 14q-21 8 -29 10zM975 1300q4 -4 8 -6l2 4q-1 1 -4 3.5t-4 3.5l-2 -2v-3zM975 1303q2 -1 8 -7q-6 6 -8 7zM981 508l4 -2q54 82 94 166l-4 2q-46 -98 -94 -166zM983 508q53 77 94 164q-41 -87 -94 -164zM1067 1192 q17 -26 25 -49l2 -2h4q0 2 -2 4v2q-11 25 -25 45v2zM1069 1192q16 -22 25 -47q2 -2 2 -4q0 2 -2 4q-9 25 -25 47zM1098 723l2 -2q41 96 41 211h-4q0 -111 -39 -209zM1100 723q39 98 39 209q0 -111 -39 -209zM1137 934h4h-4zM1137 936h4v8v6h-4h4v2h-2h2h-4v-2v-6v-8z M1139 936v14v-14zM1139 950v2v-2z" />
<glyph unicode=":" horiz-adv-x="487" d="M41 344q0 -49 35 -84t84 -35q50 0 85.5 35t35.5 84q0 51 -35 86q-38 35 -86 35q-50 0 -84.5 -35t-34.5 -86zM43 926q0 -51 35 -86t86 -35q50 0 84.5 35t34.5 86q0 49 -35 84q-34 34 -84 34q-51 0 -86 -34t-35 -84zM47 344q0 -42 33 -80q33 -33 80 -33t80.5 33.5 t33.5 79.5q0 48 -34 82q-33 33 -80 33q-46 0 -79.5 -34t-33.5 -81zM49 926q0 -44 33 -82q38 -33 82 -33q46 0 79 34t33 81q0 43 -32 80q-37 32 -80 32q-47 0 -81 -33t-34 -79zM57 344q0 43 30 74t73 31q42 0 73 -31.5t31 -73.5q0 -41 -30.5 -71.5t-73.5 -30.5q-44 0 -74 30 q-29 29 -29 72zM59 926q0 41 31 71.5t74 30.5q44 0 72 -31q30 -27 30 -71q0 -43 -30.5 -74t-71.5 -31q-43 0 -74 31t-31 74zM63 344q0 40 28.5 69t68.5 29t68 -29t28 -69q0 -38 -28 -66t-68 -28q-42 0 -68 26q-29 29 -29 68zM66 926q0 38 29 66t69 28t67 -27t27 -67 t-28 -69.5t-66 -29.5q-40 0 -69 29.5t-29 69.5z" />
<glyph unicode=";" horiz-adv-x="405" d="M45 358q-9 -104 12 -125q5 -8 17 -8q32 0 80 68q47 63 47 98q0 31 -23 53.5t-55 22.5q-31 0 -53.5 -22.5t-22.5 -53.5q0 -3 -1 -14t-1 -19zM47 969q0 -36 23 -56q22 -22 53 -22q32 0 55 23t23 55q0 31 -25 53q-22 22 -53 22t-53.5 -22t-22.5 -53zM49 358q-5 -103 10 -120 q6 -9 15 -9q29 0 76 66q45 65 45 96q0 29 -20.5 49.5t-51.5 20.5q-29 0 -50.5 -20.5t-21.5 -49.5q0 -21 -2 -33zM51 969q0 -27 21 -51q23 -23 51 -23q29 0 50.5 21.5t21.5 52.5q0 28 -21 49q-22 22 -51 22t-50.5 -21t-21.5 -50zM57 358v33q0 26 20 45t46 19t45 -19 q20 -20 20 -45q0 -30 -45 -92q-45 -61 -69 -61q-4 0 -8 4q-19 19 -9 116zM57 969q0 26 19.5 44.5t46.5 18.5q26 0 45.5 -18.5t19.5 -44.5q0 -27 -19 -46.5t-46 -19.5q-26 0 -46 20t-20 46zM61 356q0 8 1 20t1 15q0 25 17.5 41.5t42.5 16.5q23 0 43 -17q16 -16 16 -41 q0 -28 -43 -88q-41 -61 -65 -61q-4 0 -4 4q-14 14 -9 110zM63 969q0 25 17.5 42t42.5 17t42 -17t17 -42t-17.5 -43.5t-41.5 -18.5q-25 0 -42.5 18.5t-17.5 43.5z" />
<glyph unicode="&#x3c;" />
<glyph unicode="=" horiz-adv-x="1212" d="M123 369h967v239h-967v-239zM123 698h967v240h-967v-240zM129 375h952v227h-952v-227zM129 705h952v227h-952v-227zM139 385v207h932v-207h-932zM139 715v207h932v-207h-932zM147 393v191h918v-191h-918zM147 723v190h918v-190h-918z" />
<glyph unicode="&#x3e;" />
<glyph unicode="?" horiz-adv-x="1067" d="M61 993h338v86q2 94 27 138h2q14 31 41 45h2q27 16 86 16q86 0 109 -29q30 -41 30 -96q0 -29 -18 -66h-2l-4 -6q-10 -21 -37 -43l-4 -4v-2l-70 -67q-116 -110 -155 -209q-35 -85 -35 -240v-90h336v90q0 82 16 135q43 60 98 111q127 124 170 188q56 83 56 201 q0 192 -138 324q-133 124 -346 124q-227 0 -366 -145q-136 -142 -136 -371v-90zM68 999h323v80q5 93 29 142h2q17 36 45 47q30 18 90 18q89 0 115 -33q33 -48 33 -100q0 -26 -23 -74h-2l-2 -2q-6 -12 -39 -45l-2 -2v-2l-70 -67q-116 -110 -155 -209q-35 -90 -35 -236v-84 h323v84q0 94 17 137q33 53 98 113q125 122 170 186q53 83 53 199q0 190 -135 319q-132 123 -340 123q-225 0 -362 -143q-133 -142 -133 -367v-84zM78 1010v73q0 219 131 359q132 141 354 141q204 0 334 -121q131 -122 131 -311q0 -116 -51 -193q-45 -64 -168 -184 q-77 -72 -100 -117q-19 -47 -19 -141v-74h-303v74q0 152 35 232q36 97 151 204l74 72v2q25 23 39 43h2v4q27 43 27 80q0 64 -37 107q-29 36 -121 36q-59 0 -94 -18q-30 -13 -51 -53q-25 -45 -31 -146v-69h-303zM86 1016v67q0 219 127 355q131 137 350 137q201 0 330 -117 q129 -123 129 -307q0 -114 -51 -188q-38 -58 -168 -185q-82 -79 -101 -116v-3q-20 -40 -20 -143v-65h-287v65q0 147 33 229q39 95 150 203l77 74v2q22 19 35 39h2l2 6q27 47 27 84q0 65 -37 111q-33 39 -127 39q-58 0 -98 -19q-34 -18 -53 -55q-28 -55 -31 -150v-63h-289z M367 0h356v365h-356v-365zM373 6h344v352h-344v-352zM383 16v332h324v-332h-324zM391 25v315h307v-315h-307z" />
<glyph unicode="@" horiz-adv-x="1556" d="M61 590q0 -165 62 -301l4 -8q53 -112 143 -187v-2l4 -4q100 -84 238 -127q133 -43 303 -43q173 0 303 47q135 54 219 129q92 83 133 164l25 57h-207l-14 -20v-2q-61 -79 -170 -135q-122 -58 -293 -58q-162 0 -297 60q-130 52 -201 166q-67 116 -67 276q0 162 69 291 q72 135 197 205q122 73 281 73q131 0 245 -57q17 -7 52 -31l40 -28l3 -2l14 -9h-207l-10 -57l-29 21q-5 3 -15.5 9t-15.5 9q-67 37 -137 37q-91 0 -186 -62q-96 -65 -156 -184q-61 -119 -61 -242q0 -98 41 -184v-2q45 -86 110 -127q73 -45 142 -45t133 39q18 8 45 27l16 14 l14 -18q12 -20 41 -35v-8h13q36 -19 92 -19q144 0 272 119l15 16q2 0 6 4q0 2 2 2l2 2l2 5l10 10q71 77 115 180q39 103 39 209q0 150 -76 283q-80 149 -234 229q-140 76 -331 76q-231 0 -404 -107q-171 -109 -260 -309q-74 -168 -74 -346zM68 590q0 -166 61 -297l4 -8 q57 -118 146 -189v-2h2q96 -84 233 -127q133 -43 301 -43q171 0 301 47q134 54 217 129q92 80 131 160l21 47h-195l-10 -14v-2q-62 -83 -174 -139q-122 -58 -295 -58q-160 0 -301 58q-135 57 -203 170q-69 123 -69 280q0 159 71 295q73 137 201 207q124 74 283 74 q130 0 249 -58q28 -14 52 -30l41 -29l2 -2l32 -23h-12l23 -28q16 -18 26 -39q56 -90 56 -205q0 -94 -41 -178q-44 -90 -117 -140q-28 -22 -57 -32l-46 -13l9 48l4 8v6h2q4 29 12 61l111 512h-193l-12 -61l-37 26q-18 11 -29 19q-67 37 -135 37q-90 0 -182 -62 q-94 -63 -154 -180q-61 -119 -61 -240q0 -89 41 -182q47 -90 108 -125q67 -43 138 -43t129 37q28 12 43 27l24 18l19 -24q12 -21 43 -35v-4h6q36 -19 90 -19q142 0 268 117l15 14q4 4 4 6q1 0 2 1.5t2 1.5h2v2q4 8 12 12q67 73 113 180q37 90 37 205q0 147 -74 280 q-83 152 -232 226q-143 76 -327 76q-230 0 -400 -107q-170 -111 -258 -305q-73 -165 -73 -344zM78 590q0 175 74 340q86 195 254 301q162 104 393 104q186 0 323 -73q143 -73 228 -224q71 -127 71 -274q0 -108 -35 -201q-45 -107 -112 -176q-2 -3 -6.5 -7.5t-5.5 -6.5 q-1 -1 -3 -2q-1 0 -1.5 -0.5t-0.5 -1.5l-4 -4l-16 -17q-118 -112 -260 -112q-54 0 -86 16v2h-4q-27 12 -41 33l-25 35l-33 -25q-20 -16 -40 -27q-58 -34 -125 -34q-72 0 -131 40q-63 38 -105 121q-41 90 -41 178q0 114 60 234q60 117 149 178q94 60 178 60q67 0 129 -35 q18 -11 29 -19l49 -35l14 68h172l-106 -498q-11 -34 -14 -63q-2 -2 -2 -6l-3 -6v-2l-14 -66l62 21q34 8 61 32q75 54 121 142q41 90 41 184q0 116 -55 209q-9 17 -29 41l-10 12h24l-57 39l-2 2l-43 31q-25 18 -53 30q-117 60 -254 60q-164 0 -289 -76q-129 -69 -203 -211 q-74 -136 -74 -299q0 -158 72 -287q74 -117 207 -172q136 -59 305 -59q178 0 299 59q113 54 180 142v2v2l6 8h172l-14 -33q-38 -75 -127 -158q-87 -75 -215 -124q-130 -48 -297 -48t-297 43q-139 42 -229 123v2h-2q-92 74 -144 187l-4 8q-61 131 -61 293zM86 590 q0 174 72 336q85 193 250 299q164 102 391 102q183 0 319 -74q140 -69 225 -217q72 -129 72 -272q0 -112 -37 -199q-42 -102 -108 -174q-11 -7 -13 -14q-2 0 -6 -4h-2l-2 -2l-14 -17q-121 -112 -256 -112q-45 0 -80 14v2l-6 4q-23 8 -41 29l-27 41l-39 -31q-14 -11 -39 -25 h-2q-55 -34 -120 -34t-127 41h-2q-61 39 -101 118q-39 82 -39 174q0 116 58 232q60 115 147 174q89 59 174 59q64 0 125 -34q18 -11 29 -19l59 -41l15 74h157l-106 -492q-4 -13 -9 -35t-6 -26q0 -6 -2 -8v-4l-18 -78l74 20q30 9 63 35q78 57 123 146q43 87 43 186 q0 114 -57 213q-9 18 -31 43h33l-76 51l-2 2l-43 31q-42 25 -55 31q-109 59 -256 59q-165 0 -293 -76q-130 -70 -205 -213q-74 -139 -74 -303q0 -163 72 -289q72 -120 211 -176q132 -59 307 -59q185 0 303 59q109 52 182 144l2 4v2l2 4h158l-10 -23q-37 -73 -125 -155 q-89 -76 -213 -125q-122 -45 -295 -45q-164 0 -295 41q-132 41 -225 118v2l-4 5q-89 71 -141 184l-5 6q-59 133 -59 291zM514 567q0 -87 39 -135v-4l4 -2q43 -49 92 -49q36 0 76 24q39 20 76 60h2l2 6q37 42 63 113q25 70 25 139q0 86 -45 137q-43 49 -105 49q-35 0 -77 -22 q-37 -19 -70 -70q-40 -49 -59 -119q-23 -77 -23 -127zM522 567q0 -87 37 -133v-2l2 -2q42 -45 88 -45q36 0 74 23q39 20 74 61h2l2 2q37 46 61 113q25 67 25 135q0 82 -45 133q-39 45 -99 45q-37 0 -73 -20q-42 -24 -68 -68q-43 -52 -57 -117q-23 -68 -23 -125zM532 567 q0 53 21 123q18 64 55 113h2q23 40 64 65q40 19 69 19q55 0 93 -41q41 -50 41 -127q0 -66 -25 -133q-19 -56 -57 -107h-2l-2 -2q-35 -41 -74 -61q-38 -21 -68 -21q-42 0 -80 41v2q-37 43 -37 129zM539 567q0 50 22 121q15 64 53 111q29 41 64 63q36 19 65 19q51 0 86 -41 q39 -42 39 -121q0 -63 -22 -131q-22 -61 -55 -103h-3l-4 -4q-33 -39 -69 -59q-42 -21 -66 -21q-37 0 -71 37v2l-5 4q-34 40 -34 123zM1010 412l8 34q0 1 1 4t1 5q0 4 2 6v2q4 29 14 59l111 516l27 -34q21 -25 26 -37v-2q55 -89 55 -201q0 -92 -41 -176q-42 -83 -114 -137 q-36 -26 -56 -29z" />
<glyph unicode="A" horiz-adv-x="1359" d="M20 0h388l127 383h280l129 -383h395l-489 1434h-344zM55 25l469 1384h307l472 -1384h-340l-132 385h-315l-125 -385h-336zM604 694h139l-69 207zM639 721l35 102l35 -102h-70z" />
<glyph unicode="B" horiz-adv-x="1040" d="M20 29l95 -13q115 -16 264 -16q344 0 502 145l2 2q137 131 137 326q0 201 -152 326q107 110 107 262q0 193 -146 305q-139 113 -407 113q-181 0 -316 -29l-86 -18v-1403zM47 51v1360l66 14q145 29 309 29q256 0 393 -108q135 -104 135 -285q0 -149 -110 -256l-11 -10 l13 -9q153 -116 153 -313q0 -181 -129 -307l-2 -2q-154 -139 -485 -139q-151 0 -260 16zM373 317h12h39q115 0 176 39q59 39 59 119q0 76 -57 115q-62 41 -180 41h-49v-314zM373 920h63q78 0 123 26q62 30 62 98q0 16 -1.5 26.5t-11.5 30t-28 31.5t-56.5 21.5t-91.5 9.5h-47 h-12v-243zM399 342v264h23q108 0 166 -39q47 -28 47 -92q0 -68 -47 -96q-55 -37 -164 -37h-25zM399 944v195h33q47 0 80 -7t49 -16t24.5 -24.5t9.5 -24.5t1 -23q0 -51 -47.5 -75.5t-112.5 -24.5h-37z" />
<glyph unicode="C" horiz-adv-x="1171" d="M20 705q0 -329 201 -521q187 -184 492 -184q225 0 358 68l76 36l-84 326l-115 -55q-83 -39 -205 -39q-169 0 -260 98q-92 95 -92 277q0 186 94 284q91 101 265 101q113 0 194 -39l111 -53l96 325l-76 39q-122 66 -330 66q-211 0 -376 -92t-257 -258.5t-92 -378.5zM45 705 q0 153 52 284t143.5 223.5t221.5 144.5t283 52q195 0 320 -61l57 -31l-82 -279l-84 41q-85 41 -206 41q-183 0 -283 -106t-100 -303q0 -192 98 -293q101 -107 278 -107q134 0 215 43l89 41l71 -276l-57 -29q-130 -65 -348 -65q-293 0 -475 176q-193 190 -193 504z" />
<glyph unicode="D" horiz-adv-x="1236" d="M20 25l93 -11q123 -14 295 -14q403 0 606 203t203 542q0 322 -203 510q-194 179 -559 179q-150 0 -344 -27l-91 -14v-1368zM45 47v1325l68 10q194 27 342 27q355 0 542 -172q195 -180 195 -492q0 -330 -197 -524q-196 -196 -587 -196q-140 0 -291 14zM360 311h13h65 q216 0 322 109q110 107 110 321q0 183 -96 279q-101 104 -311 104q-36 0 -90 -4h-13v-809zM385 336v762q12 0 38 1t40 1q199 0 295 -96q86 -89 86 -252v-11q0 -204 -101 -305q-100 -100 -305 -100h-53z" />
<glyph unicode="E" horiz-adv-x="940" d="M20 0h900v346h-529v225h475v344h-475v172h502v347h-873v-1434zM45 25v1384h823v-295h-501v-223h473v-293h-473v-279h528v-294h-850z" />
<glyph unicode="F" horiz-adv-x="911" d="M20 0h371v553h461v342h-461v192h500v347h-871v-1434zM45 25v1384h821v-295h-499v-244h460v-292h-460v-553h-322z" />
<glyph unicode="G" horiz-adv-x="1271" d="M20 698q0 -159 53 -297.5t150 -230.5q199 -190 529 -190q217 0 409 73l70 25v766h-613v-340h248v-176q-46 -6 -104 -6q-169 0 -264 98q-99 104 -99 287q0 180 101.5 281.5t281.5 101.5q129 0 226 -43l110 -50l99 330l-82 41q-141 66 -349 66q-345 0 -557 -209 q-100 -98 -153.5 -234t-55.5 -293zM45 698q2 151 54 282.5t149 225.5q203 203 538 203q106 0 195.5 -18.5t142.5 -44.5l62 -31l-82 -283l-86 37q-106 45 -236 45q-192 0 -299.5 -107.5t-107.5 -299.5q0 -196 104 -306q104 -104 283 -104q75 0 119 8l10 2v223h-248v289h563 v-723l-53 -20q-201 -72 -401 -72q-320 0 -510 184q-94 89 -145.5 222.5t-51.5 287.5z" />
<glyph unicode="H" horiz-adv-x="1181" d="M20 0h371v573h377v-573h373v1436h-373v-512h-377v512h-371v-1436zM45 25v1384h322v-510h428v510h321v-1384h-321v573h-428v-573h-322z" />
<glyph unicode="I" horiz-adv-x="452" d="M41 0h371v1434h-371v-1434zM68 25v1384h319v-1384h-319z" />
<glyph unicode="J" horiz-adv-x="817" d="M20 70l80 -33q85 -37 205 -37q212 0 334 119q137 137 137 403v912h-686v-330h320v-567q0 -57 -6.5 -95t-14.5 -58t-26 -29.5t-31 -11t-39 -1.5q-44 0 -92 16l-119 48zM49 84l53 287l91 -35q44 -19 100 -19q24 0 37 1t31 8t32 22q41 44 41 189v591h-319v281h307h12h316 v-887q0 -258 -127 -385q-115 -112 -318 -112q-109 0 -196 34z" />
<glyph unicode="K" horiz-adv-x="1210" d="M20 0h371v528l354 -528h445l-545 801l541 633h-477l-318 -390v390h-371v-1434zM45 25v1384h322v-436l352 436h411l-516 -606l529 -778h-385l-367 546l-24 -30v-516h-322z" />
<glyph unicode="L" horiz-adv-x="954" d="M20 0h893v346h-520v1088h-373v-1434zM47 25v1384h320v-1090h522v-294h-842z" />
<glyph unicode="M" horiz-adv-x="1513" d="M20 0h365l35 557l186 -549h273l213 588l34 -596h367l-88 1434h-377l-242 -662q-26 -76 -28 -82q-4 14 -13.5 40.5t-13.5 39.5l-235 664h-375zM47 25l96 1384h336l228 -647q7 -21 19.5 -59.5t18.5 -55.5l11 -37l12 37q7 21 21 61t20 56l238 645h333l86 -1384h-317l-35 612 v20l-24 5l-230 -629h-235l-201 594l-25 -4l-37 -598h-315z" />
<glyph unicode="N" horiz-adv-x="1191" d="M20 0h363v629v80q18 -31 23 -39l419 -670h326v1434h-363v-617v-63q-4 8 -8 12l-422 668h-338v-1434zM45 25v1384h299l416 -655q12 -22 31 -52l24 -38l-2 47v106v592h311v-1384h-284l-412 657q-6 9 -22.5 36.5t-24.5 41.5l-25 39v-47q2 -39 2 -123v-604h-313z" />
<glyph unicode="O" horiz-adv-x="1353" d="M20 707q0 -206 80.5 -367t226 -250.5t330.5 -89.5q137 0 256.5 49.5t208.5 143.5q191 203 191 536q0 307 -172 500q-87 99 -207.5 152t-259.5 53q-138 0 -260 -53t-211 -152q-183 -205 -183 -522zM45 707q0 308 176 505q86 95 203.5 146t249.5 51q135 0 249.5 -50.5 t198.5 -146.5q166 -187 166 -483q0 -327 -184 -520q-85 -89 -200.5 -136.5t-246.5 -47.5q-178 0 -317.5 86.5t-217 242t-77.5 353.5zM367 709q0 -157 71 -271q81 -131 228 -131t229 133q72 110 72 281q0 162 -72 272q-81 131 -227 131q-55 0 -106 -22.5t-96 -69t-72 -130 t-27 -193.5zM391 709q0 84 16.5 151.5t44 111.5t64 73.5t74.5 42t78 12.5q68 0 122 -33.5t86 -88.5t49 -121t17 -136q0 -101 -28.5 -187t-92.5 -144t-155 -58q-68 0 -122 33t-86.5 88t-49.5 120.5t-17 135.5z" />
<glyph unicode="P" horiz-adv-x="1001" d="M20 0h369v475h21q140 0 255.5 43t192.5 123q123 129 123 332q0 101 -37 187.5t-106 146.5q-142 127 -410 127q-164 0 -317 -25l-91 -14v-1395zM47 25v1347l68 12q150 25 313 25q257 0 393 -121q133 -118 133 -315q0 -196 -114 -316q-72 -75 -183.5 -116t-246.5 -41h-33 h-12v-475h-318zM365 788h12h37q140 0 194 72q29 39 29 107q0 19 -1.5 32t-12 38.5t-30.5 42t-61.5 29.5t-99.5 13q-39 0 -55 -2h-12v-332zM389 813v283q14 2 43 2q43 0 75.5 -6.5t51 -19t30.5 -24.5t16.5 -30t5.5 -27.5t1 -23.5q0 -20 -1 -33t-11.5 -38.5t-29.5 -41.5 t-59.5 -28.5t-96.5 -12.5h-25z" />
<glyph unicode="Q" horiz-adv-x="1366" d="M20 731q0 -314 185 -508q83 -88 194.5 -137t239.5 -55h2h2q3 0 19 -5.5t18 -5.5h2q219 -77 457 -139l94 -24l113 331l-119 21q-19 3 -58 11t-53 11q91 94 140 229t49 296q0 204 -80 363t-224 247t-327 88q-190 0 -339.5 -91.5t-232 -256t-82.5 -375.5zM45 731 q0 309 175.5 504t453.5 195q176 0 314 -85t215 -239t77 -350q0 -163 -51 -298.5t-146 -224.5l-16 -16l23 -4q72 -18 133 -27l90 -16l-96 -285l-72 19q-263 72 -457 139q-38 12 -47 12q-123 5 -232 52.5t-188 132.5q-176 188 -176 491zM365 733q0 -97 29 -181t83 -138 q76 -76 185 -76q135 0 217 111q82 114 82 299q0 75 -18 144.5t-52.5 128t-92.5 93.5t-130 35q-113 0 -189 -76q-55 -55 -84.5 -143t-29.5 -195v-2zM389 733v2q0 101 28 185t79 135q66 69 172 69q66 0 119 -33t84.5 -87.5t48 -120t16.5 -135.5q0 -178 -78 -285 q-73 -101 -196 -101q-98 0 -166 68q-51 51 -79 130.5t-28 172.5z" />
<glyph unicode="R" horiz-adv-x="1114" d="M20 0h369v524h41q32 -1 49 -5t36 -18.5t32 -45t24 -82.5q58 -258 93 -320l30 -53h400l-84 156q-21 40 -82 307q-30 128 -94 211q145 126 145 323q0 196 -129 310q-72 66 -173.5 96.5t-248.5 30.5q-180 0 -322 -27l-86 -18v-1389zM47 25v1343l64 14q138 27 317 27 q141 0 239 -29t167 -92q120 -108 120 -291q0 -195 -147 -311l-10 -8l8 -10q67 -76 98 -211q64 -273 86 -312l64 -120h-344l-25 41q-33 60 -88 311l-2 2q-22 102 -57 135.5t-107 36.5h-65v-526h-318zM365 831h79q65 0 115 23q78 38 78 127q0 18 -1.5 30.5t-12 36t-29.5 38.5 t-59.5 27t-96.5 13q-12 0 -32.5 -1t-28.5 -1l-12 -2v-291zM389 856v244q8 0 24.5 1t24.5 1q49 -1 83.5 -10.5t51.5 -21.5t26 -31.5t10 -30t1 -27.5q0 -74 -61 -104q-43 -21 -105 -21h-55z" />
<glyph unicode="S" horiz-adv-x="1026" d="M20 113l66 -43q66 -44 170 -71.5t207 -27.5q109 0 200 26t153.5 71t106 104.5t63.5 126t20 137.5q0 68 -15.5 126.5t-45 103.5t-64 81t-81.5 65t-87.5 49t-91.5 40q-64 25 -102.5 45t-54 37.5t-19 28t-3.5 28.5q0 39 37 57.5t88 18.5q97 0 185 -45l112 -61l115 338 l-78 43q-127 75 -328 75q-221 0 -365.5 -125.5t-144.5 -318.5q0 -170 121 -291q92 -97 279 -162q58 -22 93.5 -42.5t49 -40t16.5 -31t3 -31.5q0 -102 -150 -102q-127 0 -231 63l-119 74zM49 125l90 295l92 -55q114 -70 244 -70q98 0 143 45q33 33 33 84q0 24 -5 41t-22 39 t-55 43.5t-98 44.5q-177 64 -268 158q-113 110 -113 272q0 182 136.5 301t346.5 119q191 0 316 -72l59 -35l-98 -288l-86 47q-87 49 -197 49q-77 0 -113 -30.5t-36 -72.5q0 -49 37.5 -82.5t154.5 -78.5q49 -19 88 -38.5t84 -47.5t78.5 -62t62 -76.5t43.5 -98.5t15 -120 q0 -109 -44 -195.5t-118.5 -138.5t-165 -79t-190.5 -27q-99 0 -199 26t-164 68z" />
<glyph unicode="T" horiz-adv-x="1177" d="M20 1085h371v-1085h373v1085h373v349h-1117v-349zM45 1112v297h1067v-297h-373v-1087h-321v1087h-373z" />
<glyph unicode="U" horiz-adv-x="1159" d="M20 618q0 -144 35 -260q38 -117 107 -194q142 -164 395 -164t401 154q160 168 160 473v807h-366v-818q0 -178 -76 -245q-39 -33 -113 -33q-87 0 -129 68q-45 65 -45 210v818h-369v-816zM45 618v791h317v-793q0 -148 50 -225q54 -78 151 -78q82 0 129 39q84 72 84 264v793 h318v-782q0 -297 -152 -455q-144 -147 -385 -147q-246 0 -377 155q-135 153 -135 438z" />
<glyph unicode="V" horiz-adv-x="1347" d="M20 1434l465 -1426l2 -8h328l512 1434h-395l-232 -676q-12 -31 -36 -109q-22 74 -35 109l-213 676h-396zM55 1409h342l209 -659q8 -27 23.5 -75.5t21.5 -70.5l13 -37l12 37q22 72 47 146l225 659h344l-495 -1384h-291z" />
<glyph unicode="W" horiz-adv-x="1810" d="M20 1434l363 -1424l2 -10h330l180 659l158 -659h329l408 1434h-385l-172 -658l-156 647l-2 11h-332l-2 -11q-6 -12 -174 -659l-157 670h-390zM53 1409h336l160 -680l4 -20h25q1 2 42.5 158.5t87.5 331t56 210.5h291q163 -685 166 -688h24l2 10l176 678h332l-391 -1384 h-291l-166 688h-24l-189 -688h-291z" />
<glyph unicode="X" horiz-adv-x="1361" d="M20 0h433l176 322q35 57 45 77q11 -19 49 -77l184 -322h434l-444 733l438 701h-434l-199 -340q-3 -6 -10 -18.5t-10 -18.5q-6 9 -20 37l-193 340h-432l420 -709zM66 25l417 694l4 6l-407 684h375l184 -328q6 -12 31 -57l12 -18l10 18q15 27 33 57l190 328h375l-422 -676 l428 -708h-374l-179 309q-40 65 -57 96l-12 21l-10 -21q-7 -12 -26 -44t-30 -52l-170 -309h-372z" />
<glyph unicode="Y" horiz-adv-x="1361" d="M20 1434l459 -836v-598h373v598l489 836h-430l-204 -394l-23 -45q0 -1 -3.5 -6t-4.5 -8l-15.5 31t-13.5 26l-201 396h-426zM63 1409h367l195 -381q8 -17 22 -43.5t19 -36.5l10 -22l12 22q3 6 9.5 18.5t9.5 18.5l22 43l197 381h372l-469 -803l-2 -2v-579h-321v579z" />
<glyph unicode="Z" horiz-adv-x="1146" d="M20 0h1106v346h-591l579 848l2 4v236h-1036v-347h526l-586 -856v-231zM47 25v198l606 891h-549v295h988v-203l-605 -887h613v-294h-1053z" />
<glyph unicode="[" />
<glyph unicode="\" horiz-adv-x="878" d="M61 1626l609 -1751l2 -6l145 49l-610 1761zM70 1622l606 -1745l133 47l-604 1741l-2 6zM84 1616l113 41l598 -1727l-113 -39zM92 1612l101 37l593 -1715l-100 -34z" />
<glyph unicode="]" />
<glyph unicode="^" />
<glyph unicode="_" horiz-adv-x="1040" d="M82 -61v-164h876v164h-876zM88 -68v-151h864v151h-864zM96 -76h846v-135h-846v135zM102 -82h834v-123h-834v123z" />
<glyph unicode="a" horiz-adv-x="921" d="M20 319q0 -64 23 -123.5t66 -107.5t111.5 -77t152.5 -29q99 0 178 36l2 -18h348l-22 119q-13 73 -13 180v309q0 207 -108 324q-109 115 -305 115q-188 0 -328 -91l-66 -43l103 -295l108 70q70 47 160 47q41 0 62 -12q-87 -8 -159 -29.5t-120 -49t-84.5 -63.5t-56.5 -70 t-32.5 -72t-16 -65.5t-3.5 -54.5zM45 319q0 128 76 220q116 140 395 161l21 2l-11 17q-23 39 -96 39q-100 0 -174 -49l-82 -54l-86 250l51 33q133 84 314 84q187 0 288 -107q103 -109 103 -307v-309q0 -117 12 -184l16 -90h-297l-4 30l-14 -8q-87 -41 -184 -41 q-103 0 -179.5 46.5t-112.5 116t-36 150.5zM348 336q0 -66 66 -66q90 0 127 86q4 16 4 23v65h-13q-73 -6 -126 -28q-58 -25 -58 -80zM373 336q0 22 8.5 35t34.5 24q41 18 104 23v-39q0 -8 -2 -14q-3 -8 -8 -17t-16.5 -23t-32.5 -23t-47 -9q-25 0 -33 10t-8 33z" />
<glyph unicode="b" horiz-adv-x="1050" d="M20 0h338v23q87 -41 195 -41q195 0 332 143q145 151 145 405v6q0 120 -37 222q-38 104 -110 178q-125 125 -308 125q-105 0 -186 -37v410h-354v-1115q0 -104 -8 -210zM45 25l6 81q6 83 6 213v1090h308v-422l16 8q85 43 194 43q171 0 291 -120q69 -70 105 -170 q35 -98 35 -212v-6q0 -242 -138 -389q-129 -135 -315 -135q-117 0 -201 47l-16 8l-2 -36h-289zM365 438q0 -13 4 -37q17 -56 57.5 -87t95.5 -31q106 0 150 102q26 60 26 141q0 92 -36 156q-47 78 -136 78q-54 0 -96 -35t-59 -92v-6q-6 -18 -6 -37v-152zM389 438v152 q0 9 4 33l2 4q13 49 49.5 78.5t81.5 29.5q75 0 111.5 -63t36.5 -146q0 -21 -2 -43t-11 -55.5t-24 -58.5t-45 -43.5t-70 -18.5q-46 0 -80.5 27.5t-48.5 73.5q-4 20 -4 30z" />
<glyph unicode="c" horiz-adv-x="915" d="M20 506q0 -235 142 -377q141 -147 370 -147q89 0 165 17.5t120 41.5l70 37l-70 307l-112 -49q-76 -33 -144 -33q-86 0 -136 56t-50 153q0 55 17 101t61.5 79t111.5 33q82 0 125 -27l111 -63l94 319l-76 39q-102 54 -254 54q-241 0 -393 -151.5t-152 -389.5zM43 506 q0 228 145.5 372t376.5 144q148 0 244 -49l57 -31l-80 -270l-84 47q-46 31 -137 31q-108 0 -168 -78q-47 -62 -47 -160q0 -108 56.5 -170.5t154.5 -62.5q71 0 154 34l86 39l59 -262l-53 -29q-108 -55 -275 -55q-221 0 -354 139q-135 138 -135 361z" />
<glyph unicode="d" horiz-adv-x="1046" d="M20 508q0 -226 127 -375q134 -153 334 -153q105 0 197 45l2 -27h346l-10 113q-6 67 -6 206v1117h-357v-400q-73 27 -155 27q-190 0 -322 -135q-77 -76 -117 -184q-39 -105 -39 -228v-6zM43 508q0 248 150 401q127 127 305 127q88 0 161 -30l17 -7v410h309v-1092 q0 -137 6 -208l8 -86h-297l-2 40l-16 -8q-89 -51 -203 -51q-92 0 -173.5 37t-141.5 106q-59 69 -91 163t-32 198zM354 514q0 -72 25 -133q45 -98 145 -98q54 0 94 33.5t54 89.5q4 12 4 47v145q0 27 -4 43v4q-12 47 -50 82t-94 35q-61 0 -102 -39.5t-56.5 -92.5t-15.5 -116z M379 514q0 89 36.5 156t112.5 67q48 0 79.5 -29t39.5 -69l2 -4q4 -8 4 -37v-145q0 -21 -4 -41q-12 -47 -46.5 -76t-78.5 -29q-47 0 -79 24.5t-44.5 63t-17 66t-4.5 53.5z" />
<glyph unicode="e" horiz-adv-x="972" d="M20 498q0 -228 136 -373q142 -145 372 -145q185 0 318 59l76 35l-74 305l-109 -47q-84 -35 -190 -35q-121 0 -162 86h549l10 90v6q6 48 6 74q0 178 -86 309q-122 182 -356 182q-109 0 -203 -43t-160 -122q-127 -152 -127 -381zM45 498q0 220 121 366q63 75 152 115.5 t192 40.5q226 0 336 -172q82 -124 82 -295q0 -40 -4 -72l-9 -73h-563l6 -17q44 -117 191 -117q111 0 199 35l83 37l62 -258l-57 -27q-125 -57 -308 -57q-223 0 -354 137q-129 135 -129 357zM367 668h254l-9 16q-8 25 -26 43q-29 33 -88 33q-75 0 -121 -74zM410 692 q34 43 88 43q47 0 71 -24q2 -3 7.5 -9.5t7.5 -9.5h-174z" />
<glyph unicode="f" horiz-adv-x="796" d="M20 713h117v-713h350v713h201v315h-196q3 42 16 64q9 18 39 18q37 0 53 -8l119 -55l57 325l-74 31q-84 31 -167 31q-163 0 -271 -105q-110 -104 -125 -301h-119v-315zM45 737v269h117v10q12 194 119 295q103 98 254 98q85 0 157 -29l58 -24l-48 -275l-92 41 q-26 13 -63 13q-43 0 -60 -33q-15 -23 -22 -84v-12h199v-269h-201v-712h-301v712h-117z" />
<glyph unicode="g" horiz-adv-x="1042" d="M20 483q0 -220 132.5 -367t330.5 -147q79 0 144 23q-37 -66 -144 -66q-112 0 -192 51l-113 70l-102 -315l63 -45q62 -40 152 -63t186 -23q239 0 377 129q80 71 117 182t37 278v490q0 101 8 227l6 109h-342v-17q-81 35 -176 35t-183.5 -39t-154.5 -110 q-146 -158 -146 -402zM45 483q0 234 139 385q63 68 147 105t173 37q105 0 182 -39l16 -8l3 28h290l-4 -84q-8 -126 -8 -227v-490q0 -163 -34.5 -269t-110.5 -175q-132 -121 -361 -121q-93 0 -178.5 22t-144.5 60l-50 35l89 268l83 -53q93 -55 207 -55q139 0 179 106l8 25 l-25 -10q-79 -29 -162 -29q-188 0 -313 139.5t-125 349.5zM358 492q0 -79 25 -130q44 -96 145 -96q47 0 85 28.5t55 76.5q8 28 8 57v152q0 30 -6 45q-5 16 -13.5 31.5t-24 34.5t-42 30.5t-60.5 11.5q-78 0 -125 -65.5t-47 -175.5zM383 492q0 99 40 158t107 59q28 0 50.5 -10 t35.5 -26t20 -29t11 -26v-2q4 -12 4 -36v-152q0 -33 -8 -49q-12 -40 -43.5 -64t-71.5 -24q-47 0 -79 23.5t-44.5 61t-17 64t-4.5 52.5z" />
<glyph unicode="h" horiz-adv-x="958" d="M20 0h357v608q0 31 2 33l2 8q12 33 41 57.5t67 24.5q17 0 28 -3t28.5 -15t27 -45t9.5 -84v-584h356v602q0 239 -137 363q-112 98 -258 98q-88 0 -166 -37v410h-357v-1436zM43 25v1386h309v-424l19 8q79 43 172 43q143 0 241 -92q129 -117 129 -344v-577h-309v559 q0 49 -9.5 84t-21.5 51.5t-31 25.5t-28.5 10t-24.5 1q-48 0 -83 -30t-48 -71l-2 -4q-4 -16 -4 -43v-583h-309z" />
<glyph unicode="i" horiz-adv-x="432" d="M20 1237q0 -81 56.5 -138t136.5 -57q85 0 145 60q54 57 54 129v8q0 83 -56 139t-139 56t-140 -57t-57 -140zM41 0h354v1036h-354v-1036zM45 1237q0 72 50 122t122 50t121 -49t49 -121v-8q0 -65 -45 -113q-51 -51 -129 -51q-70 0 -119 49.5t-49 120.5zM63 25v987h308v-987 h-308z" />
<glyph unicode="j" horiz-adv-x="468" d="M-174 -88l41 -322h92q88 0 181.5 31t158.5 96v2q61 63 97 157.5t36 266.5v881h-364v-819q0 -213 -33 -254q-28 -25 -101 -31zM-147 -111l84 7q84 6 116 38q23 28 31 90t8 181v794h316v-856q0 -167 -34.5 -258t-92.5 -149q-61 -62 -150 -91.5t-172 -29.5h-70zM47 1233 q0 -85 58 -143t143 -58q87 0 147 60q54 60 54 133v8q0 86 -56.5 143.5t-140.5 57.5q-86 0 -145.5 -58t-59.5 -143zM72 1233q0 73 52.5 124.5t127.5 51.5q72 0 122 -50.5t50 -125.5v-8q0 -68 -47 -115q-50 -53 -129 -53q-74 0 -125 51.5t-51 124.5z" />
<glyph unicode="k" horiz-adv-x="1050" d="M20 0h355v295l213 -295h442l-440 588l426 454h-467l-174 -204v596h-355v-1434zM45 25v1384h307v-637l209 246h400l-402 -428l422 -565h-381l-248 346v-346h-307z" />
<glyph unicode="l" horiz-adv-x="397" d="M20 0h357v1434h-357v-1434zM43 25v1384h309v-1384h-309z" />
<glyph unicode="m" horiz-adv-x="1431" d="M20 1024l9 -109q6 -91 6 -215v-700h346v596q0 24 6 39l2 4q10 32 34 56t56 24q72 0 72 -125v-594h346v608q0 13 6 43q10 28 32 48t50 20q34 0 53 -23q27 -46 27 -129v-567h346v586q0 98 -22.5 177t-59 130t-85.5 85.5t-100 49t-104 14.5q-139 0 -241 -77q-24 -18 -27 -21 q-98 98 -242 98q-102 0 -174 -38l-2 20h-334zM45 999h287l2 -32l16 8q79 43 180 43q142 0 234 -98l8 -9l8 9q30 24 33 26q97 72 227 72q92 0 161.5 -39t108 -103.5t57.5 -137.5t19 -152v-561h-299v542q0 99 -30 142q-21 34 -72 34q-36 0 -63.5 -25t-40.5 -59q-7 -21 -7 -51 v-583h-301v569q0 72 -24 110.5t-70 38.5q-40 0 -70 -29t-42 -67l-2 -4q-7 -21 -7 -47v-571h-299v675q0 137 -8 218z" />
<glyph unicode="n" horiz-adv-x="956" d="M20 1024l9 -109q6 -91 6 -215v-700h350v596q0 11 2 23l2 12l2 4q10 34 38 58t67 24q16 0 27 -3t28 -14.5t26 -43.5t9 -81v-575h350v592q0 237 -135 356q-105 94 -256 94q-104 0 -189 -43l-2 25h-334zM45 999h289l2 -36l16 8q81 47 193 47q142 0 239 -88 q129 -114 129 -338v-567h-303v550q0 47 -9.5 80.5t-21 49.5t-30.5 25t-29 10t-24 1q-48 0 -81.5 -29.5t-45.5 -68.5l-2 -4q-5 -20 -5 -43v-571h-303v675q0 137 -8 218z" />
<glyph unicode="o" horiz-adv-x="1009" d="M20 506q0 -223 138 -367q133 -139 340 -139q92 0 177.5 31.5t156.5 93t114 163.5t43 230q0 224 -133.5 365t-345.5 141q-217 0 -353.5 -144.5t-136.5 -373.5zM43 506q0 218 130.5 356.5t336.5 138.5q202 0 329.5 -134.5t127.5 -348.5q0 -122 -41 -219.5t-109.5 -156 t-150 -89t-168.5 -30.5q-197 0 -324 133q-131 134 -131 350zM338 510q0 -100 47 -165.5t119 -65.5q73 0 120.5 66t47.5 169q0 26 -4.5 55t-16.5 61t-29.5 57t-47 41.5t-66.5 16.5q-81 0 -125 -65q-45 -67 -45 -170zM360 510q0 99 41 158q37 55 107 55q39 0 68.5 -22t44 -56 t21.5 -67t7 -64q0 -92 -41 -152.5t-104 -60.5t-103.5 59t-40.5 150z" />
<glyph unicode="p" horiz-adv-x="1032" d="M20 1026l7 -104q6 -240 6 -260v-984h344v342q71 -26 155 -26q197 0 330 139q139 148 139 397q0 224 -125 369t-319 145q-117 0 -203 -45l-2 27h-332zM45 1004h285l2 -43l16 10q94 51 209 51q184 0 303 -139t119 -353q0 -235 -133 -380q-128 -134 -314 -134q-80 0 -161 33 l-17 8v-356h-299v961q0 139 -6 262zM354 442q0 -15 4 -43q15 -52 56 -83t94 -31q19 0 38 4t44.5 18.5t44 39t32 70.5t13.5 107q0 116 -50 172t-118 56q-52 0 -94 -35.5t-56 -91.5q-8 -24 -8 -41v-142zM377 442v142q0 7 8 34q12 49 47 79t80 30q50 0 83.5 -32t46.5 -76 t13 -95q0 -32 -5 -62.5t-18.5 -68.5t-45 -61t-78.5 -23q-44 0 -79 25.5t-48 68.5q-4 24 -4 39z" />
<glyph unicode="q" horiz-adv-x="1013" d="M20 506q0 -218 125 -365q131 -147 320 -147q97 0 170 33v-349h348v1024q0 84 4 220l6 104h-340v-14q-71 32 -164 32q-89 0 -172 -35t-150 -100.5t-107 -170t-40 -232.5zM43 506q0 122 38.5 222.5t102 163t142.5 96.5t163 34q95 0 168 -37l17 -8l2 27h293l-4 -80 q-7 -123 -7 -222v-1001h-299v362l-16 -8q-86 -39 -178 -39q-178 0 -301 142q-121 137 -121 348zM346 514q0 -78 25 -131q41 -96 139 -96q51 0 87.5 28.5t53.5 81.5q8 24 8 47v152q0 27 -4 43v2q-12 46 -48 78.5t-91 32.5q-89 0 -133 -78q-37 -61 -37 -160zM369 514 q0 56 13.5 102.5t47.5 79.5t86 33q45 0 76 -28t39 -66l2 -2q2 -6 2 -37v-152q0 -23 -6 -41q-13 -44 -44.5 -68t-74.5 -24q-37 0 -64.5 17t-41.5 40.5t-22.5 54.5t-10.5 51.5t-2 39.5z" />
<glyph unicode="r" horiz-adv-x="651" d="M20 1022l7 -107q8 -91 8 -249v-666h348v539q0 21 4 53q26 108 102 108q8 0 17.5 -1t11.5 -1l123 -28v344l-76 20q-46 8 -67 8q-78 0 -142 -34v14h-336zM45 999h287l2 -30l16 10q70 39 148 39q34 0 61 -8l57 -15v-295l-92 21q-8 2 -35 2q-61 0 -96 -53q-22 -33 -28 -74 q-7 -32 -7 -57v-514h-301v641q0 150 -6 252z" />
<glyph unicode="s" horiz-adv-x="770" d="M20 88l70 -41q124 -70 285 -70q184 0 296.5 96t112.5 253q0 61 -18 113t-45 87t-67 64.5t-75 47t-77 32.5q-77 30 -92 45v2q0 10 39 10q60 0 114 -31l109 -67l104 307l-69 41q-111 65 -256 65q-167 0 -276 -97.5t-109 -246.5q0 -117 79 -202q72 -78 205 -125 q41 -15 61.5 -27.5t23.5 -18t3 -12.5q0 -22 -59 -22q-37 0 -77 12.5t-66 30.5l-111 72zM49 100l88 269l84 -56q30 -19 74.5 -33t83.5 -14q82 0 82 47q0 14 -5 23.5t-28.5 24t-69.5 32.5q-122 42 -196 119q-74 83 -74 186q0 139 103 229.5t260 90.5q135 0 243 -62l54 -32 l-89 -260l-84 53q-56 35 -126 35q-62 0 -62 -35l2 -12q6 -19 105 -58q40 -15 72.5 -30.5t71 -43.5t64 -60.5t43 -81t17.5 -105.5q0 -146 -106.5 -235t-280.5 -89q-154 0 -273 66z" />
<glyph unicode="t" horiz-adv-x="731" d="M20 709h130v-349q0 -195 83 -282q87 -96 236 -96q102 0 172 28l66 27l-19 307l-119 -33q-30 -6 -61 -6h-4q-8 16 -8 60v344h215v315h-215v268l-346 -92v-176h-130v-315zM45 733v268h127v181l301 80v-261h215v-268h-215v-368q0 -58 12 -76l2 -4l5 -2h16q37 0 67 6l91 24 l16 -260l-51 -22q-64 -25 -162 -25q-140 0 -219 88q-78 82 -78 266v373h-127z" />
<glyph unicode="u" horiz-adv-x="933" d="M20 453q0 -237 121 -355q103 -98 256 -98q103 0 185 43l2 -25h329l-8 107q-6 83 -6 213v686h-344v-594q0 -19 -8 -39q-9 -25 -36.5 -48.5t-64.5 -23.5q-18 0 -28 3t-25.5 16t-23 48t-7.5 91v547h-342v-571zM43 453v548h297v-524q0 -52 8 -88.5t18 -54.5t27 -27.5 t27 -10.5t26 -1q45 0 77 27.5t46 58.5v2q9 27 9 47v571h296v-663q0 -119 7 -215l8 -82h-283l-4 39l-14 -8q-85 -49 -191 -49q-144 0 -239 92q-115 115 -115 338z" />
<glyph unicode="v" horiz-adv-x="1112" d="M20 1024l388 -1016l2 -8h280l402 1024h-375l-160 -461l-160 461h-377zM55 999h326l176 -507l176 507h324l-383 -974h-248z" />
<glyph unicode="w" horiz-adv-x="1509" d="M20 1024l308 -1024h282l138 401l129 -401h280l332 1024h-363l-112 -397l-123 397h-275l-127 -399l-104 399h-365zM51 999h316l120 -460l148 460h237l142 -456l131 456h311l-315 -974h-248l-145 452l-154 -452h-248z" />
<glyph unicode="x" horiz-adv-x="1177" d="M20 0h414l150 233q0 1 1 3.5t1 3.5q1 -2 3 -5.5t3 -5.5l151 -229h414l-356 524l352 500h-410l-147 -221v-2l-2 2l-145 221h-414l348 -504zM68 25l346 495l-334 479h354l141 -211q1 -1 11 -16l10 -14l20 33l140 208h350l-334 -475l340 -499h-356l-144 219q-3 4 -8 12 t-8 12l-10 15l-11 -17q-2 -3 -6 -10t-6 -10l-143 -221h-352z" />
<glyph unicode="y" horiz-adv-x="1122" d="M20 1024l363 -907q-34 -76 -96 -129l-2 -2q-39 -34 -99 -56l-96 -28l94 -312l88 17q21 3 51 12t84 38t101 71q91 79 160 208t153 355l281 733h-381l-150 -444l-163 444h-388zM55 999h334l182 -491l168 491h328l-266 -700q-87 -226 -154.5 -352t-154.5 -201 q-102 -90 -224 -117l-67 -12l-80 268l72 23q61 20 106 59l2 2q65 49 105 140l4 8l-2 4q0 2 -2 4z" />
<glyph unicode="z" horiz-adv-x="911" d="M20 0h871v319h-375l363 474l2 2l4 229h-830v-322h336l-371 -481v-221zM45 25v188l393 514h-360v272h784l-4 -196l-391 -506h399v-272h-821z" />
<glyph unicode="{" />
<glyph unicode="|" />
<glyph unicode="}" />
<glyph unicode="~" />
<glyph unicode="&#xa1;" horiz-adv-x="487" d="M63 131v-485h363v485l-2 606h-358zM68 848h358v338h-358v-338zM86 131l2 584h313l2 -584v-463h-317v463zM90 870v293h313v-293h-313z" />
<glyph unicode="&#xa2;" horiz-adv-x="765" d="M61 401q0 -156 103 -256q67 -61 155 -86v-59h123v51q140 9 254 123l9 8l-97 107l-10 -8q-71 -74 -156 -80v401q77 -9 152 -72l8 -8l96 119l-6 8q-107 104 -250 107v63h-123v-78q-86 -24 -149 -84q-109 -100 -109 -256zM68 401q0 -149 100 -249q71 -65 158 -86v-60h110v51 q142 6 256 123l4 2l-88 99l-4 -5q-81 -81 -168 -81v413q83 -3 162 -73l4 -3l88 109l-4 2q-101 104 -250 107v63h-110v-78q-86 -21 -152 -84q-106 -93 -106 -250zM78 401q0 80 26 136q20 52 76 108q63 60 152 82h4v76h90v-64h4q143 0 246 -100l-76 -92q-79 68 -170 71l-4 3 v-437h6q92 0 174 82l76 -84q-114 -111 -252 -114l-4 -2v-50h-90v58h-4q-87 21 -156 84q-98 94 -98 243zM84 401q0 75 27 134q24 59 75 104q61 61 148 82l8 2v72h76v-64h12q138 0 238 -92l-68 -84q-81 69 -170 72h-12v-451h14q91 0 174 80l66 -72q-107 -104 -242 -110h-12 v-49h-76v55l-8 2q-83 18 -154 82q-96 93 -96 237zM201 406q0 -97 65 -162q26 -26 60 -43l16 -11v422l-16 -8q-34 -21 -58 -39q-67 -61 -67 -159zM209 406q0 -96 63 -156q27 -30 56 -43l8 -4v397l-8 -4q-28 -13 -54 -35q-65 -59 -65 -155zM219 406q0 91 62 147q24 20 45 31 v-365q-20 10 -47 37q-60 63 -60 150zM225 406q0 87 60 141q14 14 34 24v-340q-21 14 -36 29q-58 61 -58 146z" />
<glyph unicode="&#xa3;" horiz-adv-x="1243" d="M57 272l125 -319l88 55q65 40 109 49q70 19 108 19q41 0 64 -6h2h4q1 0 72 -21q7 -1 33 -10q99 -28 118 -31h4q33 -8 90 -8q56 0 105 12q41 8 139 45l74 33l-111 309l-84 -39q-90 -45 -131 -45q-33 0 -182 37h-2q-5 1 -19 4t-22 4q-17 6 -37 9h-2h-10l-2 2l-31 4 q0 15 8 28l2 7q30 61 45 161l2 25h230v283h-305l-4 18q-23 103 -23 164q0 59 39 98q50 41 113 41q62 0 104 -39q48 -45 57 -125l11 -82l309 50l-12 83q-24 187 -156 297q-54 44 -141 80q-86 25 -172 25q-186 0 -314 -98q-83 -65 -127 -152l-2 -2v-2q-41 -90 -41 -197 q0 -30 11 -98q2 -6 2 -16v-29h-103v-299h189l-2 -29q-3 -101 -46 -153q-42 -70 -110 -109zM66 268l120 -305l80 51q66 41 111 52q78 16 110 16q43 0 66 -6h4q25 -5 74 -21q4 -1 15 -4t18 -4q109 -32 116 -33h4q36 -8 90 -8t103 12q59 15 139 48l68 28l-107 295l-78 -35 q-92 -45 -133 -45q-44 0 -184 37q-30 4 -43 8q-4 1 -11.5 2.5t-13.5 2.5t-10 1l-2 2h-12h-2l-31 5l-4 2q-7 10 8 39l2 6q32 71 45 159l2 29h228v270h-301l-9 23q-20 103 -20 166t39 102q51 43 119 43q64 0 108 -41q53 -47 62 -129l8 -73l295 47l-11 75q-24 186 -153 293 q-57 46 -139 80q-86 25 -170 25q-184 0 -310 -99q-79 -59 -125 -147l-2 -2v-2q-39 -85 -39 -195q0 -28 11 -96q2 -8 2 -18v-37h-103v-285h189l-2 -35q-3 -104 -47 -157q-44 -69 -113 -111zM80 264l51 25v2q75 45 117 112q46 55 49 164l2 45h-188v265h102v47q0 12 -2 20 q-10 58 -10 94q0 109 39 191v2v2q43 82 122 143q126 97 304 97q82 0 165 -25q83 -31 138 -78q125 -103 149 -285l8 -67l-274 -43l-8 63q-9 86 -64 136q-46 43 -114 43q-67 0 -125 -46q-43 -43 -43 -110q0 -66 22 -168l8 -31h301v-250h-229l-2 -39q-15 -97 -45 -155l-2 -8 q-12 -36 -6 -45q3 -7 12 -7l29 -4q4 -2 16 -2l16 -4t19 -4t21.5 -4t21.5 -4q142 -37 186 -37q46 0 138 47l67 31l100 -277l-59 -26q-100 -38 -137 -45q-50 -13 -101 -13q-50 0 -88 9h-4q-6 1 -116 30q-22 9 -31 11q-49 15 -76 20h-4q-25 6 -68 6q-42 0 -112 -18 q-56 -13 -115 -51l-70 -43zM88 260l47 23v2q77 45 119 114q46 55 49 168l2 54h-188v249h102v54q0 12 -2 22q-10 58 -10 92q0 107 39 189l2 2v2q42 82 119 139q122 94 299 94q93 0 163 -22q77 -29 136 -76q124 -106 145 -283l8 -59l-260 -41l-6 55q-9 89 -66 140 q-50 47 -120 47t-129 -47v-2q-48 -45 -48 -115q0 -50 23 -168l12 -39h297v-233h-227l-4 -46q-10 -82 -43 -155l-2 -6q-14 -43 -6 -54q7 -10 16 -10l29 -4q6 -2 18 -2q5 -1 16.5 -3t16.5 -3q7 -2 21.5 -5t21.5 -5q143 -35 188 -35q48 0 142 47l59 27l94 -263l-51 -24 q-80 -30 -137 -45q-47 -12 -99 -12q-53 0 -86 8h-2h-4q-16 2 -114 32q-7 1 -18 5t-13 4q-69 21 -76 22h-6q-25 6 -68 6q-26 0 -114 -18q-54 -13 -117 -53l-61 -39z" />
<glyph unicode="&#xa4;" />
<glyph unicode="&#xa5;" />
<glyph unicode="&#xa6;" />
<glyph unicode="&#xa7;" />
<glyph unicode="&#xa9;" horiz-adv-x="1597" d="M82 717q0 -145 57 -278t153 -229t229 -153t278 -57t278 57t229 153t153 229t57 278t-57 278t-153 229t-229 153t-278 57t-278 -57t-229 -153t-153 -229t-57 -278zM90 717q0 -144 56 -275.5t151 -227t226.5 -152t275.5 -56.5t275.5 56.5t226.5 152t151.5 227t56.5 275.5 t-56.5 275.5t-151.5 226.5t-226.5 151.5t-275.5 56.5t-275.5 -56.5t-226.5 -151.5t-151 -226.5t-56 -275.5zM100 717q0 142 55.5 271.5t149 223.5t223 149.5t271.5 55.5t272 -55.5t223.5 -149.5t149 -223.5t55.5 -271.5q0 -190 -93.5 -351t-255 -255.5t-351.5 -94.5 q-142 0 -271.5 56t-223 150t-149 223.5t-55.5 271.5zM106 717q0 187 93 346.5t253 252.5t347 93q188 0 347.5 -93t252 -252t92.5 -347t-92.5 -347t-252 -252t-347.5 -93q-187 0 -347 93t-253 252.5t-93 346.5zM213 717q0 -159 79 -294t214 -213.5t293 -78.5q159 0 294 78.5 t213 213.5t78 294t-78 294t-213 213.5t-294 78.5q-158 0 -293 -78.5t-214 -213.5t-79 -294zM221 717q0 -157 77.5 -290.5t210.5 -211.5t290 -78t290.5 78t211 211.5t77.5 290.5q0 117 -46 224.5t-123.5 185t-185 123.5t-224.5 46q-157 0 -290 -77.5t-210.5 -211 t-77.5 -290.5zM231 717q0 154 76 285t207 207.5t285 76.5t285 -76.5t207.5 -207.5t76.5 -285t-76.5 -285.5t-207.5 -208t-285 -76.5q-115 0 -220.5 45.5t-181.5 122t-121 182t-45 220.5zM238 717q0 114 44.5 218t119.5 179t179 119.5t218 44.5q153 0 282.5 -75.5t205 -204.5 t75.5 -281t-75.5 -281t-205 -204.5t-282.5 -75.5q-114 0 -218 44.5t-179 119.5t-119.5 179t-44.5 218zM483 713q0 -149 92 -244q91 -94 242 -94q114 0 182 37l50 24l-48 207l-75 -35q-50 -20 -92 -20q-54 0 -84 35q-31 36 -31 94q0 80 49 110q29 21 70 21q47 0 75 -14 l78 -46l62 216l-52 24q-70 35 -163 35q-157 0 -256 -97.5t-99 -252.5zM489 713q0 -139 91 -240q92 -92 237 -92q99 0 180 37l43 22l-45 193l-67 -31q-50 -20 -94 -20q-59 0 -89 34q-32 35 -32 101q0 36 10.5 63t25 40.5t33.5 21.5t31.5 10t24.5 2q52 0 80 -14l69 -39l57 198 l-45 23q-70 35 -161 35q-154 0 -251.5 -96t-97.5 -248zM500 713q0 148 94.5 241t243.5 93q85 0 157 -35l37 -19l-51 -178l-57 33q-32 16 -86 16q-69 0 -102.5 -43t-33.5 -104q0 -66 36 -106t96 -40q50 0 98 23l57 24l39 -172l-37 -18q-64 -37 -174 -37q-145 0 -229 90 q-88 94 -88 232zM508 713q0 145 92 235t238 90q87 0 153 -32l33 -17l-47 -164l-51 29q-27 18 -88 18q-72 0 -111 -51q-33 -45 -33 -104q0 -69 38.5 -111.5t101.5 -42.5q46 0 102 25l49 20l37 -159l-33 -15q-64 -35 -172 -35q-142 0 -225 86q-84 90 -84 228z" />
<glyph unicode="&#xab;" />
<glyph unicode="&#xac;" />
<glyph unicode="&#xad;" horiz-adv-x="704" d="M61 604h582v246h-582v-246zM68 610h569v234h-569v-234zM78 621v213h549v-213h-549zM84 627v200h537v-200h-537z" />
<glyph unicode="&#xae;" />
<glyph unicode="&#xb0;" horiz-adv-x="641" d="M61 1407q-3 -107 74 -184q75 -78 182 -78h2q106 0 183 74q78 81 78 180q0 110 -74 184q-77 80 -182 80h-5q-105 0 -182 -74q-76 -76 -76 -182zM68 1407q0 -106 71 -180q73 -73 178 -76h2q104 0 179 72q75 75 75 176q2 104 -71.5 180.5t-177.5 77.5h-5q-100 0 -178 -72 q-73 -76 -73 -178zM78 1407q0 101 72 170q70 70 169 70h5q102 -3 170 -74q69 -72 69 -174q0 -94 -74 -168q-73 -70 -170 -70h-2q-102 3 -170 74q-69 69 -69 172zM84 1407q0 96 70 166q70 67 165 67h5q98 -3 165 -73q68 -71 68 -168q0 -92 -72 -164q-71 -68 -166 -68h-2 q-99 3 -165 72q-68 71 -68 168zM158 1403q0 -68 47 -115t114 -47q70 0 117 47t47 115q0 67 -48.5 115.5t-115.5 48.5t-114 -47t-47 -117zM164 1403q0 -66 45 -111t110 -45q66 0 111 45q47 44 47 111q0 65 -46.5 111.5t-111.5 46.5t-110 -48q-45 -45 -45 -110zM174 1403 q0 61 43 104q40 43 102 43t105 -43t43 -104q0 -63 -43 -103q-43 -43 -105 -43q-61 0 -103 42t-42 104zM180 1403q0 59 41 100t98 41q59 0 100.5 -41.5t41.5 -99.5q0 -57 -41 -98t-101 -41q-59 0 -99 40t-40 99z" />
<glyph unicode="&#xb1;" />
<glyph unicode="&#xb6;" />
<glyph unicode="&#xb7;" />
<glyph unicode="&#xbb;" />
<glyph unicode="&#xbf;" />
<glyph unicode="&#xd7;" horiz-adv-x="1105" d="M123 997l262 -262l-256 -258l168 -170l258 258l252 -252l170 168l-252 254l258 256l-170 170l-258 -258l-262 264zM131 997l262 -262l-256 -258l160 -160l258 258l252 -251l160 157l-252 254l258 256l-160 160l-258 -258l-262 264zM145 997l148 146l262 -262l258 258 l145 -148l-258 -256l252 -254l-145 -145l-252 252l-258 -256l-145 145l256 258zM156 997l137 138l262 -265l258 258l135 -137l-258 -256l252 -254l-135 -135l-252 252l-258 -258l-135 137l256 258z" />
<glyph unicode="&#xf7;" horiz-adv-x="1150" d="M82 598h987v246h-987v-246zM90 606h971v230h-971v-230zM100 616v209h951v-209h-951zM106 623v196h938v-196h-938zM408 352q0 -68 48 -116t115 -48t115.5 48t48.5 116t-48.5 116t-115.5 48t-115 -48t-48 -116zM410 1114q0 -68 48 -116t115 -48t115.5 48t48.5 116 t-48.5 116t-115.5 48t-115 -48t-48 -116zM414 352q0 -64 46 -110.5t111 -46.5t111.5 46.5t46.5 110.5q0 66 -46.5 112t-111.5 46t-111 -46t-46 -112zM416 1114q0 -66 46 -112t111 -46t111.5 46t46.5 112q0 64 -46.5 111t-111.5 47q-64 0 -110.5 -46.5t-46.5 -111.5zM424 352 q0 62 43 105t104 43t104.5 -43t43.5 -105q0 -60 -43.5 -103.5t-104.5 -43.5t-104 43.5t-43 103.5zM426 1114q0 60 43 104t104 44t104.5 -44t43.5 -104q0 -61 -43 -104t-105 -43q-61 0 -104 42.5t-43 104.5zM432 352q0 59 40.5 100.5t98.5 41.5t99 -41.5t41 -100.5 q0 -58 -40.5 -98.5t-99.5 -40.5t-99 40.5t-40 98.5zM434 1114q0 58 40 98.5t99 40.5t99.5 -40.5t40.5 -98.5q0 -59 -41 -100t-99 -41t-98.5 41t-40.5 100z" />
<glyph unicode="&#x2000;" horiz-adv-x="839" />
<glyph unicode="&#x2001;" horiz-adv-x="1679" />
<glyph unicode="&#x2002;" horiz-adv-x="839" />
<glyph unicode="&#x2003;" horiz-adv-x="1679" />
<glyph unicode="&#x2004;" horiz-adv-x="559" />
<glyph unicode="&#x2005;" horiz-adv-x="419" />
<glyph unicode="&#x2006;" horiz-adv-x="279" />
<glyph unicode="&#x2007;" horiz-adv-x="279" />
<glyph unicode="&#x2008;" horiz-adv-x="209" />
<glyph unicode="&#x2009;" horiz-adv-x="335" />
<glyph unicode="&#x200a;" horiz-adv-x="93" />
<glyph unicode="&#x2010;" horiz-adv-x="704" d="M61 604h582v246h-582v-246zM68 610h569v234h-569v-234zM78 621v213h549v-213h-549zM84 627v200h537v-200h-537z" />
<glyph unicode="&#x2011;" horiz-adv-x="704" d="M61 604h582v246h-582v-246zM68 610h569v234h-569v-234zM78 621v213h549v-213h-549zM84 627v200h537v-200h-537z" />
<glyph unicode="&#x2012;" horiz-adv-x="704" d="M61 604h582v246h-582v-246zM68 610h569v234h-569v-234zM78 621v213h549v-213h-549zM84 627v200h537v-200h-537z" />
<glyph unicode="&#x2013;" horiz-adv-x="1155" d="M123 430h909v225h-909v-225zM129 436h895v213h-895v-213zM139 446v193h877v-193h-877zM145 453v180h865v-180h-865z" />
<glyph unicode="&#x2014;" />
<glyph unicode="&#x2018;" horiz-adv-x="387" d="M102 1276q0 -42 27 -76q30 -33 72 -33q39 0 61 25q23 23 23 57q0 35 -31 60q-20 12 -33 14q4 4 8.5 7.5t11 8t9.5 7.5l33 16l-39 78l-35 -13v-2q-44 -20 -70 -59q-37 -40 -37 -90zM109 1276q0 -41 24 -72q27 -30 68 -30q35 0 57 22q21 18 21 53q0 31 -29 54 q-17 14 -41 14v2h2q7 9 35 33l28 12l-34 68l-27 -11h-2q-42 -23 -68 -59q-34 -37 -34 -86zM119 1276q0 44 31 80h2q20 32 63 57l21 6l26 -51l-20 -8q-23 -17 -39 -35l-2 -4q-1 -1 -2 -3t-2 -3l-7 -6h17q21 0 37 -13q24 -19 24 -47t-16 -47q-18 -18 -51 -18q-40 0 -60 26 q-22 25 -22 66zM125 1276q0 40 31 76q21 33 63 55l14 4l19 -39l-12 -6l-2 -2q-31 -22 -39 -35q-4 -4 -4 -6l-2 -2l-19 -21h33q21 0 33 -10h2q20 -15 20 -41q0 -29 -14 -43q-19 -16 -47 -16q-35 0 -56 24v3q-20 23 -20 59z" />
<glyph unicode="&#x2019;" horiz-adv-x="387" d="M102 1276q0 -42 27 -76q30 -33 72 -33q39 0 61 25q23 23 23 57q0 35 -31 60q-20 12 -33 14q4 4 8.5 7.5t11 8t9.5 7.5l33 16l-39 78l-35 -13v-2q-44 -20 -70 -59q-37 -40 -37 -90zM109 1276q0 -41 24 -72q27 -30 68 -30q35 0 57 22q21 18 21 53q0 31 -29 54 q-17 14 -41 14v2h2q7 9 35 33l28 12l-34 68l-27 -11h-2q-42 -23 -68 -59q-34 -37 -34 -86zM119 1276q0 44 31 80h2q20 32 63 57l21 6l26 -51l-20 -8q-23 -17 -39 -35l-2 -4q-1 -1 -2 -3t-2 -3l-7 -6h17q21 0 37 -13q24 -19 24 -47t-16 -47q-18 -18 -51 -18q-40 0 -60 26 q-22 25 -22 66zM125 1276q0 40 31 76q21 33 63 55l14 4l19 -39l-12 -6l-2 -2q-31 -22 -39 -35q-4 -4 -4 -6l-2 -2l-19 -21h33q21 0 33 -10h2q20 -15 20 -41q0 -29 -14 -43q-19 -16 -47 -16q-35 0 -56 24v3q-20 23 -20 59z" />
<glyph unicode="&#x201a;" d="M12 -74q-4 -104 13 -123q5 -8 18 -8q35 0 80 68q45 65 45 94q0 31 -23 53.5t-55 22.5q-31 0 -53.5 -22.5t-22.5 -53.5q0 -19 -2 -31zM20 -43v-33q-9 -97 9 -117q6 -6 14 -6q4 0 9 1.5t10 4.5t9 6t9.5 8.5l9 9t8.5 10t7 9t7 8.5t5 7q43 67 43 92q0 28 -20.5 49t-49.5 21 q-28 0 -49 -21t-21 -49zM29 -76q2 12 2 33q0 25 17 42t42 17t43.5 -17.5t18.5 -41.5q0 -26 -43 -86q-40 -59 -66 -59q-6 0 -8 2q-11 15 -6 110zM35 -76q2 12 2 33q0 22 15.5 37.5t37.5 15.5q23 0 39 -15.5t16 -37.5q0 -26 -41 -82q-20 -29 -36 -43t-25 -14h-2q-12 14 -6 106 z" />
<glyph unicode="&#x201c;" horiz-adv-x="561" d="M102 1276q0 -46 27 -76q30 -33 72 -33q36 0 61 25q21 21 21 47q6 -18 22 -37q21 -35 72 -35q41 0 63 29v2q19 30 19 51q0 34 -29 58v2q-15 9 -33 12q12 15 29 25l29 16l-35 78l-35 -13v-2q-38 -16 -72 -59q-31 -35 -34 -88q-4 10 -25 31q-18 11 -33 14q4 4 13.5 11.5 t13.5 11.5l35 14l-39 80l-35 -13v-2q-39 -18 -72 -59q-35 -38 -35 -90zM109 1276q0 -45 24 -72q24 -30 68 -30q35 0 57 22q18 18 18 53q0 33 -26 54q-17 14 -41 14v2q10 13 37 33l26 12l-32 68l-29 -11q-42 -23 -68 -59q-34 -34 -34 -86zM117 1276q0 39 33 80q24 34 65 55 l21 8l24 -51l-18 -8l-2 -2q-26 -17 -37 -33l-2 -4q-1 -1 -2 -3t-2 -3l-9 -8h17q23 0 39 -11v-2q24 -14 24 -45q0 -29 -18 -47t-49 -18q-40 0 -60 26q-24 27 -24 66zM125 1276q0 43 29 76h2q24 34 61 55l14 4l21 -39l-14 -6l-2 -2q-34 -28 -39 -35q-2 -2 -2 -6l-2 -2l-19 -21 h31q23 0 35 -10q22 -16 22 -41q0 -27 -16 -43t-45 -16q-35 0 -56 24v3q-20 20 -20 59zM285 1272q0 -36 24 -66q22 -32 68 -32q44 0 57 26v2q19 30 19 47q0 27 -27 54q-21 14 -41 14h2v2q11 16 37 33l22 12l-30 68l-29 -11q-35 -18 -70 -59q-32 -37 -32 -90zM295 1272 q0 52 29 84q33 39 67 55l21 8l22 -51l-16 -8q-32 -26 -37 -35q-7 -3 -10 -10l-9 -8h19q23 0 39 -11q22 -26 22 -47q0 -19 -14 -43l-2 -2q-13 -20 -49 -20q-44 0 -60 26q-22 28 -22 62zM301 1272q0 48 29 80q25 34 63 55l15 4l18 -41l-10 -6q-27 -15 -39 -35q-2 -1 -6 -4 t-6 -4l-19 -21h35q23 0 35 -10q20 -20 20 -41q0 -13 -14 -41q-12 -18 -45 -18q-38 0 -53 24h-2q-21 27 -21 58z" />
<glyph unicode="&#x201d;" horiz-adv-x="559" d="M102 1247q0 -25 17 -51q26 -29 67 -29q40 0 70 33v2q17 21 23 41q0 -31 20 -51q25 -25 59 -25q44 0 72 31q27 30 27 76q0 51 -33 90q-30 41 -74 59l-33 17l-36 -80l28 -14q20 -16 29 -25q-18 -4 -29 -12q-21 -13 -26 -35q-3 55 -35 92v2q-27 33 -72 55l-33 17l-37 -80 l29 -14q20 -16 29 -25q-23 -4 -33 -14q-29 -21 -29 -60zM109 1247q0 -26 16 -47q20 -26 61 -26q36 0 66 30q22 31 22 68q0 52 -32 90q-33 41 -70 55l-27 15l-30 -68l24 -14q18 -10 35 -31q1 0 2 -1t2 -1q-26 0 -43 -17q-26 -17 -26 -53zM119 1247q0 33 20 45v2q20 13 41 13 h13l-3 8q0 1 -3 5t-7 7q-23 23 -37 31l-16 10l23 51l18 -10q36 -15 68 -51q30 -40 30 -86q0 -32 -20 -62q-26 -26 -60 -26q-38 0 -55 22q-12 21 -12 41zM125 1247q0 27 18 41h2q12 12 35 12h23l-8 17q-1 2 -9 14q-2 1 -16.5 14t-22.5 19l-12 6l19 39l12 -6q37 -16 63 -49 q31 -39 31 -82q0 -31 -20 -58q-21 -24 -54 -24q-34 0 -49 18q-12 21 -12 39zM285 1247q0 -34 20 -51q18 -22 53 -22q40 0 68 28q25 31 25 72q0 46 -33 88q-25 35 -70 55l-29 15l-30 -68l24 -14q23 -13 35 -31q1 0 2 -1t2 -1q-18 0 -39 -14q-28 -16 -28 -56zM293 1247 q0 35 24 47q19 13 37 13h13l-2 8q-1 1 -4 4.5t-5 5.5q-17 20 -39 33l-16 10l25 51l18 -10q39 -15 68 -53q30 -40 30 -82q0 -38 -22 -66q-24 -24 -62 -24q-29 0 -47 18t-18 45zM301 1247q0 32 18 41l3 2q17 10 32 10h23l-8 17q-1 2 -9 14q-20 21 -38 33l-13 6l19 39l14 -6 q35 -14 64 -51q30 -38 30 -78q0 -38 -22 -60q-21 -24 -56 -24q-27 0 -43 16q-14 14 -14 41z" />
<glyph unicode="&#x201e;" d="M12 -74q-4 -104 13 -123q5 -8 18 -8q35 0 80 68q45 65 45 94q0 31 -23 53.5t-55 22.5q-31 0 -53.5 -22.5t-22.5 -53.5q0 -19 -2 -31zM12 -74q-4 -104 13 -123q5 -8 18 -8q35 0 80 68q45 65 45 94q0 31 -23 53.5t-55 22.5q-31 0 -53.5 -22.5t-22.5 -53.5q0 -19 -2 -31z M20 -43v-33q-9 -97 9 -117q6 -6 14 -6q4 0 9 1.5t10 4.5t9 6t9.5 8.5l9 9t8.5 10t7 9t7 8.5t5 7q43 67 43 92q0 28 -20.5 49t-49.5 21q-28 0 -49 -21t-21 -49zM20 -43v-33q-9 -97 9 -117q6 -6 14 -6q4 0 9 1.5t10 4.5t9 6t9.5 8.5l9 9t8.5 10t7 9t7 8.5t5 7q43 67 43 92 q0 28 -20.5 49t-49.5 21q-28 0 -49 -21t-21 -49zM29 -76q2 12 2 33q0 25 17 42t42 17t43.5 -17.5t18.5 -41.5q0 -26 -43 -86q-40 -59 -66 -59q-6 0 -8 2q-11 15 -6 110zM29 -76q2 12 2 33q0 25 17 42t42 17t43.5 -17.5t18.5 -41.5q0 -26 -43 -86q-40 -59 -66 -59q-6 0 -8 2 q-11 15 -6 110zM35 -76q2 12 2 33q0 22 15.5 37.5t37.5 15.5q23 0 39 -15.5t16 -37.5q0 -26 -41 -82q-20 -29 -36 -43t-25 -14h-2q-12 14 -6 106zM35 -76q2 12 2 33q0 22 15.5 37.5t37.5 15.5q23 0 39 -15.5t16 -37.5q0 -26 -41 -82q-20 -29 -36 -43t-25 -14h-2 q-12 14 -6 106z" />
<glyph unicode="&#x2022;" horiz-adv-x="802" d="M184 645q0 -79 58 -137q57 -57 137 -57q79 0 136.5 57.5t57.5 136.5q0 83 -57 137q-55 58 -137 58q-79 0 -137 -58t-58 -137zM190 645q0 -74 56 -133q58 -55 133 -55q78 0 133 55t55 133t-55 133q-56 56 -133 56t-133 -55.5t-56 -133.5zM201 645q0 73 52.5 125.5 t125.5 52.5t127 -51q51 -54 51 -127t-52.5 -125.5t-125.5 -52.5q-75 0 -125 53q-53 50 -53 125zM207 645q0 71 50.5 121.5t121.5 50.5q73 0 121 -51q51 -48 51 -121q0 -71 -50.5 -121.5t-121.5 -50.5q-70 0 -121 51t-51 121z" />
<glyph unicode="&#x2026;" d="M20 82q0 -34 24 -58t58 -24t58 24t24 58t-24 58t-58 24t-58 -24t-24 -58zM20 82q0 -34 24 -58t58 -24t58 24t24 58t-24 58t-58 24t-58 -24t-24 -58zM20 82q0 -34 24 -58t58 -24t58 24t24 58t-24 58t-58 24t-58 -24t-24 -58zM27 82q0 -31 21.5 -53.5t53.5 -22.5 q31 0 53.5 22.5t22.5 53.5t-22.5 53.5t-53.5 22.5q-32 0 -53.5 -22.5t-21.5 -53.5zM27 82q0 -31 21.5 -53.5t53.5 -22.5q31 0 53.5 22.5t22.5 53.5t-22.5 53.5t-53.5 22.5q-32 0 -53.5 -22.5t-21.5 -53.5zM27 82q0 -31 21.5 -53.5t53.5 -22.5q31 0 53.5 22.5t22.5 53.5 t-22.5 53.5t-53.5 22.5q-32 0 -53.5 -22.5t-21.5 -53.5zM35 82q0 28 19.5 48t47.5 20t47 -20t19 -48t-19 -48t-47 -20t-47.5 20t-19.5 48zM35 82q0 28 19.5 48t47.5 20t47 -20t19 -48t-19 -48t-47 -20t-47.5 20t-19.5 48zM35 82q0 28 19.5 48t47.5 20t47 -20t19 -48t-19 -48 t-47 -20t-47.5 20t-19.5 48zM41 82q0 25 17.5 43t43.5 18q25 0 42.5 -18t17.5 -43t-17.5 -43.5t-42.5 -18.5q-26 0 -43.5 18.5t-17.5 43.5zM41 82q0 25 17.5 43t43.5 18q25 0 42.5 -18t17.5 -43t-17.5 -43.5t-42.5 -18.5q-26 0 -43.5 18.5t-17.5 43.5zM41 82q0 25 17.5 43 t43.5 18q25 0 42.5 -18t17.5 -43t-17.5 -43.5t-42.5 -18.5q-26 0 -43.5 18.5t-17.5 43.5z" />
<glyph unicode="&#x202f;" horiz-adv-x="335" />
<glyph unicode="&#x2039;" />
<glyph unicode="&#x203a;" />
<glyph unicode="&#x205f;" horiz-adv-x="419" />
<glyph unicode="&#x20ac;" horiz-adv-x="1269" d="M63 516v148h136v41h-133v149h143q15 104 59 197q45 98 117 176q90 100 211 153q123 54 262 54q84 0 149.5 -18t95.5 -36.5t79 -56.5q2 -1 16 -10l4 -4l4 -316l-20 27q-82 92 -158 125q-73 37 -176 37q-182 0 -297 -127q-79 -88 -106 -201h569v-149h-584q0 -27 2 -41h580 v-148h-545q30 -71 84 -131q114 -135 283 -135q109 0 174 39q70 33 153 125l21 22l6 -284l-2 -5q-64 -76 -133 -108q-82 -39 -215 -39q-141 0 -252 51q-116 53 -207 152q-124 136 -164 313h-156zM86 539h127q-9 49 -12 102h-115v-102zM88 729h111q0 51 6 100h-117v-100z M221 705q0 -7 1 -20.5t1 -20.5h189q-2 14 -2 41h-189zM221 729h189q0 56 8 100h-189q-4 -36 -8 -100zM225 641q3 -44 13 -102h198q-12 39 -22 102h-189zM233 854h191q27 122 113 217q123 135 315 135q104 0 186 -39q76 -37 144 -108l-4 237q-7 7 -11 9q-38 28 -57.5 40.5 t-58 30.5t-85 25.5t-108.5 7.5q-138 0 -252 -51q-119 -52 -205 -148q-68 -77 -112 -170q-41 -86 -56 -186zM244 516q41 -171 155 -297q88 -94 199 -145q110 -49 244 -49q124 0 195 32.5t130 102.5l-4 215q-76 -76 -141 -109q-71 -41 -184 -41q-175 0 -301 144 q-63 73 -91 147h-202zM434 729h559v100h-551q-8 -41 -8 -100zM438 641q10 -60 25 -102h528v102h-553z" />
<glyph unicode="&#x2122;" horiz-adv-x="2639" d="M20 1085h371v-1085h373v1085h373v349h-1117v-349zM45 1112v297h1067v-297h-373v-1087h-321v1087h-373zM1147 0h364l35 557l187 -549h272l213 588l35 -596h366l-88 1434h-377l-241 -662q-3 -8 -13.5 -37t-15.5 -45q-4 14 -13 40t-13 40l-236 664h-375zM1174 25l96 1384 h336l227 -647q7 -20 20 -58.5t19 -56.5l10 -37l12 37q7 21 21 61t20 56l238 645h334l86 -1384h-318l-34 612v20l-25 5l-229 -629h-236l-201 594l-24 -4l-37 -598h-315z" />
<glyph unicode="&#x25fc;" horiz-adv-x="1024" d="M0 0v1024h1024v-1024h-1024z" />
</font>
</defs>
</svg>
