<?xml version="1.0" encoding="iso-8859-1"?>
<!-- Generator: Adobe Illustrator 19.0.1, SVG Export Plug-In . SVG Version: 6.00 Build 0)  -->
<svg version="1.1" xmlns="http://www.w3.org/2000/svg" xmlns:xlink="http://www.w3.org/1999/xlink" x="0px" y="0px"
	 viewBox="0 0 128 128" style="enable-background:new 0 0 128 128;" xml:space="preserve">
<g id="_x31_">
	<path id="_x31__1_" style="fill:#ffffff;" d="M118.147,24.542L100.865,7.261c-14.302,5.559-32.461,14.922-47.679,30.14
		c-2.45,2.45-4.798,4.901-7.042,7.351c-6.99,7.583-13.064,15.179-18.03,22.389l30.153,30.153
		c9.544-6.577,19.745-15.076,29.74-25.071C103.225,57.004,112.589,38.845,118.147,24.542z M82.204,43.204
		c-5.223-5.223-5.236-13.696-0.013-18.919s13.709-5.223,18.932,0s5.21,13.696-0.013,18.92S87.427,48.427,82.204,43.204z M125.408,0
		c0,0-7.686,1.315-18.881,5.184l13.696,13.696C124.092,7.686,125.408,0,125.408,0z M98.743,40.834
		c-3.915,3.915-10.257,3.915-14.172,0s-3.925-10.267-0.01-14.182c3.915-3.915,10.276-3.915,14.192,0S102.659,36.918,98.743,40.834z
		 M2.592,67.205l29.456-29.456l11.762,4.669c-6.99,7.583-13.064,15.179-18.03,22.389L2.592,67.205z M60.559,99.584
		c7.209-4.965,14.805-11.04,22.389-18.03l4.669,11.762L58.16,122.773L60.559,99.584z M24.491,128l-3.869-3.869L50.5,94.253
		l3.869,3.869L24.491,128z M7.725,111.234l-3.869-3.869l29.878-29.878l3.869,3.869L7.725,111.234z M28.144,106.291l-3.869-3.869
		l17.196-17.196l3.869,3.869L28.144,106.291z M13.958,92.105l-3.869-3.869l17.196-17.196l3.869,3.869L13.958,92.105z"/>
</g>
<g id="Layer_1">
</g>
</svg>
