<?xml version="1.0" encoding="iso-8859-1"?>
<!-- Generator: Adobe Illustrator 19.0.1, SVG Export Plug-In . SVG Version: 6.00 Build 0)  -->
<svg version="1.1" xmlns="http://www.w3.org/2000/svg" xmlns:xlink="http://www.w3.org/1999/xlink" x="0px" y="0px"
	 viewBox="0 0 128 128" style="enable-background:new 0 0 128 128;" xml:space="preserve">
<g id="_x31_0">
	<path id="_x32__2_" style="fill:#262626;" d="M77.606,99.194H51.363l-8.407,8.938l1.886,16.96c0,0,2.178,0.438,2.895,0
		c0.73-0.438,4.648-13.188,4.648-13.188s3.626,4.489,8.115,4.489L61.988,128h4.994l1.487-11.607c4.489,0,8.115-4.489,8.115-4.489
		s3.918,12.749,4.635,13.188c0.73,0.438,2.908,0,2.908,0L86,108.132L77.606,99.194z M63.98,0v0.013c0.027,0,0.027,0,0.027,0
		C63.98,0,63.98,0,63.98,0z M64.02,0.013c-0.013,0-0.013,0-0.013,0s0,0-0.027,0c-0.837,0.571-20.466,14.064-22.179,47.001h44.398
		C84.486,14.078,64.857,0.584,64.02,0.013z M64.02,38.554c-4.622,0-8.367-3.732-8.367-8.354s3.745-8.367,8.367-8.367
		c4.622,0,8.367,3.745,8.367,8.367S68.642,38.554,64.02,38.554z M41.682,50.998c-0.093,12.617,2.417,27.876,9.323,46.098h25.99
		c6.906-18.221,9.416-33.481,9.323-46.098H41.682z"/>
</g>
<g id="Layer_1">
</g>
</svg>
