<?xml version="1.0" encoding="iso-8859-1"?>
<!-- Generator: Adobe Illustrator 19.0.1, SVG Export Plug-In . SVG Version: 6.00 Build 0)  -->
<svg version="1.1" xmlns="http://www.w3.org/2000/svg" xmlns:xlink="http://www.w3.org/1999/xlink" x="0px" y="0px"
	 viewBox="0 0 128 128" style="enable-background:new 0 0 128 128;" xml:space="preserve">
<g id="_x31_1">
	<path id="_x33__2_" style="fill:#262626;" d="M63.55,54.092c-6.199,0-11.244-5.045-11.244-11.244s5.045-11.244,11.244-11.244
		s11.244,5.045,11.244,11.244S69.749,54.092,63.55,54.092z M63.55,35.995c-3.78,0-6.854,3.074-6.854,6.854
		c0,3.78,3.074,6.854,6.854,6.854c3.78,0,6.854-3.074,6.854-6.854C70.404,39.069,67.33,35.995,63.55,35.995z M25.001,67.621
		c-1.449,2.473-2.766,6.966-3.761,12.497h7.814C28.338,74.543,27.328,70.533,25.001,67.621z M107.461,84.508h-9
		c-0.337,3.219-0.659,6.878-1.127,11.004c-4.8-2.005-8.209-7.112-10.609-13.068v-38.72C86.725,10.843,64.292,0,64.292,0h-1.493
		c0,0-22.418,10.843-22.418,43.725v40.798c-2.341,5.048-5.488,9.204-9.717,10.99c-0.454-4.127-0.776-7.785-1.112-11.004h-9
		c-1.288,9.409-1.654,20.809-0.322,30.511c0.571,0,9.863,0,9.863,0s1.361-8.165,0.805-10.317c4.771-0.615,15.936-2.268,22.184-2.956
		v7.741h20.926v-7.858c6.029,0.629,18.102,2.429,23.106,3.073c-0.571,2.151,0.79,10.317,0.79,10.317s9.307,0,9.863,0
		C109.1,105.317,108.734,93.918,107.461,84.508z M63.546,57.056c-7.829,0-14.194-6.366-14.194-14.209
		c0-7.844,6.366-14.194,14.194-14.194c7.844,0,14.209,6.351,14.209,14.194C77.755,50.69,71.389,57.056,63.546,57.056z
		 M103.012,67.621c-2.327,2.912-3.336,6.922-4.053,12.497h7.814C105.778,74.572,104.461,70.094,103.012,67.621z M66.538,128h-4.39
		v-16.484h4.39V128z M73.502,123.614h-4.39v-12.098h4.39V123.614z M59.575,123.614h-4.39v-12.098h4.39V123.614z"/>
</g>
<g id="Layer_1">
</g>
</svg>
