<?xml version="1.0" encoding="iso-8859-1"?>
<!-- Generator: Adobe Illustrator 19.0.1, SVG Export Plug-In . SVG Version: 6.00 Build 0)  -->
<svg version="1.1" xmlns="http://www.w3.org/2000/svg" xmlns:xlink="http://www.w3.org/1999/xlink" x="0px" y="0px"
	 viewBox="0 0 128 128" style="enable-background:new 0 0 128 128;" xml:space="preserve">
<g id="_x32_">
	<path id="_x32__1_" style="fill:#262626;" d="M64,0c-9.246,0-16.74,24.158-16.74,53.956c0,5.244,0.232,10.312,0.664,15.108
		c0.968,10.709,2.936,20.042,5.563,26.872c0.103,0.273,0.211,0.546,0.319,0.814h20.387c0.108-0.268,0.216-0.541,0.319-0.814
		c2.627-6.83,4.595-16.164,5.563-26.872c0.433-4.795,0.664-9.864,0.664-15.108C80.74,24.158,73.246,0,64,0z M63.413,81.585
		c-2.39,0-4.322-1.937-4.322-4.322s1.932-4.322,4.322-4.322c2.385,0,4.322,1.937,4.322,4.322S65.798,81.585,63.413,81.585z
		 M63.413,67.163c-2.39,0-4.322-1.937-4.322-4.322c0-2.385,1.932-4.322,4.322-4.322c2.385,0,4.322,1.937,4.322,4.322
		C67.734,65.226,65.798,67.163,63.413,67.163z M63.413,50.407c-4.795,0-8.684-3.889-8.684-8.684s3.889-8.684,8.684-8.684
		s8.684,3.889,8.684,8.684S68.208,50.407,63.413,50.407z M51.427,95.936c-1.581,0.319-11.605,2.596-15.242,9.23
		c0-33.141,7.448-35.989,9.679-36.103C46.832,79.772,48.8,89.106,51.427,95.936z M91.815,105.166
		c-3.637-6.634-13.66-8.911-15.242-9.23c2.627-6.83,4.595-16.164,5.563-26.872C84.367,69.177,91.815,72.025,91.815,105.166z
		 M74.13,97.694v6.097H53.724v-6.097H74.13z M73.271,116.153c-1.648,2.447,0.026-3.863-2.936-3.348
		c-2.962,0.515-1.159,13.907-6.181,15.195h-0.453c-5.022-1.288-3.219-14.68-6.181-15.195c-2.962-0.515-1.288,5.795-2.936,3.348
		c-1.648-2.447,0-11.718,0-11.718h3.719c-0.201,1.272-0.762,5.367,0.062,6.593c0.984,1.458-0.015-2.297,1.746-1.993
		c1.767,0.309,0.69,8.278,3.683,9.045h0.268c2.993-0.767,1.916-8.736,3.678-9.045c1.767-0.304,0.767,3.451,1.751,1.993
		c0.824-1.226,0.263-5.321,0.062-6.593h3.719C73.271,104.435,74.919,113.706,73.271,116.153z M68.742,41.722
		c0,2.943-2.386,5.329-5.329,5.329s-5.329-2.386-5.329-5.329c0-2.943,2.386-5.329,5.329-5.329S68.742,38.78,68.742,41.722z
		 M65.885,62.841c0,1.365-1.108,2.473-2.473,2.473c-1.367,0-2.473-1.108-2.473-2.473s1.105-2.473,2.473-2.473
		C64.777,60.368,65.885,61.477,65.885,62.841z M65.947,77.264c0,1.399-1.136,2.534-2.534,2.534c-1.402,0-2.534-1.136-2.534-2.534
		s1.133-2.534,2.534-2.534C64.811,74.729,65.947,75.865,65.947,77.264z"/>
</g>
<g id="Layer_1">
</g>
</svg>
