<?xml version="1.0" encoding="iso-8859-1"?>
<!-- Generator: Adobe Illustrator 19.0.1, SVG Export Plug-In . SVG Version: 6.00 Build 0)  -->
<svg version="1.1" xmlns="http://www.w3.org/2000/svg" xmlns:xlink="http://www.w3.org/1999/xlink" x="0px" y="0px"
	 viewBox="0 0 128 128" style="enable-background:new 0 0 128 128;" xml:space="preserve">
<g id="_x33_">
	<path id="_x33__1_" style="fill:#262626;" d="M65.865,13.635L63.793,0l-2.221,13.916v0.007
		c-4.471,8.838-14.153,30.964-14.153,56.864c0,0.977,0.007,1.954,0.015,2.916c0.089,6.84,0.481,13.383,1.118,19.453
		c0.244,2.265,0.518,4.464,0.829,6.588h12.073l-2.82-29.853h9.897l-2.924,29.853h12.606c0.333-2.317,0.629-4.715,0.888-7.202
		c0.622-6.077,0.992-12.613,1.059-19.446c0.007-0.77,0.015-1.54,0.015-2.31C80.174,44.599,70.27,22.273,65.865,13.635z
		 M63.793,50.15c-3.472,0-6.292-2.82-6.292-6.292s2.82-6.292,6.292-6.292c3.479,0,6.292,2.82,6.292,6.292S67.272,50.15,63.793,50.15
		z M63.793,48.917c-2.789,0-5.058-2.269-5.058-5.058s2.269-5.058,5.058-5.058s5.058,2.269,5.058,5.058S66.582,48.917,63.793,48.917z
		 M63.793,41.021c-1.564,0-2.837,1.273-2.837,2.838c0,1.565,1.273,2.838,2.837,2.838c1.564,0,2.837-1.273,2.837-2.838
		C66.63,42.294,65.357,41.021,63.793,41.021z M44.214,106.282l-7.654-19.49l8.653-13.087c0.089,6.84,0.481,13.383,1.118,19.453
		C42.955,99.435,44.214,106.282,44.214,106.282z M83.794,106.282c0,0,1.332-7.299-2.472-13.739
		c0.622-6.077,0.992-12.613,1.059-19.446l9.06,13.694L83.794,106.282z M63.526,128c0.044-0.007,0.089-0.015,0.133-0.022
		c0.044,0.007,0.089,0.015,0.133,0.022H63.526z M73.238,117.385c-1.969-3.449-1.969-2.709-1.969-2.709s-4.39,12.488-7.61,13.302
		c-3.22-0.814-7.602-13.302-7.602-13.302s0-0.74-1.976,2.709c-4.441-4.811-1.355-16.403-1.355-16.403h4.39
		c-0.333,1.48-1.355,6.862,0.896,9.297c1.162-2.043,1.162-1.606,1.162-1.606s2.583,7.358,4.486,7.839
		c1.902-0.481,4.486-7.839,4.486-7.839s0-0.437,1.162,1.606c2.25-2.435,1.229-7.817,0.903-9.297h4.39
		C74.6,100.982,77.679,112.574,73.238,117.385z M63.741,116.534h-0.163c0.03-0.007,0.052-0.007,0.081-0.022
		C63.689,116.526,63.711,116.526,63.741,116.534z M66.327,72.359l-2.795,35.158l-2.695-35.158H66.327z"/>
</g>
<g id="Layer_1">
</g>
</svg>
