<?xml version="1.0" encoding="iso-8859-1"?>
<!-- Generator: Adobe Illustrator 19.0.1, SVG Export Plug-In . SVG Version: 6.00 Build 0)  -->
<svg version="1.1" xmlns="http://www.w3.org/2000/svg" xmlns:xlink="http://www.w3.org/1999/xlink" x="0px" y="0px"
	 viewBox="0 0 128 128" style="enable-background:new 0 0 128 128;" xml:space="preserve">
<g id="_x35_">
	<path id="_x34__4_" style="fill:#ffffff;" d="M62.958,70.453v0.012c0,0,0.185,0.023,1.134,0
		C63.815,70.465,63.445,70.465,62.958,70.453z M64.093,70.465c0.775,0.012,0.937,0,0.937,0v-0.012
		C64.66,70.453,64.359,70.465,64.093,70.465z M65.03,70.453v0.012c0,0-0.162,0.012-0.937,0C64.359,70.465,64.66,70.453,65.03,70.453
		z M48.483,68.317l-2.839-0.12c0,0-6.128,0-8.509,6.894c-4.551-19.098,1.585-26.684,5.482-29.462
		C43.106,52.478,44.863,60.064,48.483,68.317z M64.093,70.465c-0.949,0.023-1.134,0-1.134,0v-0.012
		C63.445,70.465,63.815,70.465,64.093,70.465z M90.864,75.091c-2.381-6.894-8.509-6.894-8.509-6.894l-2.839,0.12
		c3.62-8.254,5.377-15.839,5.865-22.688C89.28,48.408,95.416,55.993,90.864,75.091z M64.001,45.915
		c-6.656,0-12.071-5.414-12.071-12.07s5.414-12.07,12.071-12.07c6.655,0,12.07,5.414,12.07,12.07S70.656,45.915,64.001,45.915z
		 M64.001,25.248c-4.742,0-8.599,3.857-8.599,8.598s3.857,8.598,8.599,8.598c4.741,0,8.598-3.857,8.598-8.598
		S68.741,25.248,64.001,25.248z M58.266,33.846c0-3.167,2.567-5.734,5.734-5.734c3.167,0,5.734,2.567,5.734,5.734
		S67.167,39.58,64,39.58C60.833,39.58,58.266,37.012,58.266,33.846z M65.146,0.393L64.579,0h-1.25l-0.475,0.393
		c-0.822,0.671-19.858,16.78-17.81,45.364c0.544,7.568,2.569,15.403,6.006,23.249c0.208,0.463,0.405,0.926,0.625,1.389l-4.074,7.152
		h2.997l-2.997,5.265h13.413v-3.472h-7.441l1.018-1.794h6.423v-3.472h-7.441l1.296-2.199h0.012c3.437,0.162,6.133,0.266,8.031,0.312
		c0.498,0.012,0.891,0.012,1.18,0.012c0.208,0,0.44,0,0.706-0.012h0.266c1.678-0.046,3.958-0.127,6.793-0.255l1.18,2.141h-7.43
		v3.472h6.423l1.007,1.794h-7.43v3.472h13.413l-2.997-5.265h2.997L75.7,71.715l0.428-0.891c0.289-0.602,0.555-1.215,0.822-1.805
		c1.713-3.923,3.078-7.858,4.085-11.735c1.007-3.888,1.655-7.742,1.921-11.526C85.004,17.174,65.967,1.065,65.146,0.393z
		 M65.03,70.465c0,0-0.162,0.012-0.937,0c-0.949,0.023-1.134,0-1.134,0v-0.012c0.486,0.012,0.856,0.012,1.134,0.012
		c0.266,0,0.567-0.012,0.937-0.012V70.465z M79.484,45.503c-0.509,7.186-2.43,14.628-5.717,22.127
		c-0.116,0.255-0.231,0.509-0.347,0.764c-3.622,0.162-6.457,0.278-8.425,0.324h-0.266c-0.602,0.012-0.949,0.023-1.724,0
		c-1.979-0.046-4.803-0.162-8.425-0.324c-0.116-0.255-0.231-0.521-0.347-0.775c-3.287-7.487-5.208-14.929-5.717-22.115
		c-0.937-13.007,2.916-23.376,7.14-30.598c1.69,0.741,4.606,1.69,8.344,1.69c3.507,0,6.562-1.007,8.321-1.736
		c3.796,6.492,7.302,15.519,7.302,26.733C79.623,42.865,79.577,44.172,79.484,45.503z M63.445,128c0,0-2.657-6.982-9.406-17.727
		c-9.596-15.28-2.761-26.195-2.466-26.653l2.916,1.885l-1.458-0.943l1.462,0.936c-0.244,0.385-5.882,9.604,2.486,22.928
		c3.453,5.497,5.556,9.207,6.793,11.747c1.321-2.466,3.49-6.152,7.003-11.747c8.432-13.427,2.552-22.827,2.491-22.921l2.916-1.885
		c0.295,0.458,7.13,11.372-2.466,26.653C67.183,120.675,63.445,128,63.445,128z M70.3,85.713c0,0,3.931,6.08-1.468,14.676
		c-5.399,8.596-5.14,9.225-5.14,9.225s0.629-0.629-4.77-9.225s-1.468-14.676-1.468-14.676H70.3z"/>
</g>
<g id="Layer_1">
</g>
</svg>
