<?xml version="1.0" encoding="iso-8859-1"?>
<!-- Generator: Adobe Illustrator 19.0.1, SVG Export Plug-In . SVG Version: 6.00 Build 0)  -->
<svg version="1.1" xmlns="http://www.w3.org/2000/svg" xmlns:xlink="http://www.w3.org/1999/xlink" x="0px" y="0px"
	 viewBox="0 0 128 128" style="enable-background:new 0 0 128 128;" xml:space="preserve">
<g id="_x37_">
	<path id="_x32__4_" style="fill:#262626;" d="M83.075,66.919v-0.007c-0.921-18.96-5.828-35.863-10.448-47.933
		C68.115,7.183,63.869,0,63.869,0s-4.713,7.978-9.486,20.916c-4.413,11.957-8.879,28.139-9.727,46.184
		c-3.852,2.624-20.829,16.009-4.152,38.24c1.555-7.25,4.112-14.5,7.023-19.6c1.829,0.875,4.747,1.829,9.259,2.33
		c-1.642,3.912-3.391,9.32-1.469,11.009c0.414,0.36,1.075,0.674,1.909,0.928c-1.215,2.697-3.345,7.951-1.923,8.752
		c1.916,1.088,4.92-4.753,4.92-4.753s-2.083,19.948,1.502,23.446c3.592,3.512,6.93-10.928,6.93-10.928s0.334,3.338,3.338,4.76
		c2.524,1.188,3.044-14.44,0.921-21.116c1.102-0.28,1.963-0.641,2.463-1.081c1.989-1.756,0.047-7.484-1.636-11.416
		c3.111-0.547,5.241-1.315,6.669-2.029c2.937,5.107,5.521,12.404,7.083,19.701C104.598,82.541,86.313,69.049,83.075,66.919z
		 M63.749,3.865l5.888,12.751c0,0-1.762,2.003-5.768,2.003c-3.839,0-5.581-2.003-5.581-2.003L63.749,3.865z M70.144,110.88
		c-1.989-0.935-2.21-3.151-2.21-3.151s-2.21,9.567-4.593,7.243c-1.903-1.856-1.395-10.681-1.122-14.14
		c3.078,0.22,6.542,0.107,9.213-0.354h0.007C71.947,105.326,71.446,111.494,70.144,110.88z M64.536,59.055
		c-6.516,0-11.796-5.281-11.796-11.796s5.281-11.796,11.796-11.796s11.796,5.281,11.796,11.796S71.052,59.055,64.536,59.055z
		 M64.536,56.827c-5.276,0-9.569-4.292-9.569-9.569s4.293-9.569,9.569-9.569s9.569,4.293,9.569,9.569S69.812,56.827,64.536,56.827z
		 M64.536,40.36c-3.804,0-6.899,3.095-6.899,6.899c0,3.803,3.095,6.898,6.899,6.898c3.804,0,6.899-3.095,6.899-6.898
		C71.435,43.455,68.34,40.36,64.536,40.36z"/>
</g>
<g id="Layer_1">
</g>
</svg>
