<?xml version="1.0" encoding="iso-8859-1"?>
<!-- Generator: Adobe Illustrator 19.0.1, SVG Export Plug-In . SVG Version: 6.00 Build 0)  -->
<svg version="1.1" xmlns="http://www.w3.org/2000/svg" xmlns:xlink="http://www.w3.org/1999/xlink" x="0px" y="0px"
	 viewBox="0 0 128 128" style="enable-background:new 0 0 128 128;" xml:space="preserve">
<g id="_x38_">
	<path id="_x31__4_" style="fill:#262626;" d="M86.275,54.354l-6.527-4.662C78.994,38.18,77.197,27,74.579,17.812
		C73.056,12.454,68.963,0,63.921,0s-9.135,12.454-10.658,17.812c-2.624,9.209-4.42,20.425-5.179,31.968l-6.385,4.578l-0.674,22.285
		l6.902-6.406c0.058,1.233,0.126,2.444,0.19,3.614c0.148,2.745,0.274,5.116,0.274,6.585c0,0.822,0.653,1.48,2.023,2.007
		c0.738,0.284,1.681,0.532,2.84,0.748c0.016,0.005,0.037,0.005,0.058,0.011c0.738,0.137,1.549,0.258,2.413,0.358
		c2.402,0.29,5.237,0.448,8.092,0.448c2.302,0,4.626-0.105,6.738-0.316c0.869-0.09,1.702-0.2,2.481-0.327
		c1.059-0.174,2.028-0.385,2.866-0.637c0.964-0.284,1.765-0.622,2.339-1.012c1.027-0.69,1.259-1.459,1.27-2.002
		c0.237-3.098,0.411-6.28,0.516-9.515l6.949,6.438L86.275,54.354z M48.221,66.582c-0.068-0.026-0.116-0.047-0.142-0.058l0.153-0.369
		L48.221,66.582z M49.97,80.395c0-1.512-0.132-3.883-0.279-6.628c-0.116-2.16-0.237-4.489-0.327-6.77
		c0.674,0.227,1.586,0.522,2.703,0.822v13.492C50.397,80.88,50.028,80.479,49.97,80.395z M53.648,81.66V68.22
		c0.653,0.153,1.359,0.306,2.107,0.448v13.313C55.012,81.886,54.306,81.781,53.648,81.66z M57.336,82.155V68.942
		c0.674,0.111,1.38,0.205,2.107,0.29v13.087C58.726,82.276,58.02,82.223,57.336,82.155z M64.711,82.445V69.532
		c0.69,0,1.391-0.016,2.107-0.053v12.913C66.123,82.418,65.422,82.439,64.711,82.445z M63.131,82.445
		c-0.706-0.005-1.412-0.021-2.107-0.053V69.384c0.685,0.053,1.386,0.095,2.107,0.121V82.445z M69.532,82.223
		c-0.369,0.032-0.748,0.058-1.133,0.084V69.368c0.695-0.063,1.396-0.142,2.107-0.242v13.002c-0.074,0.011-0.153,0.016-0.227,0.021
		C70.032,82.176,69.785,82.202,69.532,82.223z M74.194,81.559c-0.448,0.1-0.922,0.19-1.417,0.269
		c-0.227,0.037-0.453,0.074-0.69,0.105V68.868c0.695-0.132,1.401-0.284,2.107-0.458V81.559z M77.93,79.626v0.058
		c0,0.279-0.311,0.548-0.569,0.722c-0.395,0.269-0.933,0.511-1.586,0.727V67.978c0.917-0.274,1.839-0.585,2.755-0.948
		C78.441,71.328,78.24,75.543,77.93,79.626z M78.556,65.317c-12.718,5.274-26.215,1.054-29.25-0.026
		c-0.026-1.122-0.047-2.218-0.047-3.266c0-15.457,2.002-31.363,5.49-43.669c2.645,1.138,5.795,1.797,9.172,1.797
		s6.528-0.659,9.172-1.797c3.488,12.307,5.49,28.212,5.49,43.669C78.583,63.125,78.578,64.227,78.556,65.317z M79.763,66.518v-0.042
		l0.016,0.037C79.773,66.513,79.768,66.518,79.763,66.518z M63.921,46.715c-5.894,0-10.69-4.795-10.69-10.69
		s4.796-10.69,10.69-10.69s10.69,4.795,10.69,10.69S69.815,46.715,63.921,46.715z M63.921,26.916c-5.023,0-9.109,4.086-9.109,9.109
		s4.086,9.109,9.109,9.109s9.109-4.086,9.109-9.109S68.944,26.916,63.921,26.916z M63.921,43.137c-3.922,0-7.112-3.191-7.112-7.112
		s3.19-7.112,7.112-7.112s7.112,3.191,7.112,7.112S67.843,43.137,63.921,43.137z M63.921,30.493c-3.05,0-5.532,2.482-5.532,5.532
		c0,3.05,2.481,5.532,5.532,5.532c3.05,0,5.532-2.482,5.532-5.532C69.453,32.975,66.971,30.493,63.921,30.493z M71.049,91.68
		c0,10.252-7.918,18.55-7.918,18.55s-7.918-8.298-7.918-18.55c0-2.302,0.179-4.51,0.511-6.538c2.402,0.29,5.237,0.448,8.092,0.448
		c2.302,0,4.626-0.105,6.738-0.316C70.875,87.27,71.049,89.43,71.049,91.68z M75.901,84.31c-0.838,0.253-1.807,0.464-2.866,0.637
		c0.369,2.497,0.569,5.184,0.569,7.971c0,13.566-10.473,24.551-10.473,24.551s-10.473-10.985-10.473-24.551
		c0-2.85,0.205-5.595,0.595-8.145c-1.159-0.216-2.102-0.464-2.84-0.748c-0.632,3.672-0.98,7.687-0.98,11.891
		c0,17.723,13.698,32.084,13.698,32.084s13.698-14.362,13.698-32.084C76.828,91.817,76.502,87.908,75.901,84.31z"/>
</g>
<g id="Layer_1">
</g>
</svg>
