<?xml version="1.0" encoding="iso-8859-1"?>
<!-- Generator: Adobe Illustrator 19.0.1, SVG Export Plug-In . SVG Version: 6.00 Build 0)  -->
<svg version="1.1" xmlns="http://www.w3.org/2000/svg" xmlns:xlink="http://www.w3.org/1999/xlink" x="0px" y="0px"
	 viewBox="0 0 128 128" style="enable-background:new 0 0 128 128;" xml:space="preserve">
<g id="_x39_">
	<path id="_x31__2_" style="fill:#262626;" d="M73.029,14.709H54.971C59.481,5.625,64,0,64,0S68.519,5.625,73.029,14.709z
		 M49.941,45.403c0-2.507-1.223-4.735-3.095-6.12c-0.573,3.505-0.898,7.149-0.898,10.886c0,0.642,0.008,1.269,0.015,1.903
		C48.332,50.788,49.941,48.281,49.941,45.403z M82.044,51.6c0.008-0.472,0.008-0.952,0.008-1.431c0-3.536-0.294-6.987-0.805-10.322
		c-1.486,1.393-2.414,3.366-2.414,5.555C78.833,47.956,80.101,50.223,82.044,51.6z M64,37.797c-4.194,0-7.606,3.412-7.606,7.606
		c0,4.186,3.412,7.598,7.606,7.598s7.606-3.412,7.606-7.598C71.606,41.209,68.194,37.797,64,37.797z M90.825,94.403v11.869
		L71.428,94.403H56.572l-19.398,11.869V94.403l12.449-13.881c-2.004-7.32-3.296-16.225-3.606-25.912
		c3.652-1.462,6.244-5.037,6.244-9.207c0-3.668-2.004-6.879-4.967-8.596c1.393-7.087,3.722-13.548,6.205-19.003H74.5
		c2.538,5.563,4.905,12.179,6.29,19.436c-2.584,1.795-4.279,4.782-4.279,8.163c0,3.876,2.236,7.234,5.478,8.859v0.008
		c-0.286,9.819-1.586,18.848-3.613,26.253L90.825,94.403z M73.927,45.403c0-5.478-4.457-9.927-9.927-9.927s-9.927,4.449-9.927,9.927
		c0,5.47,4.457,9.919,9.927,9.919S73.927,50.873,73.927,45.403z M71.157,96.725H56.572v3.227h14.585V96.725z M63.994,101.628
		c-4.328,0-7.84,3.463-7.84,10.742c0,7.279,7.84,15.631,7.84,15.631s7.852-8.352,7.852-15.631
		C71.846,105.09,68.334,101.628,63.994,101.628z M59.338,110.929c0-4.324,2.086-6.373,4.656-6.373c2.57,0,4.656,2.048,4.656,6.373
		c0,4.315-4.656,9.265-4.656,9.265S59.338,115.244,59.338,110.929z"/>
</g>
<g id="Layer_1">
</g>
</svg>
